<?xml version="1.0" standalone="no"?>
<!DOCTYPE svg PUBLIC "-//W3C//DTD SVG 1.1//EN" "http://www.w3.org/Graphics/SVG/1.1/DTD/svg11.dtd" >
<svg xmlns="http://www.w3.org/2000/svg" xmlns:xlink="http://www.w3.org/1999/xlink" version="1.1">
<metadata>
Created by FontForge 20170731 at Mon Feb 23 18:19:54 2009
 By ,,,
Copyright (c) 2008 - 2009 Linotype GmbH, www.linotype.com. All rights reserved. This font software may not be reproduced, modified, disclosed or transferred without the express written approval of Linotype GmbH.
</metadata>
<defs>
<font id="DINNextLTPro-HeavyItalic" horiz-adv-x="544" >
  <font-face 
    font-family="DIN Next LT Pro Heavy Italic"
    font-weight="750"
    font-style="italic"
    font-stretch="normal"
    units-per-em="1000"
    panose-1="2 11 9 3 2 2 3 12 2 3"
    ascent="750"
    descent="-250"
    x-height="487"
    cap-height="680"
    bbox="-171.368 -244 1092 930"
    underline-thickness="50"
    underline-position="-200"
    unicode-range="U+0020-FB04"
  />
<missing-glyph horiz-adv-x="530" 
d="M520 0h-510q-10 0 -10 10v660q0 10 10 10h510q10 0 10 -10v-660q0 -10 -10 -10zM445 75q6 0 6 6v518q0 6 -6 6h-360q-6 0 -6 -6v-518q0 -6 6 -6h360zM300 249h-81q-10 0 -10 10v24q0 29 20 54l39 47q28 32 28 51q0 17 -10 27t-26 10q-33 0 -41 -34q-3 -10 -12 -9l-76 10
q-10 2 -8 11q8 52 45.5 82.5t96.5 30.5q61 0 98.5 -34.5t37.5 -85.5q0 -49 -40 -92l-38 -47q-13 -14 -13 -35v-10q0 -10 -10 -10zM301 113h-83q-10 0 -10 10v75q0 10 10 10h83q10 0 10 -10v-75q0 -10 -10 -10z" />
    <glyph glyph-name="IJ" unicode="IJ" horiz-adv-x="783" 
d="M19 10l117 660q2 10 11 10h150q10 0 8 -10l-117 -660q-2 -10 -10 -10h-150q-11 0 -9 10zM266 84q-2 9 4 14l118 80q8 5 13 -1q27 -37 68 -37t65 24.5t34 78.5l76 427q2 10 11 10h151q11 0 9 -10l-74 -414q-25 -139 -97 -203.5t-194 -64.5q-63 0 -114 27.5t-70 68.5z" />
    <glyph glyph-name="ij" unicode="ij" horiz-adv-x="530" 
d="M265 553h-143q-10 0 -8 10l19 107q2 10 11 10h143q10 0 8 -10l-19 -107q-2 -10 -11 -10zM168 0h-143q-10 0 -8 10l82 467q2 10 11 10h143q10 0 8 -10l-82 -467q-2 -10 -11 -10zM530 553h-143q-10 0 -8 10l20 107q2 10 11 10h142q10 0 8 -10l-19 -107q-2 -10 -11 -10z
M219 -180h-36q-10 0 -7 10l20 113q2 10 11 10h13q30 0 43 11.5t19 44.5l82 468q2 10 11 10h143q10 0 8 -10l-82 -468q-19 -110 -68.5 -149.5t-156.5 -39.5z" />
    <glyph glyph-name="napostrophe" unicode="&#x22;n" horiz-adv-x="540" 
d="M24 476q-12 0 -10 12l32 182q2 10 11 10h105q11 0 9 -10l-17 -92q-2 -14 -12 -21l-102 -74q-10 -7 -16 -7zM445 0h-143q-10 0 -8 10l49 279q13 75 -44 75q-58 0 -71 -74l-49 -280q-2 -10 -11 -10h-143q-10 0 -8 10l82 467q2 10 11 10h143q10 0 8 -10l-6 -37h1
q48 59 130 59q80 0 110 -49.5t15 -131.5l-55 -308q-2 -10 -11 -10z" />
    <glyph glyph-name="f_f" unicode="ff" horiz-adv-x="678" 
d="M188 0h-142q-11 0 -9 10l61 355q2 6 -5 6h-27q-9 0 -7 10l17 96q2 10 10 10h28q6 0 7 6l3 16q16 92 63.5 131.5t140.5 39.5h63q10 0 8 -10l-19 -103q-2 -10 -10 -10h-28q-29 0 -41.5 -9.5t-16.5 -36.5l-3 -17q-1 -7 5 -7h69q11 0 9 -10l-18 -96q-2 -10 -11 -10h-69
q-6 0 -7 -6l-61 -355q-2 -10 -10 -10zM527 0h-142q-11 0 -9 10l61 355q1 6 -5 6h-27q-9 0 -7 10l17 96q2 10 10 10h28q5 0 7 6l3 16q16 92 63.5 131.5t140.5 39.5h63q10 0 8 -10l-19 -103q-2 -10 -10 -10h-28q-29 0 -41.5 -9.5t-16.5 -36.5l-3 -17q-1 -7 5 -7h69q11 0 9 -10
l-18 -96q-2 -10 -11 -10h-69q-5 0 -7 -6l-61 -355q-2 -10 -10 -10z" />
    <glyph glyph-name="fi" unicode="fi" horiz-adv-x="604" 
d="M188 0h-142q-11 0 -9 10l61 355q2 6 -5 6h-27q-9 0 -7 10l17 96q2 10 10 10h28q6 0 7 6l3 16q16 92 63.5 131.5t140.5 39.5h63q10 0 8 -10l-19 -103q-2 -10 -10 -10h-28q-29 0 -41.5 -9.5t-16.5 -36.5l-3 -17q-1 -7 5 -7h69q11 0 9 -10l-18 -96q-2 -10 -11 -10h-69
q-6 0 -7 -6l-61 -355q-2 -10 -10 -10zM604 553h-143q-10 0 -8 10l19 107q2 10 11 10h143q10 0 8 -10l-19 -107q-2 -10 -11 -10zM507 0h-143q-10 0 -8 10l82 467q2 10 11 10h143q10 0 8 -10l-82 -467q-2 -10 -11 -10z" />
    <glyph glyph-name="fl" unicode="fl" horiz-adv-x="644" 
d="M188 0h-142q-11 0 -9 10l61 355q2 6 -5 6h-27q-9 0 -7 10l17 96q2 10 10 10h28q6 0 7 6l3 16q16 92 63.5 131.5t140.5 39.5h63q10 0 8 -10l-19 -103q-2 -10 -10 -10h-28q-29 0 -41.5 -9.5t-16.5 -36.5l-3 -17q-1 -7 5 -7h69q11 0 9 -10l-18 -96q-2 -10 -11 -10h-69
q-6 0 -7 -6l-61 -355q-2 -10 -10 -10zM571 -6h-58q-90 0 -119 39t-14 129l92 508q2 10 10 10h143q11 0 9 -10l-90 -493q-4 -25 3.5 -36t28.5 -11h19q10 0 8 -10l-20 -116q-2 -10 -12 -10z" />
    <glyph glyph-name="f_f_i" unicode="ffi" horiz-adv-x="943" 
d="M188 0h-142q-11 0 -9 10l61 355q2 6 -5 6h-27q-9 0 -7 10l17 96q2 10 10 10h28q6 0 7 6l3 16q16 92 63.5 131.5t140.5 39.5h63q10 0 8 -10l-19 -103q-2 -10 -10 -10h-28q-29 0 -41.5 -9.5t-16.5 -36.5l-3 -17q-1 -7 5 -7h69q11 0 9 -10l-18 -96q-2 -10 -11 -10h-69
q-6 0 -7 -6l-61 -355q-2 -10 -10 -10zM527 0h-142q-11 0 -9 10l61 355q1 6 -5 6h-27q-9 0 -7 10l17 96q2 10 10 10h28q5 0 7 6l3 16q16 92 63.5 131.5t140.5 39.5h63q10 0 8 -10l-19 -103q-2 -10 -10 -10h-28q-29 0 -41.5 -9.5t-16.5 -36.5l-3 -17q-1 -7 5 -7h69q11 0 9 -10
l-18 -96q-2 -10 -11 -10h-69q-5 0 -7 -6l-61 -355q-2 -10 -10 -10zM943 553h-143q-10 0 -8 10l19 107q2 10 11 10h143q10 0 8 -10l-19 -107q-2 -10 -11 -10zM846 0h-143q-10 0 -8 10l82 467q2 10 11 10h143q10 0 8 -10l-82 -467q-2 -10 -11 -10z" />
    <glyph glyph-name="f_f_l" unicode="ffl" horiz-adv-x="983" 
d="M188 0h-142q-11 0 -9 10l61 355q2 6 -5 6h-27q-9 0 -7 10l17 96q2 10 10 10h28q6 0 7 6l3 16q16 92 63.5 131.5t140.5 39.5h63q10 0 8 -10l-19 -103q-2 -10 -10 -10h-28q-29 0 -41.5 -9.5t-16.5 -36.5l-3 -17q-1 -7 5 -7h69q11 0 9 -10l-18 -96q-2 -10 -11 -10h-69
q-6 0 -7 -6l-61 -355q-2 -10 -10 -10zM527 0h-142q-11 0 -9 10l61 355q1 6 -5 6h-27q-9 0 -7 10l17 96q2 10 10 10h28q5 0 7 6l3 16q16 92 63.5 131.5t140.5 39.5h63q10 0 8 -10l-19 -103q-2 -10 -10 -10h-28q-29 0 -41.5 -9.5t-16.5 -36.5l-3 -17q-1 -7 5 -7h69q11 0 9 -10
l-18 -96q-2 -10 -11 -10h-69q-5 0 -7 -6l-61 -355q-2 -10 -10 -10zM910 -6h-58q-90 0 -119 39t-14 129l92 508q2 10 10 10h143q11 0 9 -10l-90 -493q-4 -25 3.5 -36t28.5 -11h19q10 0 8 -10l-20 -116q-2 -10 -12 -10z" />
    <glyph glyph-name=".notdef" horiz-adv-x="530" 
d="M520 0h-510q-10 0 -10 10v660q0 10 10 10h510q10 0 10 -10v-660q0 -10 -10 -10zM445 75q6 0 6 6v518q0 6 -6 6h-360q-6 0 -6 -6v-518q0 -6 6 -6h360zM300 249h-81q-10 0 -10 10v24q0 29 20 54l39 47q28 32 28 51q0 17 -10 27t-26 10q-33 0 -41 -34q-3 -10 -12 -9l-76 10
q-10 2 -8 11q8 52 45.5 82.5t96.5 30.5q61 0 98.5 -34.5t37.5 -85.5q0 -49 -40 -92l-38 -47q-13 -14 -13 -35v-10q0 -10 -10 -10zM301 113h-83q-10 0 -10 10v75q0 10 10 10h83q10 0 10 -10v-75q0 -10 -10 -10z" />
    <glyph glyph-name=".null" horiz-adv-x="500" 
 />
    <glyph glyph-name="nonmarkingreturn" horiz-adv-x="333" 
 />
    <glyph glyph-name="space" unicode=" " horiz-adv-x="231" 
 />
    <glyph glyph-name="exclam" unicode="!" horiz-adv-x="305" 
d="M104 208q-10 0 -8 10l57 452q2 10 10 10h148q10 0 8 -10l-103 -452q-2 -10 -10 -10h-102zM45 10l21 123q2 10 12 10h132q10 0 8 -10l-21 -123q-2 -10 -11 -10h-133q-10 0 -8 10z" />
    <glyph glyph-name="quotedbl" unicode="&#x22;" horiz-adv-x="386" 
d="M277 459q-10 0 -8 10l35 201q2 10 11 10h94q10 0 8 -10l-35 -201q-2 -10 -12 -10h-93zM105 459q-10 0 -8 10l36 201q2 10 11 10h93q11 0 9 -10l-36 -201q-2 -10 -11 -10h-94z" />
    <glyph glyph-name="numbersign" unicode="#" horiz-adv-x="579" 
d="M56 10l53 171h-58q-11 0 -9 10l17 96q2 10 11 10h75l29 94h-62q-11 0 -9 10l17 96q2 10 12 10h78l50 163q3 10 12 10h112q11 0 8 -10l-50 -163h91l51 163q3 10 12 10h112q10 0 7 -10l-50 -163h61q10 0 8 -10l-17 -96q-2 -10 -11 -10h-77l-29 -94h64q11 0 9 -10l-17 -96
q-2 -10 -11 -10h-81l-53 -171q-3 -10 -12 -10h-112q-11 0 -8 10l53 171h-91l-53 -171q-3 -10 -12 -10h-112q-11 0 -8 10zM277 297h91l29 94h-91z" />
    <glyph glyph-name="dollar" unicode="$" 
d="M18 66q-8 6 1 15l95 97q9 9 15 0q50 -50 113 -50q42 0 68.5 25t26.5 63q0 42 -59 52l-19 3q-77 10 -119.5 55.5t-42.5 114.5q0 99 59 166t154 81l12 67q2 10 12 10h79q10 0 8 -10l-12 -67q76 -10 134 -55q7 -7 -1 -16l-83 -96q-8 -8 -14 -3q-46 34 -96 34
q-38 0 -61.5 -22t-23.5 -57q0 -44 58 -52l24 -4q79 -10 119 -51t40 -107q0 -111 -59 -179.5t-159 -85.5l-12 -69q-2 -10 -12 -10h-79q-10 0 -8 10l11 66q-105 13 -169 75z" />
    <glyph glyph-name="percent" unicode="%" horiz-adv-x="823" 
d="M124 -2l503 684q7 10 18 10h98q10 0 2 -10l-503 -684q-7 -10 -18 -10h-97q-9 0 -3 10zM222 330q-52 0 -84.5 28.5t-32.5 80.5q0 36 8.5 86.5t23.5 80.5q40 82 147 82q51 0 84 -29t33 -81q0 -98 -33 -166q-40 -82 -146 -82zM236 413q20 0 31 21q6 12 16 71t10 75
q0 25 -24 25q-20 0 -30 -21q-6 -12 -16.5 -71t-10.5 -75q0 -25 24 -25zM469 101q0 36 9 86.5t24 80.5q39 82 146 82q51 0 84 -29t33 -81q0 -100 -32 -166q-42 -82 -147 -82q-52 0 -84.5 28.5t-32.5 80.5zM576 100q0 -25 24 -25q21 0 30 21q6 12 16.5 71t10.5 74q0 26 -24 26
q-20 0 -30 -21q-6 -12 -16.5 -71t-10.5 -75z" />
    <glyph glyph-name="ampersand" unicode="&#x26;" horiz-adv-x="623" 
d="M25 141q0 62 32 114t123 118q-45 78 -45 127q0 84 60.5 138t155.5 54q72 0 113.5 -38.5t41.5 -99.5q0 -55 -32.5 -100.5t-117.5 -105.5l53 -90l85 81q8 7 14 1l69 -72q7 -6 -1 -14l-104 -104l4 -5q12 -21 39 -21h22q10 0 8 -10l-18 -104q-2 -10 -11 -10h-44
q-42 0 -64 11.5t-41 43.5q-88 -67 -181 -67q-75 0 -118 44.5t-43 108.5zM296 452q44 32 58 50.5t14 40.5q0 17 -10 27t-27 10q-24 0 -40.5 -17t-16.5 -42q0 -26 22 -69zM169 169q0 -22 13.5 -36t37.5 -14q36 0 84 42l-64 109q-40 -30 -55.5 -52t-15.5 -49z" />
    <glyph glyph-name="quotesingle" unicode="'" horiz-adv-x="215" 
d="M105 459q-10 0 -8 10l36 201q2 10 11 10h93q11 0 9 -10l-36 -201q-2 -10 -12 -10h-93z" />
    <glyph glyph-name="parenleft" unicode="(" horiz-adv-x="319" 
d="M128 -74q-64 124 -64 279q0 139 54 276t152 249q8 10 16 10h93q12 0 5 -10q-171 -272 -171 -574q0 -128 29 -230q3 -10 -8 -10h-93q-8 0 -13 10z" />
    <glyph glyph-name="parenright" unicode=")" horiz-adv-x="319" 
d="M-21 -74q171 272 171 574q0 128 -29 230q-3 10 7 10h94q8 0 13 -10q64 -127 64 -279q0 -139 -54 -275.5t-152 -249.5q-8 -10 -16 -10h-94q-11 0 -4 10z" />
    <glyph glyph-name="asterisk" unicode="*" horiz-adv-x="394" 
d="M193 357q-10 0 -8 10l15 79l-71 -39q-10 -5 -13 3l-24 55q-3 8 6 13l79 42l-63 41q-7 5 -1 13l38 51q6 8 15 3l60 -41l13 83q2 10 11 10h65q10 0 8 -10l-16 -80l74 40q9 5 12 -3l24 -56q3 -8 -6 -13l-79 -41l63 -40q9 -5 2 -14l-39 -52q-6 -10 -14 -2l-61 41l-13 -83
q-2 -10 -12 -10h-65z" />
    <glyph glyph-name="plus" unicode="+" 
d="M61 209q-10 0 -10 10v114q0 10 10 10h145q6 0 6 6v149q0 10 10 10h119q10 0 10 -10v-149q0 -6 6 -6h145q10 0 10 -10v-114q0 -10 -10 -10h-145q-6 0 -6 -6v-149q0 -10 -10 -10h-119q-10 0 -10 10v149q0 6 -6 6h-145z" />
    <glyph glyph-name="comma" unicode="," horiz-adv-x="245" 
d="M2 -91l41 235q2 10 11 10h125q11 0 9 -10l-22 -128q-3 -12 -13 -20l-124 -93q-11 -8 -18 -8q-12 0 -9 14z" />
    <glyph glyph-name="hyphen" unicode="-" horiz-adv-x="380" 
d="M44 195q-10 0 -8 10l21 120q2 10 11 10h291q11 0 9 -10l-21 -120q-2 -10 -12 -10h-291z" />
    <glyph glyph-name="period" unicode="." horiz-adv-x="245" 
d="M12 10l23 134q2 10 11 10h133q11 0 9 -10l-23 -134q-2 -10 -11 -10h-133q-11 0 -9 10z" />
    <glyph glyph-name="slash" unicode="/" horiz-adv-x="423" 
d="M-4 -2l327 684q5 10 14 10h141q10 0 5 -10l-329 -684q-5 -10 -14 -10h-138q-11 0 -6 10z" />
    <glyph glyph-name="zero" unicode="0" 
d="M46 162q0 59 25.5 200t48.5 190q69 140 233 140q86 0 138 -45.5t52 -128.5q0 -60 -25 -201t-49 -189q-68 -140 -232 -140q-86 0 -138.5 45.5t-52.5 128.5zM209 171q0 -23 12.5 -36t35.5 -13q40 0 59 39q13 25 39 167.5t26 180.5q0 49 -48 49q-40 0 -59 -39
q-12 -26 -38.5 -168.5t-26.5 -179.5z" />
    <glyph glyph-name="one" unicode="1" 
d="M191 10l88 494h-2l-125 -77q-5 -3 -8 -1.5t-2 7.5l24 141q1 9 8 14l135 86q9 6 18 6h135q11 0 9 -10l-117 -660q-2 -10 -11 -10h-143q-11 0 -9 10z" />
    <glyph glyph-name="two" unicode="2" 
d="M18 10l20 108q1 9 9 15l274 271q55 55 55 103q0 51 -50 51q-62 0 -82 -78q-2 -11 -12 -9l-124 20q-8 1 -6 11q20 85 86 137.5t167 52.5q84 0 134 -45t50 -115q0 -108 -104 -209l-191 -185v-2h218q11 0 9 -10l-21 -116q-2 -10 -11 -10h-413q-10 0 -8 10z" />
    <glyph glyph-name="three" unicode="3" 
d="M39 155q0 10 10 12l131 21q10 2 10 -8q5 -58 62 -58q36 0 60 28.5t24 69.5q0 30 -17 46.5t-48 16.5h-27q-10 0 -8 10l19 112q3 10 12 10h25q36 0 59 26t23 65q0 24 -13 38t-37 14q-51 0 -74 -57q-4 -9 -12 -8l-125 20q-8 2 -5 12q26 75 91 121t157 46q87 0 134.5 -42
t47.5 -109q0 -117 -102 -177v-2q61 -36 61 -121q0 -111 -75 -182t-187 -71q-92 0 -145 45.5t-51 121.5z" />
    <glyph glyph-name="four" unicode="4" 
d="M23 98q-10 0 -8 10l22 122q1 7 6 14l253 427q4 9 16 9h150q12 0 5 -10l-254 -431l-1 -3h90q7 0 7 6l22 124q2 10 12 10h134q11 0 9 -10l-22 -124q-2 -6 4 -6h37q11 0 9 -10l-21 -118q-2 -10 -11 -10h-38q-6 0 -7 -6l-14 -82q-2 -10 -11 -10h-135q-11 0 -9 10l14 82
q2 6 -5 6h-254z" />
    <glyph glyph-name="five" unicode="5" 
d="M51 150q0 10 9 11l130 20q8 1 10 -9q7 -50 55 -50q44 0 63 40q9 19 16 52t7 54q0 55 -51 55q-41 0 -60 -35q-5 -10 -14 -10h-124q-10 0 -8 10l67 382q2 10 11 10h382q11 0 9 -10l-21 -116q-2 -10 -11 -10h-249q-6 0 -7 -6l-22 -121h2q42 38 109 38q149 0 149 -147
q0 -107 -42 -193q-63 -127 -226 -127q-90 0 -137 44.5t-47 117.5z" />
    <glyph glyph-name="six" unicode="6" 
d="M37 163q0 99 87 225l196 285q6 7 13 7h152q14 0 5 -11l-175 -256l1 -1q10 6 34 6q70 0 113 -44.5t43 -118.5q0 -113 -76.5 -190t-195.5 -77q-90 0 -143.5 47.5t-53.5 127.5zM193 187q0 -29 17 -47t46 -18q38 0 65 30t27 73q0 30 -16.5 47.5t-45.5 17.5q-38 0 -65.5 -30
t-27.5 -73z" />
    <glyph glyph-name="seven" unicode="7" 
d="M81 11l297 526v3h-114q-6 0 -7 -6l-12 -65q-2 -10 -11 -10h-132q-10 0 -8 10l36 201q2 10 11 10h419q11 0 9 -10l-22 -119q-2 -12 -7 -22l-290 -519q-5 -10 -15 -10h-149q-12 0 -5 11z" />
    <glyph glyph-name="eight" unicode="8" 
d="M32 158q0 58 27.5 110t78.5 85l1 2q-40 38 -40 102q0 94 71.5 164.5t183.5 70.5q88 0 137 -46.5t49 -117.5q0 -107 -88 -173l-1 -2q53 -44 53 -116q0 -105 -78.5 -177t-193.5 -72q-90 0 -145 46t-55 124zM306 418q32 0 55.5 25t23.5 60q0 25 -14 40t-39 15q-32 0 -56 -25
t-24 -60q0 -24 14.5 -39.5t39.5 -15.5zM190 187q0 -29 18 -47t47 -18q39 0 66 29t27 71q0 29 -18 47t-47 18q-39 0 -66 -29t-27 -71z" />
    <glyph glyph-name="nine" unicode="9" 
d="M93 11l176 256l-1 1q-8 -5 -34 -5q-71 0 -114 45.5t-43 120.5q0 110 77 186.5t197 76.5q89 0 142.5 -47.5t53.5 -127.5q0 -97 -88 -225l-195 -285q-6 -7 -13 -7h-152q-13 0 -6 11zM298 390q39 0 66 30t27 72q0 30 -16.5 48t-46.5 18q-39 0 -65.5 -30t-26.5 -72
q0 -30 16.5 -48t45.5 -18z" />
    <glyph glyph-name="colon" unicode=":" horiz-adv-x="245" 
d="M79 332q-11 0 -9 10l23 135q2 10 11 10h133q11 0 9 -10l-23 -135q-2 -10 -11 -10h-133zM12 10l23 134q2 10 11 10h133q11 0 9 -10l-23 -134q-2 -10 -11 -10h-133q-11 0 -9 10z" />
    <glyph glyph-name="semicolon" unicode=";" horiz-adv-x="245" 
d="M79 332q-11 0 -9 10l23 135q2 10 11 10h133q11 0 9 -10l-23 -135q-2 -10 -11 -10h-133zM-3 -91l41 235q2 10 11 10h126q11 0 9 -10l-22 -128q-2 -11 -13 -20l-124 -93q-11 -8 -18 -8q-12 0 -10 14z" />
    <glyph glyph-name="less" unicode="&#x3c;" 
d="M57 213q-10 3 -10 14v98q0 11 10 14l441 167q10 3 10 -7v-124q0 -9 -10 -13l-244 -85v-2l244 -85q10 -4 10 -13v-124q0 -10 -10 -7z" />
    <glyph glyph-name="equal" unicode="=" 
d="M68 318q-10 0 -10 10v115q0 10 10 10h441q10 0 10 -10v-115q0 -10 -10 -10h-441zM68 99q-10 0 -10 10v115q0 10 10 10h441q10 0 10 -10v-115q0 -10 -10 -10h-441z" />
    <glyph glyph-name="greater" unicode="&#x3e;" 
d="M55 53v124q0 9 10 13l243 85v2l-243 85q-10 4 -10 13v124q0 10 10 7l441 -167q10 -3 10 -14v-98q0 -11 -10 -14l-441 -167q-10 -3 -10 7z" />
    <glyph glyph-name="question" unicode="?" horiz-adv-x="481" 
d="M172 208q-11 0 -9 10l8 41q10 53 45 85l69 70q34 32 47 53t13 43q0 21 -12 33.5t-33 12.5q-49 0 -76 -63q-3 -10 -13 -8l-120 17q-9 2 -6 11q25 81 89.5 130t151.5 49q83 0 131 -44t48 -111q0 -50 -23 -90.5t-73 -87.5l-61 -63q-24 -24 -31 -60l-4 -18q-2 -10 -10 -10
h-131zM127 10l21 123q2 10 11 10h133q11 0 9 -10l-22 -123q-2 -10 -11 -10h-133q-10 0 -8 10z" />
    <glyph glyph-name="at" unicode="@" horiz-adv-x="903" 
d="M40 185q0 217 135 355.5t353 138.5q160 0 255 -92t95 -240q0 -136 -65 -215.5t-168 -79.5q-48 0 -79.5 18t-42.5 49h-1q-45 -67 -135 -67q-59 0 -94.5 35t-35.5 96q0 43 13.5 106t29.5 95q45 94 142 94q37 0 62.5 -14t33.5 -36h1l5 30q2 10 10 10h114q8 0 6 -10l-42 -237
q-5 -29 5.5 -44t31.5 -15q36 0 60 46.5t24 126.5q0 113 -64.5 173.5t-179.5 60.5q-153 0 -247.5 -107t-94.5 -265q0 -108 64.5 -171.5t177.5 -63.5q97 0 197 50q9 5 13 -3l42 -80q3 -8 -6 -13q-110 -69 -265 -69q-159 0 -254.5 93t-95.5 245zM389 213q0 -50 46 -51
q40 0 58 40q9 17 16.5 55t7.5 61q0 50 -46 50q-40 0 -58 -39q-8 -18 -16 -56.5t-8 -59.5z" />
    <glyph glyph-name="A" unicode="A" horiz-adv-x="656" 
d="M-19 0q-10 0 -5 10l344 660q5 10 14 10h157q11 0 11 -10l106 -660q2 -10 -7 -10h-154q-10 0 -12 10l-12 108h-212l-51 -108q-5 -10 -14 -10h-165zM277 260h130l-24 220h-2z" />
    <glyph glyph-name="B" unicode="B" horiz-adv-x="587" 
d="M19 10l117 660q2 10 10 10h268q94 0 140 -37.5t46 -106.5q0 -125 -110 -183l-1 -2q30 -12 49 -44t19 -76q0 -106 -72 -168.5t-193 -62.5h-265q-10 0 -8 10zM263 405h69q41 0 67.5 24.5t26.5 67.5q0 55 -68 55h-68q-6 0 -7 -6l-24 -135q-1 -6 4 -6zM211 135q-1 -6 4 -6h77
q44 0 70.5 27t26.5 74q0 59 -69 59h-76q-6 0 -7 -6z" />
    <glyph glyph-name="C" unicode="C" horiz-adv-x="558" 
d="M45 202q0 58 20 167t47 163q78 160 264 160q85 0 138.5 -41t70.5 -116q3 -9 -7 -13l-131 -53q-12 -5 -14 6q-16 66 -75 66q-60 0 -92 -65q-14 -30 -32 -124.5t-18 -133.5q0 -36 19 -57.5t53 -21.5q56 0 96 67q6 11 15 7l118 -66q7 -6 3 -14q-46 -76 -107.5 -110.5
t-148.5 -34.5q-99 0 -159 56t-60 158z" />
    <glyph glyph-name="D" unicode="D" horiz-adv-x="610" 
d="M19 10l117 660q2 10 10 10h254q101 0 154 -50t53 -149q0 -66 -19.5 -172t-46.5 -161q-72 -148 -260 -148h-254q-10 0 -8 10zM219 151h53q46 0 73 14.5t45 51.5q15 30 30 109t15 116q0 46 -23 66.5t-75 20.5h-51q-4 0 -6 -6l-65 -366q-1 -6 4 -6z" />
    <glyph glyph-name="E" unicode="E" horiz-adv-x="538" 
d="M19 10l117 660q2 10 10 10h430q10 0 8 -10l-22 -124q-2 -10 -11 -10h-265q-6 0 -6 -6l-20 -110q-2 -6 5 -6h216q10 0 8 -10l-21 -122q-2 -10 -12 -10h-217q-5 0 -6 -6l-21 -116q0 -6 5 -6h264q10 0 8 -10l-22 -124q-2 -10 -11 -10h-429q-10 0 -8 10z" />
    <glyph glyph-name="F" unicode="F" horiz-adv-x="533" 
d="M19 10l117 660q2 10 10 10h430q10 0 8 -10l-22 -124q-2 -10 -11 -10h-265q-6 0 -6 -6l-22 -119q0 -6 5 -6h216q10 0 8 -10l-21 -122q-2 -10 -12 -10h-216q-6 0 -7 -6l-44 -247q-2 -10 -10 -10h-150q-10 0 -8 10z" />
    <glyph glyph-name="G" unicode="G" horiz-adv-x="600" 
d="M45 202q0 57 20.5 168t46.5 163q77 159 272 159q84 0 139.5 -39.5t74.5 -105.5q3 -11 -7 -16l-131 -52q-10 -3 -15 5q-23 57 -82 57q-66 0 -97 -65q-14 -28 -32 -123.5t-18 -134.5q0 -36 20.5 -57.5t57.5 -21.5q72 0 99 58q10 25 14 48q0 6 -6 6h-70q-9 0 -7 10l19 108
q2 10 11 10h235q9 0 7 -10l-8 -50q-20 -118 -49 -174q-41 -82 -106.5 -119.5t-160.5 -37.5q-105 0 -166 55.5t-61 158.5z" />
    <glyph glyph-name="H" unicode="H" horiz-adv-x="637" 
d="M19 10l117 660q2 10 11 10h150q10 0 8 -10l-43 -244q-2 -6 4 -6h180q6 0 7 6l43 244q2 10 11 10h150q11 0 9 -10l-117 -660q-2 -10 -11 -10h-150q-11 0 -9 10l45 253q2 6 -5 6h-180q-5 0 -6 -6l-45 -253q-2 -10 -10 -10h-150q-11 0 -9 10z" />
    <glyph glyph-name="I" unicode="I" horiz-adv-x="276" 
d="M19 10l117 660q2 10 11 10h150q10 0 8 -10l-117 -660q-2 -10 -10 -10h-150q-11 0 -9 10z" />
    <glyph glyph-name="J" unicode="J" horiz-adv-x="507" 
d="M-10 84q-2 9 4 14l118 80q8 5 13 -1q27 -37 68 -37t65 24.5t34 78.5l76 427q2 10 11 10h151q11 0 9 -10l-74 -414q-25 -139 -97 -203.5t-194 -64.5q-63 0 -114 27.5t-70 68.5z" />
    <glyph glyph-name="K" unicode="K" horiz-adv-x="628" 
d="M19 10l117 660q2 10 11 10h150q10 0 8 -10l-46 -257l226 258q9 9 18 9h178q6 0 7.5 -4t-2.5 -9l-248 -266l135 -390q4 -11 -8 -11h-156q-12 0 -15 9l-84 268l-94 -107l-28 -160q-2 -10 -10 -10h-150q-11 0 -9 10z" />
    <glyph glyph-name="L" unicode="L" horiz-adv-x="519" 
d="M19 10l117 660q2 10 11 10h150q10 0 8 -10l-90 -513q-1 -6 4 -6h258q10 0 8 -10l-23 -131q-2 -10 -11 -10h-423q-11 0 -9 10z" />
    <glyph glyph-name="M" unicode="M" horiz-adv-x="747" 
d="M19 10l117 660q2 10 10 10h136q14 0 15 -10l89 -362h4l212 362q5 10 17 10h148q11 0 9 -10l-117 -660q-2 -10 -11 -10h-134q-11 0 -9 10l63 361h-4l-153 -265q-8 -13 -20 -13h-74q-11 0 -17 13l-61 265h-3l-64 -361q-2 -10 -10 -10h-135q-10 0 -8 10z" />
    <glyph glyph-name="N" unicode="N" horiz-adv-x="631" 
d="M19 10l117 660q2 10 11 10h142q11 0 15 -10l128 -394h4l70 394q2 10 11 10h134q11 0 9 -10l-117 -660q-2 -10 -11 -10h-143q-11 0 -14 10l-128 394h-5l-70 -394q-2 -10 -10 -10h-134q-11 0 -9 10z" />
    <glyph glyph-name="O" unicode="O" horiz-adv-x="604" 
d="M271 -12q-104 0 -165 55t-61 159q0 57 20.5 168t46.5 163q77 159 269 159q104 0 165 -55t61 -159q0 -57 -20.5 -168t-46.5 -163q-79 -159 -269 -159zM291 139q65 0 96 65q14 28 31.5 123t17.5 135q0 37 -19.5 58t-55.5 21q-65 0 -96 -65q-14 -28 -31.5 -123t-17.5 -135
q0 -37 19.5 -58t55.5 -21z" />
    <glyph glyph-name="P" unicode="P" horiz-adv-x="590" 
d="M178 0h-151q-10 0 -8 10l117 660q2 10 10 10h263q103 0 155.5 -47t52.5 -131q0 -127 -79.5 -199t-206.5 -72h-97q-7 0 -7 -6l-39 -215q-2 -10 -10 -10zM346 375q44 0 71.5 26.5t27.5 72.5q0 29 -18.5 45.5t-52.5 16.5h-87q-6 0 -6 -6l-27 -149q0 -6 4 -6h88z" />
    <glyph glyph-name="Q" unicode="Q" horiz-adv-x="605" 
d="M572 33l-115 -87q-9 -7 -15 1l-43 64q-58 -23 -128 -23q-104 0 -165 55t-61 159q0 57 20.5 168t46.5 163q77 159 269 159q104 0 165 -55t61 -159q0 -57 -20.5 -168t-46.5 -163q-4 -9 -14 -25l50 -73q6 -10 -4 -16zM290 139q65 0 96 65q14 28 32 123.5t18 134.5
q0 37 -19.5 58t-54.5 21q-65 0 -96 -65q-14 -28 -32 -123.5t-18 -134.5q0 -37 19.5 -58t54.5 -21z" />
    <glyph glyph-name="R" unicode="R" horiz-adv-x="605" 
d="M534 0h-149q-10 0 -13 10l-59 235h-77q-6 0 -7 -6l-41 -229q-2 -10 -11 -10h-150q-10 0 -8 10l117 660q2 10 10 10h267q97 0 150.5 -48t53.5 -127q0 -82 -39.5 -142t-108.5 -91l73 -260q2 -12 -8 -12zM350 385q41 1 67.5 26t26.5 68q0 27 -17.5 42t-49.5 15h-90
q-5 0 -7 -6l-25 -139q-1 -6 5 -6h90z" />
    <glyph glyph-name="S" unicode="S" horiz-adv-x="584" 
d="M253 -12q-77 0 -149 28.5t-105 68.5q-7 9 2 17l102 98q9 9 15 1q26 -28 67 -46.5t87 -18.5q49 0 78 22t29 56q0 21 -16 33.5t-56 18.5l-34 5q-91 13 -139 57t-48 116q0 111 77 179.5t203 68.5q137 0 225 -76q8 -6 -1 -15l-88 -101q-8 -8 -15 -3q-62 48 -136 48
q-38 0 -63 -20t-25 -50q0 -42 74 -52l33 -5q187 -28 187 -171q0 -120 -83.5 -189.5t-220.5 -69.5z" />
    <glyph glyph-name="T" unicode="T" horiz-adv-x="549" 
d="M313 0h-150q-10 0 -8 10l91 513q2 6 -5 6h-161q-11 0 -9 10l24 131q2 10 11 10h504q11 0 9 -10l-23 -131q-2 -10 -12 -10h-162q-6 0 -7 -6l-91 -513q-2 -10 -11 -10z" />
    <glyph glyph-name="U" unicode="U" horiz-adv-x="622" 
d="M287 -12q-128 0 -189.5 71.5t-37.5 204.5l72 406q2 10 11 10h150q11 0 9 -10l-74 -419q-10 -53 10 -82.5t63 -29.5q44 0 71 26t38 86l74 419q2 10 11 10h151q10 0 8 -10l-73 -412q-26 -144 -98 -207t-196 -63z" />
    <glyph glyph-name="V" unicode="V" horiz-adv-x="599" 
d="M336 0h-144q-11 0 -12 10l-95 659q-2 11 10 11h150q12 0 13 -10l44 -421h3l189 421q4 10 14 10h162q5 0 7.5 -3t-0.5 -8l-327 -659q-4 -10 -14 -10z" />
    <glyph glyph-name="W" unicode="W" horiz-adv-x="870" 
d="M637 0h-121q-10 0 -11 10l-36 389h-2l-173 -389q-4 -10 -14 -10h-121q-11 0 -12 10l-62 660q0 10 8 10h153q12 0 12 -10l13 -407h2l174 407q4 10 14 10h100q11 0 12 -10l34 -407h2l155 407q3 10 13 10h164q11 0 6 -10l-297 -660q-4 -10 -13 -10z" />
    <glyph glyph-name="X" unicode="X" horiz-adv-x="601" 
d="M554 0h-154q-12 0 -16 10l-74 189h-2l-139 -189q-7 -10 -18 -10h-172q-11 0 -4 11l266 346l-130 312q-5 11 7 11h157q11 0 15 -10l63 -161h3l118 161q8 10 17 10h164q11 0 4 -11l-237 -316l139 -342q5 -11 -7 -11z" />
    <glyph glyph-name="Y" unicode="Y" horiz-adv-x="575" 
d="M326 0h-150q-11 0 -9 10l45 254l-128 405q-4 11 9 11h143q11 0 14 -10l69 -239h3l153 239q6 10 16 10h156q13 0 6 -11l-271 -405l-45 -254q-2 -10 -11 -10z" />
    <glyph glyph-name="Z" unicode="Z" horiz-adv-x="554" 
d="M469 0h-456q-11 0 -9 10l23 129q1 5 6 11l337 376v3h-254q-10 0 -8 10l24 131q2 10 10 10h446q11 0 9 -10l-22 -127q-2 -7 -6 -11l-340 -378v-3h267q10 0 8 -10l-24 -131q-2 -10 -11 -10z" />
    <glyph glyph-name="bracketleft" unicode="[" horiz-adv-x="303" 
d="M217 -84h-206q-11 0 -9 10l142 804q2 10 12 10h206q9 0 7 -10l-17 -100q-2 -10 -11 -10h-71q-6 0 -7 -6l-101 -572q-2 -6 5 -6h70q10 0 8 -10l-17 -100q-2 -10 -11 -10z" />
    <glyph glyph-name="backslash" unicode="\" horiz-adv-x="423" 
d="M349 -12h-133q-9 0 -11 10l-97 684q0 10 9 10h132q9 0 11 -10l97 -684q2 -10 -8 -10z" />
    <glyph glyph-name="bracketright" unicode="]" horiz-adv-x="303" 
d="M189 -84h-205q-11 0 -9 10l18 100q2 10 11 10h71q5 0 7 6l101 572q1 6 -4 6h-71q-11 0 -9 10l18 100q2 10 11 10h206q11 0 9 -10l-142 -804q-2 -10 -12 -10z" />
    <glyph glyph-name="asciicircum" unicode="^" 
d="M504 245h-130q-10 0 -14 10l-81 230h-2l-81 -230q-4 -10 -14 -10h-129q-10 0 -7 10l165 415q5 10 14 10h107q9 0 14 -10l164 -415q5 -10 -6 -10z" />
    <glyph glyph-name="underscore" unicode="_" horiz-adv-x="534" 
d="M468 -168h-534l20 109h533z" />
    <glyph glyph-name="grave" unicode="`" horiz-adv-x="478" 
d="M424 546h-100q-11 0 -18 10l-74 136q-2 4 0 7t7 3h125q12 0 15 -10l53 -136q3 -10 -8 -10z" />
    <glyph glyph-name="a" unicode="a" horiz-adv-x="515" 
d="M420 0h-134q-11 0 -9 10l5 30h-1q-49 -52 -135 -52q-55 0 -92 33t-37 89q0 90 60 138t170 48h75q6 0 8 6l3 17q6 29 -10.5 41t-71.5 12q-65 0 -107 -28q-9 -5 -12 4l-35 88q-3 9 6 15q75 48 193 48q114 0 161 -41t29 -140l-55 -308q-2 -10 -11 -10zM221 104q74 0 83 55
l5 32q1 6 -5 6h-57q-75 0 -75 -57q0 -36 49 -36z" />
    <glyph glyph-name="b" unicode="b" horiz-adv-x="538" 
d="M298 -12q-86 0 -111 59h-1l-7 -37q-2 -10 -11 -10h-143q-10 0 -8 10l117 660q2 10 10 10h143q11 0 9 -10l-41 -230h1q46 59 131 59q137 0 137 -159q0 -52 -15.5 -125t-37.5 -119q-54 -108 -173 -108zM263 121q44 0 66 44q9 20 19 68.5t10 72.5q0 60 -51 60q-44 0 -66 -44
q-9 -20 -19 -68.5t-10 -72.5q0 -60 51 -60z" />
    <glyph glyph-name="c" unicode="c" horiz-adv-x="474" 
d="M215 -12q-84 0 -135 47.5t-51 130.5q0 110 42 198q65 135 231 135q69 0 114 -31.5t59 -82.5q3 -9 -6 -13l-114 -53q-12 -6 -15 4q-17 43 -54 43q-44 0 -65 -43q-11 -23 -20.5 -71t-9.5 -72q0 -59 52 -59q38 0 71 46q6 8 15 4l102 -59q6 -3 1 -13q-72 -111 -217 -111z" />
    <glyph glyph-name="d" unicode="d" horiz-adv-x="538" 
d="M440 0h-142q-10 0 -8 10l6 37h-1q-46 -59 -131 -59q-137 0 -137 159q0 52 15.5 125.5t37.5 118.5q53 108 172 108q43 0 72 -16.5t40 -43.5h1l41 231q2 10 10 10h143q11 0 9 -10l-117 -660q-2 -10 -11 -10zM244 121q44 0 66 44q9 20 19 68.5t10 72.5q0 60 -51 60
q-44 0 -66 -44q-9 -20 -19 -68.5t-10 -72.5q0 -60 51 -60z" />
    <glyph glyph-name="e" unicode="e" horiz-adv-x="513" 
d="M227 -12q-92 0 -145 46t-53 134q0 114 40 194q66 137 236 137q85 0 137.5 -45.5t52.5 -127.5q0 -44 -13 -119q-2 -10 -12 -10h-281q-5 0 -7 -6q-1 -4 -1 -12q0 -67 83 -67q57 0 113 43q9 5 14 -1l55 -70q6 -10 -2 -16q-90 -80 -217 -80zM207 296h128q7 0 8 6q3 12 3 23
q0 58 -59 58q-51 0 -75 -46q-6 -15 -9 -35q-1 -6 4 -6z" />
    <glyph glyph-name="f" unicode="f" horiz-adv-x="339" 
d="M188 0h-142q-11 0 -9 10l61 355q2 6 -5 6h-27q-9 0 -7 10l17 96q2 10 10 10h28q6 0 7 6l3 16q16 92 63.5 131.5t140.5 39.5h63q10 0 8 -10l-19 -103q-2 -10 -10 -10h-28q-29 0 -41.5 -9.5t-16.5 -36.5l-3 -17q-1 -7 5 -7h69q11 0 9 -10l-18 -96q-2 -10 -11 -10h-69
q-6 0 -7 -6l-61 -355q-2 -10 -10 -10z" />
    <glyph glyph-name="g" unicode="g" horiz-adv-x="530" 
d="M176 -192q-59 0 -108 23t-73 60q-6 9 3 16l88 74q9 7 17 1q38 -40 85 -40q44 0 68.5 24t33.5 77l8 40h-1q-43 -58 -128 -58q-68 0 -102 40t-34 113q0 48 12 109t31 100q54 112 172 112q86 0 110 -60h1l7 38q2 10 12 10h140q10 0 8 -10l-70 -411q-24 -139 -91 -198.5
t-189 -59.5zM246 156q42 0 63 43q23 43 23 108q0 59 -50 59q-42 0 -63 -43q-23 -46 -23 -109q0 -58 50 -58z" />
    <glyph glyph-name="h" unicode="h" horiz-adv-x="540" 
d="M445 0h-143q-10 0 -8 10l49 279q13 75 -44 75q-58 0 -71 -74l-49 -280q-2 -10 -11 -10h-143q-10 0 -8 10l117 660q2 10 11 10h143q10 0 8 -10l-41 -230h1q48 59 130 59q80 0 110 -50t15 -132l-55 -307q-2 -10 -11 -10z" />
    <glyph glyph-name="i" unicode="i" horiz-adv-x="265" 
d="M265 553h-143q-10 0 -8 10l19 107q2 10 11 10h143q10 0 8 -10l-19 -107q-2 -10 -11 -10zM168 0h-143q-10 0 -8 10l82 467q2 10 11 10h143q10 0 8 -10l-82 -467q-2 -10 -11 -10z" />
    <glyph glyph-name="j" unicode="j" horiz-adv-x="265" 
d="M265 553h-143q-10 0 -8 10l20 107q2 10 11 10h142q10 0 8 -10l-19 -107q-2 -10 -11 -10zM-46 -180h-36q-10 0 -7 10l20 113q2 10 11 10h13q30 0 43 11.5t19 44.5l82 468q2 10 11 10h143q10 0 8 -10l-82 -468q-19 -110 -68.5 -149.5t-156.5 -39.5z" />
    <glyph glyph-name="k" unicode="k" horiz-adv-x="524" 
d="M471 0h-148q-10 0 -13 10l-60 196l-47 -54l-25 -142q-2 -10 -11 -10h-142q-10 0 -8 10l115 660q2 10 10 10h143q10 0 8 -10l-59 -340l133 148q8 9 20 9h149q4 0 5.5 -3t-1.5 -7l-166 -174l103 -293q4 -10 -6 -10z" />
    <glyph glyph-name="l" unicode="l" horiz-adv-x="305" 
d="M232 -6h-58q-90 0 -119 39t-14 129l92 508q2 10 10 10h143q11 0 9 -10l-90 -493q-4 -25 3.5 -36t28.5 -11h19q10 0 8 -10l-20 -116q-2 -10 -12 -10z" />
    <glyph glyph-name="m" unicode="m" horiz-adv-x="817" 
d="M722 0h-142q-11 0 -9 10l49 279q14 75 -43 75q-28 0 -47 -19.5t-25 -54.5l-49 -280q-2 -10 -11 -10h-142q-11 0 -9 10l49 279q14 75 -44 75q-27 0 -46 -19.5t-25 -54.5l-49 -280q-2 -10 -11 -10h-143q-10 0 -8 10l83 467q2 10 11 10h142q10 0 8 -10l-6 -37h1
q48 59 131 59q85 0 114 -62h1q64 62 157 62q81 0 112.5 -48t16.5 -134l-55 -307q-2 -10 -11 -10z" />
    <glyph glyph-name="n" unicode="n" horiz-adv-x="540" 
d="M445 0h-143q-10 0 -8 10l49 279q13 75 -44 75q-58 0 -71 -74l-49 -280q-2 -10 -11 -10h-143q-10 0 -8 10l82 467q2 10 11 10h143q10 0 8 -10l-6 -37h1q48 59 130 59q80 0 110 -49.5t15 -131.5l-55 -308q-2 -10 -11 -10z" />
    <glyph glyph-name="o" unicode="o" horiz-adv-x="514" 
d="M221 -12q-88 0 -140 47t-52 134q0 114 40 195q67 135 236 135q88 0 140 -47t52 -134q0 -114 -40 -195q-67 -135 -236 -135zM241 121q43 0 66 44q10 21 19.5 70t9.5 72q0 59 -51 59q-43 0 -66 -44q-10 -21 -19.5 -70t-9.5 -72q0 -59 51 -59z" />
    <glyph glyph-name="p" unicode="p" horiz-adv-x="538" 
d="M137 -180h-144q-10 0 -8 10l114 647q2 10 11 10h143q11 0 9 -10l-7 -38h1q46 60 131 60q137 0 137 -159q0 -52 -15.5 -125t-37.5 -119q-54 -108 -173 -108q-86 0 -111 59h-1l-39 -217q-2 -10 -10 -10zM263 121q44 0 66 44q9 20 19 68.5t10 72.5q0 60 -51 60
q-44 0 -66 -44q-9 -20 -19 -68.5t-10 -72.5q0 -60 51 -60z" />
    <glyph glyph-name="q" unicode="q" horiz-adv-x="538" 
d="M409 -180h-142q-10 0 -8 10l37 217h-1q-46 -59 -131 -59q-137 0 -137 159q0 53 15 125.5t38 118.5q54 108 173 108q86 0 111 -60h1l7 38q2 10 10 10h143q11 0 9 -10l-114 -647q-2 -10 -11 -10zM244 121q44 0 66 44q9 20 19 68.5t10 72.5q0 60 -51 60q-44 0 -66 -44
q-9 -20 -19 -68.5t-10 -72.5q0 -60 51 -60z" />
    <glyph glyph-name="r" unicode="r" horiz-adv-x="415" 
d="M168 0h-143q-10 0 -8 10l82 467q2 10 11 10h143q10 0 8 -10l-8 -44h1q46 66 133 66q39 0 60 -18q8 -5 4 -14l-77 -135q-6 -8 -15 -2q-31 21 -59 21q-61 0 -77 -91l-44 -250q-2 -10 -11 -10z" />
    <glyph glyph-name="s" unicode="s" horiz-adv-x="498" 
d="M218 -12q-135 0 -216 77q-7 7 1 15l80 79q7 7 15 0q69 -51 143 -51q31 0 50 13.5t19 30.5q0 25 -52 30l-52 6q-66 7 -102 39t-36 84q0 88 62.5 138t166.5 50q61 0 111.5 -18t81.5 -45q6 -6 -1 -15l-72 -75q-7 -7 -14 -2q-58 38 -123 38q-27 0 -43 -11.5t-16 -27.5
q0 -23 47 -28l52 -6q146 -15 146 -124q0 -89 -66.5 -143t-181.5 -54z" />
    <glyph glyph-name="t" unicode="t" horiz-adv-x="330" 
d="M250 -6h-55q-94 0 -124.5 43t-12.5 139l35 189q1 6 -5 6h-28q-9 0 -7 10l17 96q2 10 11 10h27q6 0 8 6l23 127q2 10 11 10h142q9 0 7 -10l-23 -127q-2 -6 5 -6h60q10 0 8 -10l-17 -96q-2 -10 -12 -10h-61q-5 0 -6 -6l-34 -182q-6 -30 1.5 -41.5t32.5 -11.5h21q10 0 8 -10
l-20 -116q-2 -10 -12 -10z" />
    <glyph glyph-name="u" unicode="u" horiz-adv-x="538" 
d="M107 487h141q11 0 9 -10l-49 -280q-13 -74 44 -74t70 74l49 280q2 10 11 10h143q10 0 8 -10l-82 -467q-2 -10 -11 -10h-143q-10 0 -8 10l7 37h-1q-51 -59 -132 -59q-78 0 -107.5 48.5t-13.5 133.5l54 307q2 10 11 10z" />
    <glyph glyph-name="v" unicode="v" horiz-adv-x="516" 
d="M289 0h-135q-9 0 -11 10l-86 467q-2 10 9 10h144q11 0 12 -10l32 -267h2l124 267q4 10 16 10h150q12 0 7 -10l-252 -467q-5 -10 -12 -10z" />
    <glyph glyph-name="w" unicode="w" horiz-adv-x="748" 
d="M535 0h-112q-9 0 -10 10l-26 258h-2l-120 -258q-4 -10 -13 -10h-112q-10 0 -10 10l-71 467q0 10 10 10h137q12 0 12 -10l18 -265h2l119 265q4 10 15 10h93q10 0 11 -10l27 -265h2l108 265q4 10 15 10h149q10 0 5 -10l-235 -467q-4 -10 -12 -10z" />
    <glyph glyph-name="x" unicode="x" horiz-adv-x="518" 
d="M458 0h-147q-9 0 -13 9l-52 115h-1l-93 -115q-6 -9 -16 -9h-156q-11 0 -5 10l206 245l-107 222q-4 10 8 10h145q10 0 13 -8l44 -99h2l79 99q7 8 16 8h152q12 0 4 -10l-187 -226l115 -241q4 -10 -7 -10z" />
    <glyph glyph-name="y" unicode="y" horiz-adv-x="516" 
d="M60 -180h-36q-10 0 -8 10l20 113q2 10 12 10h24q24 0 39 9.5t28 34.5l16 32l-98 448q-2 10 8 10h145q9 0 10 -10l40 -253h2l122 253q4 10 14 10h149q11 0 6 -11l-299 -531q-40 -72 -82.5 -98.5t-111.5 -26.5z" />
    <glyph glyph-name="z" unicode="z" horiz-adv-x="477" 
d="M394 0h-384q-9 0 -7 10l18 106q1 8 6 12l247 229v2h-189q-9 0 -7 10l19 108q2 10 11 10h372q9 0 7 -10l-18 -108q-1 -5 -6 -12l-246 -226v-2h199q10 0 8 -10l-19 -109q-2 -10 -11 -10z" />
    <glyph glyph-name="braceleft" unicode="{" horiz-adv-x="354" 
d="M256 -84h-71q-128 0 -105 125l24 141q7 44 -5 64.5t-47 21.5q-10 0 -8 10l18 104q2 10 12 10q34 0 54 20t28 64l24 139q23 125 150 125h71q10 0 8 -10l-17 -100q-2 -10 -12 -10h-22q-42 0 -50 -45l-21 -117q-10 -56 -30 -84.5t-60 -43.5v-1q35 -15 45 -43.5t0 -84.5
l-21 -120q-8 -45 33 -45h22q11 0 9 -10l-18 -100q-2 -10 -11 -10z" />
    <glyph glyph-name="bar" unicode="|" horiz-adv-x="330" 
d="M248 -84h-121q-10 0 -10 10v804q0 10 10 10h121q10 0 10 -10v-804q0 -10 -10 -10z" />
    <glyph glyph-name="braceright" unicode="}" horiz-adv-x="354" 
d="M66 -84h-71q-10 0 -8 10l17 100q2 10 12 10h23q41 0 49 45l21 120q10 56 30.5 84.5t60.5 43.5v1q-35 15 -45.5 44t-0.5 85l21 116q8 45 -32 45h-23q-11 0 -9 10l18 100q2 10 11 10h71q128 0 105 -125l-23 -138q-15 -85 51 -85q11 0 9 -10l-19 -104q-2 -10 -11 -10
q-66 0 -82 -85l-25 -142q-23 -125 -150 -125z" />
    <glyph glyph-name="asciitilde" unicode="~" 
d="M367 185q-49 0 -100 32q-43 26 -63 26q-35 0 -64 -47q-5 -9 -14 -3l-78 49q-7 4 -4 14q23 49 62 79.5t86 30.5q49 0 100 -33q41 -25 64 -25q35 0 63 46q5 9 14 4l78 -50q9 -4 4 -14q-23 -49 -62 -79t-86 -30z" />
    <glyph glyph-name="uni00A0" unicode="&#xa0;" horiz-adv-x="231" 
 />
    <glyph glyph-name="exclamdown" unicode="&#xa1;" horiz-adv-x="305" 
d="M219 279q10 0 8 -10l-57 -452q-2 -10 -10 -10h-148q-10 0 -8 10l103 452q2 10 10 10h102zM278 477l-21 -123q-2 -10 -12 -10h-132q-10 0 -8 10l21 123q2 10 11 10h133q10 0 8 -10z" />
    <glyph glyph-name="cent" unicode="&#xa2;" 
d="M473 96q-62 -92 -177 -105l-13 -78q-2 -10 -12 -10h-76q-10 0 -8 10l14 80q-64 13 -101 57.5t-37 113.5q0 112 42 199q54 113 184 132l14 78q2 10 12 10h76q10 0 8 -10l-14 -78q51 -10 84.5 -39t45.5 -71q2 -9 -6 -13l-114 -52q-12 -6 -15 4q-14 42 -57 42q-48 0 -67 -43
q-12 -24 -21 -71.5t-9 -74.5q0 -55 54 -55q42 0 74 45q6 10 16 2l101 -60q8 -4 2 -13z" />
    <glyph glyph-name="sterling" unicode="&#xa3;" 
d="M452 0h-405q-11 0 -9 10l20 112q2 10 9 14q22 19 32 35t15 46l8 42q2 6 -5 6h-32q-10 0 -8 10l16 92q2 10 11 10h32q6 0 8 6l19 109q17 97 78.5 148.5t155.5 51.5q78 0 119 -41.5t39 -106.5q0 -10 -10 -12l-126 -26q-9 -2 -9 8q-2 44 -34 44q-42 0 -50 -55l-21 -120
q-1 -6 4 -6h121q11 0 9 -10l-17 -92q-2 -10 -11 -10h-121q-6 0 -7 -6l-6 -32q-8 -58 -44 -90l-1 -2h243q11 0 9 -10l-21 -115q-2 -10 -11 -10z" />
    <glyph glyph-name="currency" unicode="&#xa4;" 
d="M497 118l-90 -76q-9 -7 -14 0l-46 57q-43 -21 -96 -21q-47 0 -84 20l-68 -59q-9 -7 -14 0l-69 83q-4 7 3 14l70 61q-6 24 -6 50q0 70 40 132l-48 60q-6 6 3 14l90 76q8 8 14 0l46 -58q47 21 95 21q45 0 82 -20l71 61q7 7 14 0l69 -83q5 -7 -3 -14l-72 -63q7 -21 7 -49
q0 -72 -39 -133l48 -59q6 -8 -3 -14zM270 193q42 0 72 34t30 78q0 32 -18.5 52.5t-49.5 20.5q-42 0 -72 -34.5t-30 -78.5q0 -32 18.5 -52t49.5 -20z" />
    <glyph glyph-name="yen" unicode="&#xa5;" 
d="M308 0h-142q-10 0 -8 10l20 114q2 6 -5 6h-109q-9 0 -7 10l11 60q2 10 11 10h108q5 0 7 6l6 30q2 6 -5 6h-109q-9 0 -7 10l10 60q2 10 11 10h85v2l-81 336q0 10 9 10h146q12 0 13 -10l37 -244h3l123 244q4 10 16 10h150q4 0 5.5 -3t-0.5 -7l-200 -336v-2h85q10 0 8 -10
l-11 -60q-2 -10 -11 -10h-109q-6 0 -7 -6l-5 -30q-2 -6 5 -6h109q9 0 7 -10l-11 -60q-2 -10 -11 -10h-109q-4 0 -6 -6l-21 -114q-2 -10 -11 -10z" />
    <glyph glyph-name="brokenbar" unicode="&#xa6;" horiz-adv-x="330" 
d="M248 388h-121q-10 0 -10 10v332q0 10 10 10h121q10 0 10 -10v-332q0 -10 -10 -10zM248 -84h-121q-10 0 -10 10v336q0 10 10 10h121q10 0 10 -10v-336q0 -10 -10 -10z" />
    <glyph glyph-name="section" unicode="&#xa7;" horiz-adv-x="510" 
d="M181 -194q-84 0 -125.5 41.5t-39.5 107.5q0 11 10 13l121 17q9 1 9 -8q-2 -51 44 -51q26 0 42.5 17t16.5 46q0 22 -18 37.5t-63 28.5q-126 39 -126 149q0 129 111 195v2q-41 34 -41 91q0 86 64 144t157 58q85 0 127 -44t36 -107q-1 -10 -12 -12l-117 -17q-9 -2 -9 7
q2 53 -43 53q-25 0 -41 -17t-16 -43q0 -42 79 -65q127 -39 127 -152q0 -60 -29 -110.5t-82 -81.5v-2q42 -33 42 -93q0 -90 -64 -147t-160 -57zM250 178q34 0 56 28t22 65q0 26 -13.5 40.5t-38.5 14.5q-34 0 -56.5 -28t-22.5 -65q0 -26 14 -40.5t39 -14.5z" />
    <glyph glyph-name="dieresis" unicode="&#xa8;" horiz-adv-x="475" 
d="M451 556h-105q-11 0 -9 10l20 106q2 10 12 10h104q10 0 8 -10l-19 -106q-2 -10 -11 -10zM252 556h-104q-11 0 -9 10l20 106q2 10 11 10h105q10 0 8 -10l-20 -106q-2 -10 -11 -10z" />
    <glyph glyph-name="copyright" unicode="&#xa9;" horiz-adv-x="795" 
d="M421 -13q-151 0 -252 100.5t-101 251.5t101 252t252 101t251.5 -101t100.5 -252t-100.5 -251.5t-251.5 -100.5zM421 68q117 0 192.5 77t75.5 194q0 118 -75.5 195t-192.5 77t-193 -77t-76 -195q0 -117 76 -194t193 -77zM428 145q-63 0 -108.5 28.5t-63.5 82.5
q-10 29 -10 85q0 54 10 84q18 54 63.5 82.5t108.5 28.5q54 0 96 -23t61 -60q6 -10 -4 -13l-82 -42q-8 -5 -14 3q-20 33 -53 33q-41 0 -53 -37q-5 -13 -5 -56q0 -45 5 -57q12 -37 53 -37q34 0 53 33q5 9 14 3l82 -41q10 -5 4 -14q-19 -37 -61 -60t-96 -23z" />
    <glyph glyph-name="ordfeminine" unicode="&#xaa;" horiz-adv-x="355" 
d="M339 392h-84q-11 0 -9 10l3 14h-2q-28 -30 -82 -30q-38 0 -62 18.5t-24 53.5q0 51 39.5 81.5t105.5 30.5h45q5 0 7 6l1 6q3 14 -8 21t-40 7q-36 0 -70 -18q-10 -6 -13 3l-20 51q-3 8 6 14q52 29 123 29q77 0 107 -25.5t20 -81.5l-32 -180q-2 -10 -11 -10zM210 459
q45 0 51 31l2 11q1 6 -5 6h-37q-38 0 -38 -29q0 -19 27 -19z" />
    <glyph glyph-name="guillemotleft" unicode="&#xab;" horiz-adv-x="569" 
d="M471 27l-187 230q-6 8 2 14l270 231q3 3 6.5 1t2.5 -6l-25 -137q-3 -12 -14 -22l-88 -78q-5 -4 -2 -8l61 -78q9 -10 6 -22l-21 -123q-1 -4 -4.5 -5t-6.5 3zM219 27l-188 230q-6 8 2 14l270 231q4 3 7 1.5t2 -6.5l-24 -137q-3 -12 -14 -22l-88 -78q-5 -4 -2 -8l61 -78
q8 -11 6 -22l-21 -123q-1 -4 -4.5 -5t-6.5 3z" />
    <glyph glyph-name="logicalnot" unicode="&#xac;" 
d="M500 78h-119q-10 0 -10 10v115q0 6 -6 6h-306q-10 0 -10 10v114q0 10 10 10h441q10 0 10 -10v-245q0 -10 -10 -10z" />
    <glyph glyph-name="uni00AD" unicode="&#xad;" horiz-adv-x="387" 
d="M337 197h-291q-10 0 -8 10l21 121q2 10 12 10h291q10 0 8 -10l-21 -121q-2 -10 -12 -10z" />
    <glyph glyph-name="registered" unicode="&#xae;" horiz-adv-x="439" 
d="M269 301q-82 0 -137.5 55t-55.5 137q0 81 55.5 136t137.5 55t137.5 -55t55.5 -136q0 -82 -55.5 -137t-137.5 -55zM269 341q65 0 107 42.5t42 109.5q0 66 -42 108.5t-107 42.5t-107 -42.5t-42 -108.5q0 -67 42 -109.5t107 -42.5zM240 388h-48q-7 0 -7 7v198q0 7 7 7h93
q39 0 60 -18.5t21 -50.5q0 -44 -38 -61l38 -75q2 -7 -5 -7h-53q-6 0 -9 7l-31 66h-17q-4 0 -4 -4v-62q0 -7 -7 -7zM278 509q26 0 26 21q0 22 -26 22h-27q-4 0 -4 -4v-34q0 -5 4 -5h27z" />
    <glyph glyph-name="macron" unicode="&#xaf;" horiz-adv-x="475" 
d="M447 566h-291q-10 0 -8 10l15 87q2 10 11 10h291q10 0 8 -10l-15 -87q-2 -10 -11 -10z" />
    <glyph glyph-name="degree" unicode="&#xb0;" horiz-adv-x="407" 
d="M253 379q-67 0 -112 45t-45 112t45 112.5t112 45.5q68 0 113 -45t45 -113q0 -67 -45 -112t-113 -45zM253 473q27 0 44.5 17.5t17.5 45.5q0 29 -17 46.5t-45 17.5q-26 0 -43.5 -18t-17.5 -46t17.5 -45.5t43.5 -17.5z" />
    <glyph glyph-name="plusminus" unicode="&#xb1;" 
d="M348 180h-119q-10 0 -10 10v147q0 6 -6 6h-145q-10 0 -10 10v115q0 10 10 10h145q6 0 6 6v147q0 10 10 10h119q10 0 10 -10v-147q0 -6 6 -6h145q10 0 10 -10v-115q0 -10 -10 -10h-145q-6 0 -6 -6v-147q0 -10 -10 -10zM509 0h-441q-10 0 -10 10v115q0 10 10 10h441
q10 0 10 -10v-115q0 -10 -10 -10z" />
    <glyph glyph-name="twosuperior" unicode="&#xb2;" horiz-adv-x="354" 
d="M349 430h-268q-10 0 -8 10l14 73q1 10 11 18l166 139q31 27 31 55q0 25 -26 25q-29 0 -41 -38q-3 -10 -12 -8l-86 12q-8 2 -6 11q13 51 57 83.5t111 32.5q56 0 88 -28t32 -74q0 -71 -74 -130l-97 -82v-1h125q10 0 8 -10l-13 -78q-2 -10 -12 -10z" />
    <glyph glyph-name="threesuperior" unicode="&#xb3;" horiz-adv-x="354" 
d="M216 423q-60 0 -94 27t-36 75q0 10 9 12l88 13q8 1 11 -7q9 -27 33 -27q18 0 30.5 13t12.5 32q0 30 -36 30h-13q-10 0 -8 10l12 71q2 10 12 10h12q19 0 31 11.5t12 31.5q0 25 -27 25q-24 0 -37 -24q-5 -10 -13 -8l-84 14q-9 2 -6 11q16 44 59 72t103 28q59 0 91.5 -26
t32.5 -68q0 -66 -61 -102v-1q36 -20 36 -69q0 -70 -48.5 -112t-121.5 -42z" />
    <glyph glyph-name="acute" unicode="&#xb4;" horiz-adv-x="475" 
d="M296 546h-110q-4 0 -5.5 3t1.5 7l101 136q7 10 19 10h134q5 0 6 -3t-3 -7l-123 -136q-10 -10 -20 -10z" />
    <glyph glyph-name="mu" unicode="&#xb5;" horiz-adv-x="541" 
d="M443 0h-142q-11 0 -9 10l7 38h-1q-34 -45 -82 -52q-24 -1 -38 9h-1l-30 -175q-3 -10 -11 -10h-143q-11 0 -8 10l113 647q2 10 12 10h143q9 0 7 -10l-49 -279q-13 -74 44 -74q27 0 45.5 19.5t24.5 54.5l50 279q2 10 11 10h142q10 0 8 -10l-82 -467q-2 -10 -11 -10z" />
    <glyph glyph-name="mu" unicode="&#x3bc;" horiz-adv-x="541" 
d="M443 0h-142q-11 0 -9 10l7 38h-1q-34 -45 -82 -52q-24 -1 -38 9h-1l-30 -175q-3 -10 -11 -10h-143q-11 0 -8 10l113 647q2 10 12 10h143q9 0 7 -10l-49 -279q-13 -74 44 -74q27 0 45.5 19.5t24.5 54.5l50 279q2 10 11 10h142q10 0 8 -10l-82 -467q-2 -10 -11 -10z" />
    <glyph glyph-name="paragraph" unicode="&#xb6;" horiz-adv-x="654" 
d="M512 -180h-110q-9 0 -7 10l129 734q2 6 -5 6h-67q-6 0 -7 -6l-129 -734q-2 -10 -11 -10h-110q-9 0 -7 10l68 388q-82 5 -128.5 59.5t-40.5 139.5q6 111 85.5 187t196.5 76h294q10 0 8 -10l-148 -840q-2 -10 -11 -10z" />
    <glyph glyph-name="periodcentered" unicode="&#xb7;" horiz-adv-x="245" 
d="M186 188h-133q-11 0 -9 10l23 134q2 10 11 10h134q11 0 9 -10l-24 -134q-2 -10 -11 -10z" />
    <glyph glyph-name="cedilla" unicode="&#xb8;" horiz-adv-x="475" 
d="M201 -165h-111q-10 0 -5 10l88 155q6 10 16 10h96q11 0 6 -10l-73 -155q-4 -10 -17 -10z" />
    <glyph glyph-name="onesuperior" unicode="&#xb9;" horiz-adv-x="354" 
d="M296 430h-99q-10 0 -8 10l48 274h-2l-70 -39q-4 -2 -7 0t-2 6l16 94q1 10 12 15l67 40q11 6 21 6h95q11 0 9 -10l-68 -386q-2 -10 -12 -10z" />
    <glyph glyph-name="ordmasculine" unicode="&#xba;" horiz-adv-x="375" 
d="M219 383q-60 0 -94.5 29.5t-34.5 84.5q0 58 23 107q43 85 159 85q59 0 94 -30t35 -84q0 -59 -24 -107q-42 -85 -158 -85zM233 471q29 0 42 26q14 28 14 67q0 37 -32 37q-29 0 -42 -26q-13 -30 -13 -67t31 -37z" />
    <glyph glyph-name="guillemotright" unicode="&#xbb;" horiz-adv-x="569" 
d="M285 26q-4 -3 -7 -1.5t-2 6.5l24 137q3 12 14 22l88 78q5 4 2 8l-61 78q-8 11 -6 22l21 123q1 4 4.5 5t6.5 -3l187 -230q6 -8 -2 -14zM32 26q-3 -3 -6.5 -1t-2.5 6l25 137q3 13 13 22l89 78q5 4 2 8l-61 78q-9 10 -6 22l21 123q1 4 4.5 5t6.5 -3l187 -230q6 -8 -2 -14z
" />
    <glyph glyph-name="onequarter" unicode="&#xbc;" horiz-adv-x="868" 
d="M245 -12h-97q-11 0 -3 10l502 684q7 10 17 10h98q11 0 3 -10l-502 -684q-7 -10 -18 -10zM277 274h-99q-10 0 -8 10l48 274h-2l-70 -39q-4 -2 -7 0t-2 6l16 94q1 10 12 15l67 40q10 6 21 6h95q11 0 9 -10l-68 -386q-2 -10 -12 -10zM725 0h-89q-9 0 -7 10l6 38q1 6 -5 6
h-161q-10 0 -8 10l13 76q2 11 8 21l146 235q6 10 16 10h101q5 0 6.5 -3t-1.5 -7l-149 -243v-2h47q6 0 7 6l10 59q2 10 11 10h89q10 0 8 -10l-10 -59q-1 -6 4 -6h15q9 0 7 -10l-14 -77q-2 -10 -11 -10h-14q-6 0 -7 -6l-6 -38q-2 -10 -12 -10z" />
    <glyph glyph-name="onehalf" unicode="&#xbd;" horiz-adv-x="904" 
d="M246 -12h-97q-11 0 -3 10l502 684q7 10 17 10h98q11 0 3 -10l-502 -684q-7 -10 -18 -10zM277 274h-99q-10 0 -8 10l48 274h-2l-70 -39q-4 -2 -7 0t-2 6l16 94q1 10 12 15l67 40q10 6 21 6h95q11 0 9 -10l-68 -386q-2 -10 -12 -10zM784 0h-268q-10 0 -8 10l14 73
q1 10 11 18l166 139q31 27 31 55q0 25 -26 25q-29 0 -41 -38q-3 -10 -12 -8l-86 12q-8 2 -6 11q13 51 57 83.5t111 32.5q56 0 88 -28t32 -74q0 -71 -74 -130l-97 -82v-1h125q10 0 8 -10l-13 -78q-2 -10 -12 -10z" />
    <glyph glyph-name="threequarters" unicode="&#xbe;" horiz-adv-x="925" 
d="M302 -12h-97q-11 0 -3 10l502 684q7 10 17 10h98q11 0 3 -10l-502 -684q-7 -10 -18 -10zM782 0h-89q-9 0 -7 10l6 38q2 6 -5 6h-161q-10 0 -8 10l13 76q2 11 8 21l146 235q6 10 16 10h101q5 0 6.5 -3t-1.5 -7l-149 -243v-2h47q5 0 7 6l10 59q2 10 11 10h89q10 0 8 -10
l-10 -59q-2 -6 4 -6h15q9 0 7 -10l-14 -77q-2 -10 -11 -10h-14q-5 0 -7 -6l-6 -38q-2 -10 -12 -10zM242 267q-60 0 -94 27t-36 75q0 10 9 12l88 13q8 1 11 -7q9 -27 33 -27q18 0 30.5 13t12.5 32q0 30 -36 30h-13q-10 0 -8 10l12 71q2 10 12 10h12q19 0 31 11.5t12 31.5
q0 25 -27 25q-24 0 -37 -24q-5 -10 -13 -8l-84 14q-9 2 -6 11q16 44 59 72t103 28q59 0 91.5 -26t32.5 -68q0 -66 -61 -102v-1q36 -20 36 -69q0 -70 -48.5 -112t-121.5 -42z" />
    <glyph glyph-name="questiondown" unicode="&#xbf;" horiz-adv-x="481" 
d="M322 279q11 0 9 -10l-8 -41q-10 -53 -45 -85l-69 -70q-34 -31 -47 -52t-13 -44q0 -21 12 -33.5t33 -12.5q49 0 76 63q3 10 13 8l120 -17q9 -2 6 -11q-25 -81 -89.5 -130t-151.5 -49q-83 0 -131 44t-48 111q0 50 23 90.5t73 87.5l61 63q24 24 31 60l4 18q2 10 10 10h131z
M367 477l-21 -123q-2 -10 -11 -10h-133q-11 0 -9 10l22 123q2 10 11 10h133q10 0 8 -10z" />
    <glyph glyph-name="Agrave" unicode="&#xc0;" horiz-adv-x="656" 
d="M-19 0q-10 0 -5 10l344 660q5 10 14 10h157q11 0 11 -10l106 -660q2 -10 -7 -10h-154q-10 0 -12 10l-12 108h-212l-51 -108q-5 -10 -14 -10h-165zM277 260h130l-24 220h-2zM468 747h-106q-9 0 -18 10l-101 122q-3 4 -1.5 7t6.5 3h129q12 0 19 -10l78 -122q2 -4 0 -7
t-6 -3z" />
    <glyph glyph-name="Aacute" unicode="&#xc1;" horiz-adv-x="656" 
d="M-19 0q-10 0 -5 10l344 660q5 10 14 10h157q11 0 11 -10l106 -660q2 -10 -7 -10h-154q-10 0 -12 10l-12 108h-212l-51 -108q-5 -10 -14 -10h-165zM277 260h130l-24 220h-2zM473 747h-109q-4 0 -5.5 3t1.5 7l119 122q10 10 22 10h135q5 0 6.5 -3t-2.5 -7l-145 -122
q-11 -10 -22 -10z" />
    <glyph glyph-name="Acircumflex" unicode="&#xc2;" horiz-adv-x="656" 
d="M-19 0q-10 0 -5 10l344 660q5 10 14 10h157q11 0 11 -10l106 -660q2 -10 -7 -10h-154q-10 0 -12 10l-12 108h-212l-51 -108q-5 -10 -14 -10h-165zM277 260h130l-24 220h-2zM581 742h-87q-12 0 -19 10l-39 51h-1l-58 -51q-10 -10 -24 -10h-95q-5 0 -6 3t3 7l128 136
q9 10 20 10h87q11 0 17 -10l80 -136q2 -4 0.5 -7t-6.5 -3z" />
    <glyph glyph-name="Atilde" unicode="&#xc3;" horiz-adv-x="656" 
d="M-19 0q-10 0 -5 10l344 660q5 10 14 10h157q11 0 11 -10l106 -660q2 -10 -7 -10h-154q-10 0 -12 10l-12 108h-212l-51 -108q-5 -10 -14 -10h-165zM277 260h130l-24 220h-2zM487 742q-39 0 -78 24q-29 17 -54 17q-37 0 -78 -32q-4 -3 -7.5 -1.5t-2.5 5.5l14 78q2 13 13 22
q43 36 84 36q36 0 78 -24q27 -17 54 -17q37 0 78 32q4 3 7.5 1.5t2.5 -5.5l-14 -79q-2 -12 -13 -21q-41 -36 -84 -36z" />
    <glyph glyph-name="Adieresis" unicode="&#xc4;" horiz-adv-x="656" 
d="M-19 0q-10 0 -5 10l344 660q5 10 14 10h157q11 0 11 -10l106 -660q2 -10 -7 -10h-154q-10 0 -12 10l-12 108h-212l-51 -108q-5 -10 -14 -10h-165zM277 260h130l-24 220h-2zM574 752h-105q-10 0 -8 10l19 107q2 10 12 10h104q10 0 8 -10l-19 -107q-2 -10 -11 -10zM376 752
h-105q-11 0 -9 10l20 107q2 10 12 10h104q10 0 8 -10l-19 -107q-2 -10 -11 -10z" />
    <glyph glyph-name="Aring" unicode="&#xc5;" horiz-adv-x="656" 
d="M-19 0q-10 0 -5 10l344 660q5 10 14 10h157q11 0 11 -10l106 -660q2 -10 -7 -10h-154q-10 0 -12 10l-12 108h-212l-51 -108q-5 -10 -14 -10h-165zM277 260h130l-24 220h-2zM415 706q-42 0 -68.5 25t-26.5 65q0 56 37 95t95 39q42 0 68.5 -25t26.5 -65q0 -56 -37 -95
t-95 -39zM425 772q21 0 36 16.5t15 40.5q0 15 -9.5 25t-24.5 10q-21 0 -36 -16t-15 -40q0 -16 9 -26t25 -10z" />
    <glyph glyph-name="AE" unicode="&#xc6;" horiz-adv-x="909" 
d="M827 0h-429q-10 0 -8 10l18 102q2 6 -5 6h-173l-64 -108q-6 -10 -14 -10h-171q-12 0 -5 10l409 660q7 10 14 10h548q10 0 8 -10l-22 -124q-2 -10 -11 -10h-265q-6 0 -6 -6l-20 -110q-1 -6 5 -6h216q10 0 8 -10l-21 -122q-2 -10 -12 -10h-216q-5 0 -7 -6l-21 -116
q0 -6 5 -6h264q10 0 8 -10l-22 -124q-2 -10 -11 -10zM480 536l-165 -276h113q6 0 7 6l48 270h-3z" />
    <glyph glyph-name="Ccedilla" unicode="&#xc7;" horiz-adv-x="548" 
d="M217 -165h-111q-10 0 -5 10l86 153q-68 18 -106.5 70.5t-38.5 133.5q0 58 20 167t47 163q78 160 264 160q85 0 138.5 -41t70.5 -116q3 -9 -7 -13l-131 -53q-12 -5 -14 6q-16 66 -75 66t-92 -65q-14 -30 -32 -124.5t-18 -133.5q0 -36 19 -57.5t53 -21.5q56 0 96 67
q6 11 15 7l118 -66q7 -6 3 -14q-79 -128 -215 -143l-68 -145q-4 -10 -17 -10z" />
    <glyph glyph-name="Egrave" unicode="&#xc8;" horiz-adv-x="538" 
d="M421 747h-106q-9 0 -18 10l-101 122q-3 4 -1.5 7t6.5 3h129q12 0 19 -10l78 -122q2 -4 0.5 -7t-6.5 -3zM19 10l117 660q2 10 10 10h430q10 0 8 -10l-22 -124q-2 -10 -11 -10h-265q-6 0 -6 -6l-20 -110q-2 -6 5 -6h216q10 0 8 -10l-21 -122q-2 -10 -12 -10h-217
q-5 0 -6 -6l-21 -116q0 -6 5 -6h264q10 0 8 -10l-22 -124q-2 -10 -11 -10h-429q-10 0 -8 10z" />
    <glyph glyph-name="Eacute" unicode="&#xc9;" horiz-adv-x="538" 
d="M400 747h-109q-5 0 -6 3t2 7l119 122q10 10 22 10h135q5 0 6.5 -3t-2.5 -7l-145 -122q-11 -10 -22 -10zM19 10l117 660q2 10 10 10h430q10 0 8 -10l-22 -124q-2 -10 -11 -10h-265q-6 0 -6 -6l-20 -110q-2 -6 5 -6h216q10 0 8 -10l-21 -122q-2 -10 -12 -10h-217
q-5 0 -6 -6l-21 -116q0 -6 5 -6h264q10 0 8 -10l-22 -124q-2 -10 -11 -10h-429q-10 0 -8 10z" />
    <glyph glyph-name="Ecircumflex" unicode="&#xca;" horiz-adv-x="538" 
d="M19 10l117 660q2 10 10 10h430q10 0 8 -10l-22 -124q-2 -10 -11 -10h-265q-6 0 -6 -6l-20 -110q-2 -6 5 -6h216q10 0 8 -10l-21 -122q-2 -10 -12 -10h-217q-5 0 -6 -6l-21 -116q0 -6 5 -6h264q10 0 8 -10l-22 -124q-2 -10 -11 -10h-429q-10 0 -8 10zM534 742h-87
q-11 0 -19 10l-39 51h-1l-58 -51q-10 -10 -24 -10h-95q-5 0 -6 3t3 7l128 136q9 10 20 10h87q11 0 17 -10l80 -136q2 -4 0 -7t-6 -3z" />
    <glyph glyph-name="Edieresis" unicode="&#xcb;" horiz-adv-x="538" 
d="M528 752h-105q-10 0 -8 10l19 107q2 10 12 10h104q10 0 8 -10l-19 -107q-2 -10 -11 -10zM330 752h-105q-11 0 -9 10l20 107q2 10 12 10h104q10 0 8 -10l-19 -107q-2 -10 -11 -10zM19 10l117 660q2 10 10 10h430q10 0 8 -10l-22 -124q-2 -10 -11 -10h-265q-6 0 -6 -6
l-20 -110q-2 -6 5 -6h216q10 0 8 -10l-21 -122q-2 -10 -12 -10h-217q-5 0 -6 -6l-21 -116q0 -6 5 -6h264q10 0 8 -10l-22 -124q-2 -10 -11 -10h-429q-10 0 -8 10z" />
    <glyph glyph-name="Igrave" unicode="&#xcc;" horiz-adv-x="276" 
d="M19 10l117 660q2 10 11 10h150q10 0 8 -10l-117 -660q-2 -10 -10 -10h-150q-11 0 -9 10zM282 747h-106q-9 0 -18 10l-101 122q-3 4 -1.5 7t6.5 3h129q12 0 19 -10l78 -122q2 -4 0 -7t-6 -3z" />
    <glyph glyph-name="Iacute" unicode="&#xcd;" horiz-adv-x="276" 
d="M19 10l117 660q2 10 11 10h150q10 0 8 -10l-117 -660q-2 -10 -10 -10h-150q-11 0 -9 10zM284 747h-109q-5 0 -6 3t2 7l119 122q10 10 22 10h135q5 0 6.5 -3t-2.5 -7l-145 -122q-11 -10 -22 -10z" />
    <glyph glyph-name="Icircumflex" unicode="&#xce;" horiz-adv-x="276" 
d="M19 10l117 660q2 10 11 10h150q10 0 8 -10l-117 -660q-2 -10 -10 -10h-150q-11 0 -9 10zM395 742h-87q-12 0 -19 10l-39 51h-1l-58 -51q-10 -10 -24 -10h-95q-5 0 -6 3t3 7l128 136q9 10 20 10h87q11 0 17 -10l80 -136q2 -4 0.5 -7t-6.5 -3z" />
    <glyph glyph-name="Idieresis" unicode="&#xcf;" horiz-adv-x="276" 
d="M19 10l117 660q2 10 11 10h150q10 0 8 -10l-117 -660q-2 -10 -10 -10h-150q-11 0 -9 10zM386 752h-105q-10 0 -8 10l19 107q2 10 12 10h104q10 0 8 -10l-19 -107q-2 -10 -11 -10zM188 752h-105q-11 0 -9 10l20 107q2 10 12 10h104q10 0 8 -10l-19 -107q-2 -10 -11 -10z
" />
    <glyph glyph-name="Eth" unicode="&#xd0;" horiz-adv-x="610" 
d="M281 0h-254q-10 0 -8 10l48 269q1 6 -5 6h-25q-10 0 -8 10l16 96q2 10 12 10h25q6 0 7 6l47 263q2 10 10 10h254q101 0 154 -50t53 -149q0 -66 -19.5 -172t-46.5 -161q-72 -148 -260 -148zM272 151q46 0 73 14.5t45 51.5q15 30 30 109t15 116q0 46 -23 66.5t-75 20.5h-51
q-4 0 -6 -6l-21 -116q-1 -6 4 -6h68q10 0 8 -10l-16 -96q-2 -10 -11 -10h-68q-6 0 -7 -6l-22 -122q-1 -6 4 -6h53z" />
    <glyph glyph-name="Ntilde" unicode="&#xd1;" horiz-adv-x="631" 
d="M471 742q-39 0 -78 24q-29 17 -54 17q-37 0 -78 -32q-4 -3 -7.5 -1.5t-2.5 5.5l14 78q2 13 13 22q43 36 84 36q36 0 78 -24q27 -17 54 -17q37 0 78 32q4 3 7.5 1.5t2.5 -5.5l-14 -79q-2 -12 -13 -21q-41 -36 -84 -36zM19 10l117 660q2 10 11 10h142q11 0 15 -10l128 -394
h4l70 394q2 10 11 10h134q11 0 9 -10l-117 -660q-2 -10 -11 -10h-143q-11 0 -14 10l-128 394h-5l-70 -394q-2 -10 -10 -10h-134q-11 0 -9 10z" />
    <glyph glyph-name="Ograve" unicode="&#xd2;" horiz-adv-x="604" 
d="M439 747h-106q-9 0 -18 10l-101 122q-3 4 -1.5 7t6.5 3h129q12 0 19 -10l78 -122q2 -4 0.5 -7t-6.5 -3zM271 -12q-104 0 -165 55t-61 159q0 57 20.5 168t46.5 163q77 159 269 159q104 0 165 -55t61 -159q0 -57 -20.5 -168t-46.5 -163q-79 -159 -269 -159zM291 139
q65 0 96 65q14 28 31.5 123t17.5 135q0 37 -19.5 58t-55.5 21q-65 0 -96 -65q-14 -28 -31.5 -123t-17.5 -135q0 -37 19.5 -58t55.5 -21z" />
    <glyph glyph-name="Oacute" unicode="&#xd3;" horiz-adv-x="604" 
d="M442 747h-109q-5 0 -6 3t2 7l119 122q10 10 22 10h135q5 0 6.5 -3t-2.5 -7l-145 -122q-11 -10 -22 -10zM271 -12q-104 0 -165 55t-61 159q0 57 20.5 168t46.5 163q77 159 269 159q104 0 165 -55t61 -159q0 -57 -20.5 -168t-46.5 -163q-79 -159 -269 -159zM291 139
q65 0 96 65q14 28 31.5 123t17.5 135q0 37 -19.5 58t-55.5 21q-65 0 -96 -65q-14 -28 -31.5 -123t-17.5 -135q0 -37 19.5 -58t55.5 -21z" />
    <glyph glyph-name="Ocircumflex" unicode="&#xd4;" horiz-adv-x="604" 
d="M553 751h-87q-12 0 -20 10l-38 52h-2l-57 -52q-11 -10 -24 -10h-95q-4 0 -5.5 3t1.5 7l129 137q8 9 20 9h87q12 0 17 -9l80 -137q2 -4 0.5 -7t-6.5 -3zM271 -12q-104 0 -165 55t-61 159q0 57 20.5 168t46.5 163q77 159 269 159q104 0 165 -55t61 -159q0 -57 -20.5 -168
t-46.5 -163q-79 -159 -269 -159zM291 139q65 0 96 65q14 28 31.5 123t17.5 135q0 37 -19.5 58t-55.5 21q-65 0 -96 -65q-14 -28 -31.5 -123t-17.5 -135q0 -37 19.5 -58t55.5 -21z" />
    <glyph glyph-name="Otilde" unicode="&#xd5;" horiz-adv-x="604" 
d="M451 742q-39 0 -78 24q-29 17 -54 17q-37 0 -78 -32q-4 -3 -7.5 -1.5t-2.5 5.5l14 78q2 13 13 22q43 36 84 36q36 0 78 -24q27 -17 54 -17q37 0 78 32q4 3 7.5 1.5t2.5 -5.5l-14 -79q-2 -12 -13 -21q-41 -36 -84 -36zM271 -12q-104 0 -165 55t-61 159q0 57 20.5 168
t46.5 163q77 159 269 159q104 0 165 -55t61 -159q0 -57 -20.5 -168t-46.5 -163q-79 -159 -269 -159zM291 139q65 0 96 65q14 28 31.5 123t17.5 135q0 37 -19.5 58t-55.5 21q-65 0 -96 -65q-14 -28 -31.5 -123t-17.5 -135q0 -37 19.5 -58t55.5 -21z" />
    <glyph glyph-name="Odieresis" unicode="&#xd6;" horiz-adv-x="604" 
d="M541 752h-105q-10 0 -8 10l19 107q2 10 12 10h104q10 0 8 -10l-19 -107q-2 -10 -11 -10zM343 752h-105q-11 0 -9 10l20 107q2 10 12 10h104q10 0 8 -10l-19 -107q-2 -10 -11 -10zM271 -12q-104 0 -165 55t-61 159q0 57 20.5 168t46.5 163q77 159 269 159q104 0 165 -55
t61 -159q0 -57 -20.5 -168t-46.5 -163q-79 -159 -269 -159zM291 139q65 0 96 65q14 28 31.5 123t17.5 135q0 37 -19.5 58t-55.5 21q-65 0 -96 -65q-14 -28 -31.5 -123t-17.5 -135q0 -37 19.5 -58t55.5 -21z" />
    <glyph glyph-name="multiply" unicode="&#xd7;" 
d="M494 141l-78 -79q-7 -7 -14 0l-119 118q-4 4 -8 0l-118 -118q-7 -7 -14 0l-77 78q-7 7 0 14l117 117q5 5 0 9l-117 117q-7 7 0 14l79 79q7 7 14 0l117 -118q4 -3 9 0l118 118q7 7 14 0l77 -77q6 -8 0 -14l-118 -118q-5 -5 0 -8l118 -118q7 -7 0 -14z" />
    <glyph glyph-name="Oslash" unicode="&#xd8;" horiz-adv-x="604" 
d="M271 -12q-81 0 -138 34l-34 -42q-7 -10 -18 -10h-95q-4 0 -5.5 3t1.5 7l88 108q-25 48 -25 114q0 57 20.5 168t46.5 163q77 159 269 159q82 0 137 -34l34 42q7 10 18 10h96q4 0 5.5 -3t-1.5 -7l-89 -109q26 -47 26 -113q0 -57 -20.5 -168t-46.5 -163q-79 -159 -269 -159z
M291 139q65 0 96 65q14 28 31.5 123t17.5 135q0 37 -19.5 58t-55.5 21q-65 0 -96 -65q-14 -28 -31.5 -123t-17.5 -135q0 -37 19.5 -58t55.5 -21z" />
    <glyph glyph-name="Ugrave" unicode="&#xd9;" horiz-adv-x="622" 
d="M453 747h-106q-9 0 -18 10l-101 122q-3 4 -1.5 7t6.5 3h129q12 0 19 -10l78 -122q2 -4 0.5 -7t-6.5 -3zM287 -12q-128 0 -189.5 71.5t-37.5 204.5l72 406q2 10 11 10h150q11 0 9 -10l-74 -419q-10 -53 10 -82.5t63 -29.5q44 0 71 26t38 86l74 419q2 10 11 10h151
q10 0 8 -10l-73 -412q-26 -144 -98 -207t-196 -63z" />
    <glyph glyph-name="Uacute" unicode="&#xda;" horiz-adv-x="622" 
d="M454 747h-109q-5 0 -6 3t2 7l119 122q10 10 22 10h135q5 0 6.5 -3t-2.5 -7l-145 -122q-11 -10 -22 -10zM287 -12q-128 0 -189.5 71.5t-37.5 204.5l72 406q2 10 11 10h150q11 0 9 -10l-74 -419q-10 -53 10 -82.5t63 -29.5q44 0 71 26t38 86l74 419q2 10 11 10h151
q10 0 8 -10l-73 -412q-26 -144 -98 -207t-196 -63z" />
    <glyph glyph-name="Ucircumflex" unicode="&#xdb;" horiz-adv-x="622" 
d="M287 -12q-128 0 -189.5 71.5t-37.5 204.5l72 406q2 10 11 10h150q11 0 9 -10l-74 -419q-10 -53 10 -82.5t63 -29.5q44 0 71 26t38 86l74 419q2 10 11 10h151q10 0 8 -10l-73 -412q-26 -144 -98 -207t-196 -63zM569 742h-87q-12 0 -19 10l-39 51h-1l-58 -51
q-10 -10 -24 -10h-95q-5 0 -6 3t3 7l128 136q9 10 20 10h87q11 0 17 -10l80 -136q2 -4 0.5 -7t-6.5 -3z" />
    <glyph glyph-name="Udieresis" unicode="&#xdc;" horiz-adv-x="622" 
d="M560 752h-105q-10 0 -8 10l19 107q2 10 12 10h104q10 0 8 -10l-19 -107q-2 -10 -11 -10zM362 752h-105q-11 0 -9 10l20 107q2 10 12 10h104q10 0 8 -10l-19 -107q-2 -10 -11 -10zM287 -12q-128 0 -189.5 71.5t-37.5 204.5l72 406q2 10 11 10h150q11 0 9 -10l-74 -419
q-10 -53 10 -82.5t63 -29.5q44 0 71 26t38 86l74 419q2 10 11 10h151q10 0 8 -10l-73 -412q-26 -144 -98 -207t-196 -63z" />
    <glyph glyph-name="Yacute" unicode="&#xdd;" horiz-adv-x="574" 
d="M326 0h-150q-11 0 -9 10l45 254l-128 405q-4 11 9 11h143q11 0 14 -10l69 -239h3l153 239q6 10 16 10h156q13 0 6 -11l-271 -405l-45 -254q-2 -10 -11 -10zM422 747h-109q-5 0 -6 3t2 7l119 122q10 10 22 10h135q5 0 6.5 -3t-2.5 -7l-145 -122q-11 -10 -22 -10z" />
    <glyph glyph-name="Thorn" unicode="&#xde;" horiz-adv-x="586" 
d="M178 0h-151q-10 0 -8 10l117 660q2 10 11 10h150q10 0 8 -10l-16 -89q-1 -6 4 -6h97q103 0 156 -47.5t53 -130.5q0 -127 -79.5 -199.5t-207.5 -72.5h-97q-5 0 -7 -6l-20 -109q-2 -10 -10 -10zM327 270q44 0 71.5 26.5t27.5 72.5q0 29 -18 45.5t-52 16.5h-87q-5 0 -7 -6
l-26 -149q-2 -6 4 -6h87z" />
    <glyph glyph-name="germandbls" unicode="&#xdf;" horiz-adv-x="573" 
d="M280 -5h-39q-10 0 -8 10l19 106q2 10 12 10h23q49 0 68 40q7 14 15.5 62.5t8.5 68.5q0 46 -59 46h-16q-11 0 -9 10l19 104q2 10 12 10h23q29 0 46 17t17 45q0 39 -60 39q-41 0 -62.5 -19.5t-29.5 -60.5l-84 -473q-2 -10 -10 -10h-141q-10 0 -8 10l83 471q19 104 85 157.5
t188 53.5q97 0 149 -37.5t52 -101.5q0 -101 -80 -148v-2q46 -28 46 -93q0 -49 -12 -110.5t-32 -101.5q-27 -55 -79.5 -79t-136.5 -24z" />
    <glyph glyph-name="agrave" unicode="&#xe0;" horiz-adv-x="515" 
d="M420 0h-134q-11 0 -9 10l5 30h-1q-49 -52 -135 -52q-55 0 -92 33t-37 89q0 90 60 138t170 48h75q6 0 8 6l3 17q6 29 -10.5 41t-71.5 12q-65 0 -107 -28q-9 -5 -12 4l-35 88q-3 9 6 15q75 48 193 48q114 0 161 -41t29 -140l-55 -308q-2 -10 -11 -10zM221 104q74 0 83 55
l5 32q1 6 -5 6h-57q-75 0 -75 -57q0 -36 49 -36zM376 546h-100q-11 0 -18 10l-74 136q-2 4 0 7t7 3h125q12 0 15 -10l53 -136q3 -10 -8 -10z" />
    <glyph glyph-name="aacute" unicode="&#xe1;" horiz-adv-x="515" 
d="M420 0h-134q-11 0 -9 10l5 30h-1q-49 -52 -135 -52q-55 0 -92 33t-37 89q0 90 60 138t170 48h75q6 0 8 6l3 17q6 29 -10.5 41t-71.5 12q-65 0 -107 -28q-9 -5 -12 4l-35 88q-3 9 6 15q75 48 193 48q114 0 161 -41t29 -140l-55 -308q-2 -10 -11 -10zM221 104q74 0 83 55
l5 32q1 6 -5 6h-57q-75 0 -75 -57q0 -36 49 -36zM350 546h-110q-4 0 -5.5 3t1.5 7l101 136q7 10 19 10h134q5 0 6 -3t-3 -7l-123 -136q-10 -10 -20 -10z" />
    <glyph glyph-name="acircumflex" unicode="&#xe2;" horiz-adv-x="515" 
d="M420 0h-134q-11 0 -9 10l5 30h-1q-49 -52 -135 -52q-55 0 -92 33t-37 89q0 90 60 138t170 48h75q6 0 8 6l3 17q6 29 -10.5 41t-71.5 12q-65 0 -107 -28q-9 -5 -12 4l-35 88q-3 9 6 15q75 48 193 48q114 0 161 -41t29 -140l-55 -308q-2 -10 -11 -10zM221 104q74 0 83 55
l5 32q1 6 -5 6h-57q-75 0 -75 -57q0 -36 49 -36zM479 545h-87q-12 0 -20 10l-38 52h-2l-57 -52q-11 -10 -24 -10h-95q-4 0 -5.5 3t1.5 7l129 137q8 9 20 9h87q12 0 17 -9l80 -137q2 -4 0.5 -7t-6.5 -3z" />
    <glyph glyph-name="atilde" unicode="&#xe3;" horiz-adv-x="515" 
d="M420 0h-134q-11 0 -9 10l5 30h-1q-49 -52 -135 -52q-55 0 -92 33t-37 89q0 90 60 138t170 48h75q6 0 8 6l3 17q6 29 -10.5 41t-71.5 12q-65 0 -107 -28q-9 -5 -12 4l-35 88q-3 9 6 15q75 48 193 48q114 0 161 -41t29 -140l-55 -308q-2 -10 -11 -10zM221 104q74 0 83 55
l5 32q1 6 -5 6h-57q-75 0 -75 -57q0 -36 49 -36zM380 548q-37 0 -78 23q-29 18 -54 18q-36 0 -78 -33q-4 -3 -7.5 -1.5t-2.5 6.5l14 78q3 13 13 21q41 36 84 36q37 0 78 -23q29 -18 54 -18q36 0 78 33q4 3 7.5 1.5t2.5 -6.5l-14 -78q-2 -11 -13 -22q-41 -35 -84 -35z" />
    <glyph glyph-name="adieresis" unicode="&#xe4;" horiz-adv-x="515" 
d="M420 0h-134q-11 0 -9 10l5 30h-1q-49 -52 -135 -52q-55 0 -92 33t-37 89q0 90 60 138t170 48h75q6 0 8 6l3 17q6 29 -10.5 41t-71.5 12q-65 0 -107 -28q-9 -5 -12 4l-35 88q-3 9 6 15q75 48 193 48q114 0 161 -41t29 -140l-55 -308q-2 -10 -11 -10zM221 104q74 0 83 55
l5 32q1 6 -5 6h-57q-75 0 -75 -57q0 -36 49 -36zM464 556h-105q-11 0 -9 10l20 106q2 10 12 10h104q10 0 8 -10l-19 -106q-2 -10 -11 -10zM265 556h-104q-11 0 -9 10l20 106q2 10 11 10h105q10 0 8 -10l-20 -106q-2 -10 -11 -10z" />
    <glyph glyph-name="aring" unicode="&#xe5;" horiz-adv-x="515" 
d="M420 0h-134q-11 0 -9 10l5 30h-1q-49 -52 -135 -52q-55 0 -92 33t-37 89q0 90 60 138t170 48h75q6 0 8 6l3 17q6 29 -10.5 41t-71.5 12q-65 0 -107 -28q-9 -5 -12 4l-35 88q-3 9 6 15q75 48 193 48q114 0 161 -41t29 -140l-55 -308q-2 -10 -11 -10zM221 104q74 0 83 55
l5 32q1 6 -5 6h-57q-75 0 -75 -57q0 -36 49 -36zM312 520q-42 0 -68.5 25t-26.5 65q0 56 37 95t95 39q42 0 68 -25t26 -65q0 -56 -36.5 -95t-94.5 -39zM322 586q21 0 36 16t15 40q0 16 -9.5 26t-25.5 10q-21 0 -36 -16t-15 -40q0 -16 9.5 -26t25.5 -10z" />
    <glyph glyph-name="ae" unicode="&#xe6;" horiz-adv-x="792" 
d="M506 -12q-54 0 -92.5 20t-56.5 50h-1q-65 -70 -186 -70q-73 0 -113 33t-40 95q0 86 60.5 133t169.5 47h75q6 0 8 6l3 17q6 29 -10.5 41t-71.5 12q-65 0 -107 -28q-9 -5 -12 4l-35 88q-3 9 6 15q75 48 193 48q100 0 149 -46h2q56 46 137 46q85 0 137.5 -45.5t52.5 -127.5
q0 -44 -13 -119q-2 -10 -12 -10h-281q-6 0 -7 -6q-1 -4 -1 -12q0 -67 83 -67q55 0 113 43q9 5 14 -1l55 -70q5 -9 -2 -16q-90 -80 -217 -80zM486 296h128q6 0 8 6q3 12 3 23q0 58 -59 58q-51 0 -75 -46q-6 -15 -9 -35q-2 -6 4 -6zM221 104q74 0 83 55l5 32q1 6 -5 6h-57
q-75 0 -75 -57q0 -36 49 -36z" />
    <glyph glyph-name="ccedilla" unicode="&#xe7;" horiz-adv-x="474" 
d="M186 -165h-111q-10 0 -5 10l85 151q-59 15 -92.5 59t-33.5 111q0 110 42 198q65 135 231 135q69 0 114 -31.5t59 -82.5q3 -9 -6 -13l-114 -53q-12 -6 -15 4q-17 43 -54 43q-44 0 -65 -43q-11 -23 -20.5 -71t-9.5 -72q0 -59 52 -59q38 0 71 46q6 8 15 4l102 -59
q6 -3 1 -13q-58 -89 -160 -106l-69 -148q-4 -10 -17 -10z" />
    <glyph glyph-name="egrave" unicode="&#xe8;" horiz-adv-x="513" 
d="M227 -12q-92 0 -145 46t-53 134q0 114 40 194q66 137 236 137q85 0 137.5 -45.5t52.5 -127.5q0 -44 -13 -119q-2 -10 -12 -10h-281q-5 0 -7 -6q-1 -4 -1 -12q0 -67 83 -67q57 0 113 43q9 5 14 -1l55 -70q6 -10 -2 -16q-90 -80 -217 -80zM207 296h128q7 0 8 6q3 12 3 23
q0 58 -59 58q-51 0 -75 -46q-6 -15 -9 -35q-1 -6 4 -6zM358 546h-100q-11 0 -18 10l-74 136q-2 4 0 7t7 3h125q12 0 15 -10l53 -136q3 -10 -8 -10z" />
    <glyph glyph-name="eacute" unicode="&#xe9;" horiz-adv-x="513" 
d="M351 546h-110q-5 0 -6 3t2 7l101 136q7 10 19 10h134q5 0 6 -3t-3 -7l-123 -136q-10 -10 -20 -10zM227 -12q-92 0 -145 46t-53 134q0 114 40 194q66 137 236 137q85 0 137.5 -45.5t52.5 -127.5q0 -44 -13 -119q-2 -10 -12 -10h-281q-5 0 -7 -6q-1 -4 -1 -12q0 -67 83 -67
q57 0 113 43q9 5 14 -1l55 -70q6 -10 -2 -16q-90 -80 -217 -80zM207 296h128q7 0 8 6q3 12 3 23q0 58 -59 58q-51 0 -75 -46q-6 -15 -9 -35q-1 -6 4 -6z" />
    <glyph glyph-name="ecircumflex" unicode="&#xea;" horiz-adv-x="513" 
d="M467 545h-87q-12 0 -20 10l-38 52h-2l-57 -52q-11 -10 -24 -10h-95q-4 0 -5.5 3t1.5 7l129 137q8 9 20 9h87q12 0 17 -9l80 -137q2 -4 0.5 -7t-6.5 -3zM227 -12q-92 0 -145 46t-53 134q0 114 40 194q66 137 236 137q85 0 137.5 -45.5t52.5 -127.5q0 -44 -13 -119
q-2 -10 -12 -10h-281q-5 0 -7 -6q-1 -4 -1 -12q0 -67 83 -67q57 0 113 43q9 5 14 -1l55 -70q6 -10 -2 -16q-90 -80 -217 -80zM207 296h128q7 0 8 6q3 12 3 23q0 58 -59 58q-51 0 -75 -46q-6 -15 -9 -35q-1 -6 4 -6z" />
    <glyph glyph-name="edieresis" unicode="&#xeb;" horiz-adv-x="513" 
d="M462 556h-105q-11 0 -9 10l20 106q2 10 12 10h104q10 0 8 -10l-19 -106q-2 -10 -11 -10zM263 556h-104q-11 0 -9 10l20 106q2 10 11 10h105q10 0 8 -10l-20 -106q-2 -10 -11 -10zM227 -12q-92 0 -145 46t-53 134q0 114 40 194q66 137 236 137q85 0 137.5 -45.5
t52.5 -127.5q0 -44 -13 -119q-2 -10 -12 -10h-281q-5 0 -7 -6q-1 -4 -1 -12q0 -67 83 -67q57 0 113 43q9 5 14 -1l55 -70q6 -10 -2 -16q-90 -80 -217 -80zM207 296h128q7 0 8 6q3 12 3 23q0 58 -59 58q-51 0 -75 -46q-6 -15 -9 -35q-1 -6 4 -6z" />
    <glyph glyph-name="igrave" unicode="&#xec;" horiz-adv-x="265" 
d="M168 0h-143q-10 0 -8 10l82 467q2 10 11 10h143q10 0 8 -10l-82 -467q-2 -10 -11 -10zM240 546h-100q-11 0 -18 10l-74 136q-2 4 0 7t7 3h125q12 0 15 -10l53 -136q3 -10 -8 -10z" />
    <glyph glyph-name="iacute" unicode="&#xed;" horiz-adv-x="265" 
d="M242 546h-110q-4 0 -5.5 3t1.5 7l101 136q7 10 19 10h134q5 0 6 -3t-3 -7l-123 -136q-10 -10 -20 -10zM168 0h-143q-10 0 -8 10l82 467q2 10 11 10h143q10 0 8 -10l-82 -467q-2 -10 -11 -10z" />
    <glyph glyph-name="icircumflex" unicode="&#xee;" horiz-adv-x="265" 
d="M353 545h-87q-12 0 -20 10l-38 52h-2l-57 -52q-11 -10 -24 -10h-95q-4 0 -5.5 3t1.5 7l129 137q8 9 20 9h87q12 0 17 -9l80 -137q2 -4 0.5 -7t-6.5 -3zM168 0h-143q-10 0 -8 10l82 467q2 10 11 10h143q10 0 8 -10l-82 -467q-2 -10 -11 -10z" />
    <glyph glyph-name="idieresis" unicode="&#xef;" horiz-adv-x="265" 
d="M346 556h-105q-11 0 -9 10l20 106q2 10 12 10h104q10 0 8 -10l-19 -106q-2 -10 -11 -10zM147 556h-104q-11 0 -9 10l20 106q2 10 11 10h105q10 0 8 -10l-20 -106q-2 -10 -11 -10zM168 0h-143q-10 0 -8 10l82 467q2 10 11 10h143q10 0 8 -10l-82 -467q-2 -10 -11 -10z" />
    <glyph glyph-name="eth" unicode="&#xf0;" horiz-adv-x="519" 
d="M470 575l-61 -18l15 -27q71 -137 71 -246q0 -91 -34 -162q-65 -134 -238 -134q-90 0 -139.5 48.5t-49.5 135.5q0 86 32 151q27 58 74.5 89.5t108.5 31.5q39 0 62 -18h2l-47 90l-99 -28q-9 -4 -11 6l-8 71q-2 10 9 13l67 19l-38 73q-6 10 5 10h142q12 0 18 -10l16 -32
l93 27q9 3 11 -6l8 -70q2 -11 -9 -14zM246 121q44 0 65 43q22 43 22 96q0 58 -52 58q-44 0 -65 -43q-22 -43 -22 -96q0 -58 52 -58z" />
    <glyph glyph-name="ntilde" unicode="&#xf1;" horiz-adv-x="540" 
d="M445 0h-143q-10 0 -8 10l49 279q13 75 -44 75q-58 0 -71 -74l-49 -280q-2 -10 -11 -10h-143q-10 0 -8 10l82 467q2 10 11 10h143q10 0 8 -10l-6 -37h1q48 59 130 59q80 0 110 -49.5t15 -131.5l-55 -308q-2 -10 -11 -10zM387 548q-37 0 -78 23q-29 18 -54 18
q-36 0 -78 -33q-4 -3 -7.5 -1.5t-2.5 6.5l14 78q3 13 13 21q41 36 84 36q37 0 78 -23q29 -18 54 -18q36 0 78 33q4 3 7.5 1.5t2.5 -6.5l-14 -78q-2 -11 -13 -22q-41 -35 -84 -35z" />
    <glyph glyph-name="ograve" unicode="&#xf2;" horiz-adv-x="514" 
d="M221 -12q-88 0 -140 47t-52 134q0 114 40 195q67 135 236 135q88 0 140 -47t52 -134q0 -114 -40 -195q-67 -135 -236 -135zM241 121q43 0 66 44q10 21 19.5 70t9.5 72q0 59 -51 59q-43 0 -66 -44q-10 -21 -19.5 -70t-9.5 -72q0 -59 51 -59zM357 546h-100q-11 0 -18 10
l-74 136q-2 4 0 7t7 3h125q12 0 15 -10l53 -136q3 -10 -8 -10z" />
    <glyph glyph-name="oacute" unicode="&#xf3;" horiz-adv-x="514" 
d="M360 546h-110q-4 0 -5.5 3t1.5 7l101 136q7 10 19 10h134q5 0 6 -3t-3 -7l-123 -136q-10 -10 -20 -10zM221 -12q-88 0 -140 47t-52 134q0 114 40 195q67 135 236 135q88 0 140 -47t52 -134q0 -114 -40 -195q-67 -135 -236 -135zM241 121q43 0 66 44q10 21 19.5 70t9.5 72
q0 59 -51 59q-43 0 -66 -44q-10 -21 -19.5 -70t-9.5 -72q0 -59 51 -59z" />
    <glyph glyph-name="ocircumflex" unicode="&#xf4;" horiz-adv-x="514" 
d="M469 545h-87q-12 0 -20 10l-38 52h-2l-57 -52q-11 -10 -24 -10h-95q-4 0 -5.5 3t1.5 7l129 137q8 9 20 9h87q12 0 17 -9l80 -137q2 -4 0.5 -7t-6.5 -3zM221 -12q-88 0 -140 47t-52 134q0 114 40 195q67 135 236 135q88 0 140 -47t52 -134q0 -114 -40 -195
q-67 -135 -236 -135zM241 121q43 0 66 44q10 21 19.5 70t9.5 72q0 59 -51 59q-43 0 -66 -44q-10 -21 -19.5 -70t-9.5 -72q0 -59 51 -59z" />
    <glyph glyph-name="otilde" unicode="&#xf5;" horiz-adv-x="514" 
d="M221 -12q-88 0 -140 47t-52 134q0 114 40 195q67 135 236 135q88 0 140 -47t52 -134q0 -114 -40 -195q-67 -135 -236 -135zM241 121q43 0 66 44q10 21 19.5 70t9.5 72q0 59 -51 59q-43 0 -66 -44q-10 -21 -19.5 -70t-9.5 -72q0 -59 51 -59zM371 548q-37 0 -78 23
q-28 18 -54 18q-36 0 -78 -33q-4 -3 -7.5 -1.5t-2.5 6.5l14 78q3 13 13 21q41 36 84 36q37 0 78 -23q28 -18 54 -18q36 0 78 33q4 3 7.5 1.5t2.5 -6.5l-14 -78q-2 -11 -13 -22q-41 -35 -84 -35z" />
    <glyph glyph-name="odieresis" unicode="&#xf6;" horiz-adv-x="514" 
d="M459 556h-105q-11 0 -9 10l20 106q2 10 12 10h104q10 0 8 -10l-19 -106q-2 -10 -11 -10zM260 556h-104q-11 0 -9 10l20 106q2 10 11 10h105q10 0 8 -10l-20 -106q-2 -10 -11 -10zM221 -12q-88 0 -140 47t-52 134q0 114 40 195q67 135 236 135q88 0 140 -47t52 -134
q0 -114 -40 -195q-67 -135 -236 -135zM241 121q43 0 66 44q10 21 19.5 70t9.5 72q0 59 -51 59q-43 0 -66 -44q-10 -21 -19.5 -70t-9.5 -72q0 -59 51 -59z" />
    <glyph glyph-name="divide" unicode="&#xf7;" 
d="M289 388q-35 0 -59 24t-24 59q0 34 24 58t59 24q34 0 58 -24t24 -58t-24 -58.5t-58 -24.5zM509 209h-441q-10 0 -10 10v114q0 10 10 10h441q10 0 10 -10v-114q0 -10 -10 -10zM289 -1q-35 0 -59 24t-24 58q0 35 24 59t59 24q34 0 58 -24.5t24 -58.5t-24 -58t-58 -24z" />
    <glyph glyph-name="oslash" unicode="&#xf8;" horiz-adv-x="514" 
d="M221 -12q-66 0 -112 26l-30 -33q-10 -10 -20 -10h-75q-5 0 -6 3t3 7l75 84q-27 41 -27 104q0 114 40 195q67 135 236 135q65 0 112 -27l30 34q10 10 20 10h75q5 0 6 -3t-3 -7l-75 -84q27 -44 27 -104q0 -114 -40 -195q-67 -135 -236 -135zM241 121q43 0 66 44
q10 21 19.5 70t9.5 72q0 59 -51 59q-45 0 -66 -44q-10 -21 -19.5 -69.5t-9.5 -72.5q0 -59 51 -59z" />
    <glyph glyph-name="ugrave" unicode="&#xf9;" horiz-adv-x="538" 
d="M107 487h141q11 0 9 -10l-49 -280q-13 -74 44 -74t70 74l49 280q2 10 11 10h143q10 0 8 -10l-82 -467q-2 -10 -11 -10h-143q-10 0 -8 10l7 37h-1q-51 -59 -132 -59q-78 0 -107.5 48.5t-13.5 133.5l54 307q2 10 11 10zM372 546h-100q-11 0 -18 10l-74 136q-2 4 0 7t7 3
h125q12 0 15 -10l53 -136q3 -10 -8 -10z" />
    <glyph glyph-name="uacute" unicode="&#xfa;" horiz-adv-x="538" 
d="M374 546h-110q-4 0 -5.5 3t1.5 7l101 136q7 10 19 10h134q5 0 6 -3t-3 -7l-123 -136q-10 -10 -20 -10zM107 487h141q11 0 9 -10l-49 -280q-13 -74 44 -74t70 74l49 280q2 10 11 10h143q10 0 8 -10l-82 -467q-2 -10 -11 -10h-143q-10 0 -8 10l7 37h-1q-51 -59 -132 -59
q-78 0 -107.5 48.5t-13.5 133.5l54 307q2 10 11 10z" />
    <glyph glyph-name="ucircumflex" unicode="&#xfb;" horiz-adv-x="538" 
d="M484 545h-87q-13 0 -20 10l-38 52h-2l-57 -52q-11 -10 -24 -10h-95q-5 0 -6 3t2 7l129 137q8 9 20 9h87q12 0 17 -9l80 -137q2 -4 0 -7t-6 -3zM107 487h141q11 0 9 -10l-49 -280q-13 -74 44 -74t70 74l49 280q2 10 11 10h143q10 0 8 -10l-82 -467q-2 -10 -11 -10h-143
q-10 0 -8 10l7 37h-1q-51 -59 -132 -59q-78 0 -107.5 48.5t-13.5 133.5l54 307q2 10 11 10z" />
    <glyph glyph-name="udieresis" unicode="&#xfc;" horiz-adv-x="538" 
d="M478 556h-105q-11 0 -9 10l20 106q2 10 12 10h104q10 0 8 -10l-19 -106q-2 -10 -11 -10zM279 556h-104q-11 0 -9 10l20 106q2 10 11 10h105q10 0 8 -10l-20 -106q-2 -10 -11 -10zM107 487h141q11 0 9 -10l-49 -280q-13 -74 44 -74t70 74l49 280q2 10 11 10h143
q10 0 8 -10l-82 -467q-2 -10 -11 -10h-143q-10 0 -8 10l7 37h-1q-51 -59 -132 -59q-78 0 -107.5 48.5t-13.5 133.5l54 307q2 10 11 10z" />
    <glyph glyph-name="yacute" unicode="&#xfd;" horiz-adv-x="516" 
d="M60 -180h-36q-10 0 -8 10l20 113q2 10 12 10h24q24 0 39 9.5t28 34.5l16 32l-98 448q-2 10 8 10h145q9 0 10 -10l40 -253h2l122 253q4 10 14 10h149q11 0 6 -11l-299 -531q-40 -72 -82.5 -98.5t-111.5 -26.5zM355 546h-110q-5 0 -6 3t2 7l101 136q7 10 19 10h134
q5 0 6 -3t-3 -7l-123 -136q-10 -10 -20 -10z" />
    <glyph glyph-name="thorn" unicode="&#xfe;" horiz-adv-x="538" 
d="M137 -180h-144q-10 0 -8 10l148 840q2 10 11 10h143q11 0 9 -10l-41 -231h1q46 60 131 60q137 0 137 -159q0 -52 -15.5 -125t-37.5 -119q-54 -108 -173 -108q-87 0 -112 59h-1l-38 -217q-2 -10 -10 -10zM263 121q44 0 66 44q9 20 19 68.5t10 72.5q0 60 -51 60
q-44 0 -66 -44q-9 -20 -19 -68.5t-10 -72.5q0 -60 51 -60z" />
    <glyph glyph-name="ydieresis" unicode="&#xff;" horiz-adv-x="516" 
d="M60 -180h-36q-10 0 -8 10l20 113q2 10 12 10h24q24 0 39 9.5t28 34.5l16 32l-98 448q-2 10 8 10h145q9 0 10 -10l40 -253h2l122 253q4 10 14 10h149q11 0 6 -11l-299 -531q-40 -72 -82.5 -98.5t-111.5 -26.5zM472 556h-105q-11 0 -9 10l20 106q2 10 12 10h104q10 0 8 -10
l-19 -106q-2 -10 -11 -10zM273 556h-104q-11 0 -9 10l20 106q2 10 11 10h105q10 0 8 -10l-20 -106q-2 -10 -11 -10z" />
    <glyph glyph-name="Amacron" unicode="&#x100;" horiz-adv-x="656" 
d="M-19 0q-10 0 -5 10l344 660q5 10 14 10h157q11 0 11 -10l106 -660q2 -10 -7 -10h-154q-10 0 -12 10l-12 108h-212l-51 -108q-5 -10 -14 -10h-165zM277 260h130l-24 220h-2zM571 763h-291q-10 0 -8 10l15 87q2 10 11 10h291q10 0 8 -10l-15 -87q-2 -10 -11 -10z" />
    <glyph glyph-name="amacron" unicode="&#x101;" horiz-adv-x="515" 
d="M420 0h-134q-11 0 -9 10l5 30h-1q-49 -52 -135 -52q-55 0 -92 33t-37 89q0 90 60 138t170 48h75q6 0 8 6l3 17q6 29 -10.5 41t-71.5 12q-65 0 -107 -28q-9 -5 -12 4l-35 88q-3 9 6 15q75 48 193 48q114 0 161 -41t29 -140l-55 -308q-2 -10 -11 -10zM221 104q74 0 83 55
l5 32q1 6 -5 6h-57q-75 0 -75 -57q0 -36 49 -36zM459 566h-291q-10 0 -8 10l15 87q2 10 11 10h291q10 0 8 -10l-15 -87q-2 -10 -11 -10z" />
    <glyph glyph-name="Abreve" unicode="&#x102;" horiz-adv-x="656" 
d="M-19 0q-10 0 -5 10l344 660q5 10 14 10h157q11 0 11 -10l106 -660q2 -10 -7 -10h-154q-10 0 -12 10l-12 108h-212l-51 -108q-5 -10 -14 -10h-165zM277 260h130l-24 220h-2zM422 735q-66 0 -103 39t-29 99q2 12 13 12h62q11 0 14 -11q8 -41 58 -41q52 0 75 41q6 11 17 11
h62q12 0 10 -11q-11 -59 -63 -99t-116 -40z" />
    <glyph glyph-name="abreve" unicode="&#x103;" horiz-adv-x="515" 
d="M420 0h-134q-11 0 -9 10l5 30h-1q-49 -52 -135 -52q-55 0 -92 33t-37 89q0 90 60 138t170 48h75q6 0 8 6l3 17q6 29 -10.5 41t-71.5 12q-65 0 -107 -28q-9 -5 -12 4l-35 88q-3 9 6 15q75 48 193 48q114 0 161 -41t29 -140l-55 -308q-2 -10 -11 -10zM221 104q74 0 83 55
l5 32q1 6 -5 6h-57q-75 0 -75 -57q0 -36 49 -36zM309 540q-66 0 -103 39t-29 99q2 12 13 12h62q11 0 14 -11q8 -41 58 -41q52 0 75 41q5 11 17 11h62q12 0 10 -11q-11 -59 -63 -99t-116 -40z" />
    <glyph glyph-name="Aogonek" unicode="&#x104;" horiz-adv-x="656" 
d="M472 -190q-42 0 -67 21.5t-25 56.5q0 63 73 112h-8q-9 1 -10 10l-12 108h-212l-51 -108q-5 -10 -14 -10h-165q-10 0 -5 10l344 660q5 10 14 10h157q11 0 11 -10l106 -660q1 -7 -6 -11q-98 -40 -98 -70q0 -13 13 -13q9 0 25 8q9 5 12 -3l25 -68q3 -9 -5 -13
q-49 -30 -102 -30zM381 480l-104 -220h130l-24 220h-2z" />
    <glyph glyph-name="aogonek" unicode="&#x105;" horiz-adv-x="515" 
d="M292 -190q-43 0 -67.5 21t-24.5 57q0 66 84 115h-2q-5 0 -5 6l5 31h-1q-49 -52 -135 -52q-55 0 -92 33t-37 89q0 90 60 138t170 48h75q6 0 8 6l3 17q6 29 -10.5 41t-71.5 12q-65 0 -107 -28q-9 -5 -12 4l-35 88q-3 9 6 15q75 48 193 48q114 0 161 -41t29 -140l-55 -307
q-1 -7 -10 -11q-98 -41 -98 -71q0 -13 14 -13q10 0 24 8q10 5 13 -3l25 -68q3 -8 -6 -13q-49 -30 -101 -30zM221 104q74 0 83 55l5 32q1 6 -5 6h-57q-75 0 -75 -57q0 -36 49 -36z" />
    <glyph glyph-name="Cacute" unicode="&#x106;" horiz-adv-x="548" 
d="M42 202q0 58 20 167t47 163q78 160 264 160q85 0 138.5 -41t70.5 -116q3 -9 -7 -13l-131 -53q-12 -5 -14 6q-16 66 -75 66t-92 -65q-14 -30 -32 -124.5t-18 -133.5q0 -36 19 -57.5t53 -21.5q56 0 96 67q6 11 15 7l118 -66q7 -6 3 -14q-46 -76 -107.5 -110.5t-148.5 -34.5
q-99 0 -159 56t-60 158zM411 747h-109q-4 0 -5.5 3t1.5 7l119 122q10 10 22 10h135q5 0 6.5 -3t-2.5 -7l-145 -122q-11 -10 -22 -10z" />
    <glyph glyph-name="cacute" unicode="&#x107;" horiz-adv-x="474" 
d="M343 546h-110q-5 0 -6 3t2 7l101 136q7 10 19 10h134q5 0 6 -3t-3 -7l-123 -136q-10 -10 -20 -10zM215 -12q-84 0 -135 47.5t-51 130.5q0 110 42 198q65 135 231 135q69 0 114 -31.5t59 -82.5q3 -9 -6 -13l-114 -53q-12 -6 -15 4q-17 43 -54 43q-44 0 -65 -43
q-11 -23 -20.5 -71t-9.5 -72q0 -59 52 -59q38 0 71 46q6 8 15 4l102 -59q6 -3 1 -13q-72 -111 -217 -111z" />
    <glyph glyph-name="Ccircumflex" unicode="&#x108;" horiz-adv-x="548" 
d="M42 202q0 58 20 167t47 163q78 160 264 160q85 0 138.5 -41t70.5 -116q3 -9 -7 -13l-131 -53q-12 -5 -14 6q-16 66 -75 66t-92 -65q-14 -30 -32 -124.5t-18 -133.5q0 -36 19 -57.5t53 -21.5q56 0 96 67q6 11 15 7l118 -66q7 -6 3 -14q-46 -76 -107.5 -110.5t-148.5 -34.5
q-99 0 -159 56t-60 158zM543 742h-87q-12 0 -19 10l-39 51h-1l-58 -51q-10 -10 -24 -10h-95q-5 0 -6 3t3 7l128 136q9 10 20 10h87q11 0 17 -10l80 -136q2 -4 0.5 -7t-6.5 -3z" />
    <glyph glyph-name="ccircumflex" unicode="&#x109;" horiz-adv-x="474" 
d="M470 545h-87q-13 0 -20 10l-38 52h-2l-57 -52q-11 -10 -24 -10h-95q-5 0 -6 3t2 7l129 137q8 9 20 9h87q12 0 17 -9l80 -137q2 -4 0 -7t-6 -3zM215 -12q-84 0 -135 47.5t-51 130.5q0 110 42 198q65 135 231 135q69 0 114 -31.5t59 -82.5q3 -9 -6 -13l-114 -53
q-12 -6 -15 4q-17 43 -54 43q-44 0 -65 -43q-11 -23 -20.5 -71t-9.5 -72q0 -59 52 -59q38 0 71 46q6 8 15 4l102 -59q6 -3 1 -13q-72 -111 -217 -111z" />
    <glyph glyph-name="Cdotaccent" unicode="&#x10a;" horiz-adv-x="548" 
d="M439 752h-133q-10 0 -8 10l19 107q2 10 11 10h133q10 0 8 -10l-19 -107q-2 -10 -11 -10zM42 202q0 58 20 167t47 163q78 160 264 160q85 0 138.5 -41t70.5 -116q3 -9 -7 -13l-131 -53q-12 -5 -14 6q-16 66 -75 66t-92 -65q-14 -30 -32 -124.5t-18 -133.5q0 -36 19 -57.5
t53 -21.5q56 0 96 67q6 11 15 7l118 -66q7 -6 3 -14q-46 -76 -107.5 -110.5t-148.5 -34.5q-99 0 -159 56t-60 158z" />
    <glyph glyph-name="cdotaccent" unicode="&#x10b;" horiz-adv-x="474" 
d="M215 -12q-84 0 -135 47.5t-51 130.5q0 110 42 198q65 135 231 135q69 0 114 -31.5t59 -82.5q3 -9 -6 -13l-114 -53q-12 -6 -15 4q-17 43 -54 43q-44 0 -65 -43q-11 -23 -20.5 -71t-9.5 -72q0 -59 52 -59q38 0 71 46q6 8 15 4l102 -59q6 -3 1 -13q-72 -111 -217 -111z
M366 553h-134q-10 0 -8 10l20 107q2 10 11 10h133q10 0 8 -10l-19 -107q-2 -10 -11 -10z" />
    <glyph glyph-name="Ccaron" unicode="&#x10c;" horiz-adv-x="548" 
d="M42 202q0 58 20 167t47 163q78 160 264 160q85 0 138.5 -41t70.5 -116q3 -9 -7 -13l-131 -53q-12 -5 -14 6q-16 66 -75 66t-92 -65q-14 -30 -32 -124.5t-18 -133.5q0 -36 19 -57.5t53 -21.5q56 0 96 67q6 11 15 7l118 -66q7 -6 3 -14q-46 -76 -107.5 -110.5t-148.5 -34.5
q-99 0 -159 56t-60 158zM413 736h-86q-12 0 -18 10l-80 136q-2 4 -0.5 7t6.5 3h87q12 0 20 -10l38 -51h2l57 51q10 10 24 10h95q4 0 5.5 -3t-1.5 -7l-129 -136q-9 -10 -20 -10z" />
    <glyph glyph-name="ccaron" unicode="&#x10d;" horiz-adv-x="474" 
d="M343 542h-87q-11 0 -17 10l-80 136q-2 4 -0.5 7t6.5 3h87q12 0 20 -10l38 -51h2l57 51q10 10 24 10h95q4 0 5.5 -3t-1.5 -7l-129 -136q-9 -10 -20 -10zM215 -12q-84 0 -135 47.5t-51 130.5q0 110 42 198q65 135 231 135q69 0 114 -31.5t59 -82.5q3 -9 -6 -13l-114 -53
q-12 -6 -15 4q-17 43 -54 43q-44 0 -65 -43q-11 -23 -20.5 -71t-9.5 -72q0 -59 52 -59q38 0 71 46q6 8 15 4l102 -59q6 -3 1 -13q-72 -111 -217 -111z" />
    <glyph glyph-name="Dcaron" unicode="&#x10e;" horiz-adv-x="610" 
d="M415 736h-86q-12 0 -18 10l-80 136q-2 4 -0.5 7t6.5 3h87q12 0 20 -10l38 -51h2l57 51q10 10 24 10h95q4 0 5.5 -3t-1.5 -7l-129 -136q-9 -10 -20 -10zM19 10l117 660q2 10 10 10h254q101 0 154 -50t53 -149q0 -66 -19.5 -172t-46.5 -161q-72 -148 -260 -148h-254
q-10 0 -8 10zM219 151h53q46 0 73 14.5t45 51.5q15 30 30 109t15 116q0 46 -23 66.5t-75 20.5h-51q-4 0 -6 -6l-65 -366q-1 -6 4 -6z" />
    <glyph glyph-name="dcaron" unicode="&#x10f;" horiz-adv-x="538" 
d="M587 476q-12 0 -10 12l32 182q2 10 11 10h105q11 0 9 -10l-17 -92q-1 -14 -12 -21l-102 -74q-10 -7 -16 -7zM440 0h-142q-10 0 -8 10l6 37h-1q-46 -59 -131 -59q-137 0 -137 159q0 52 15.5 125.5t37.5 118.5q53 108 172 108q43 0 72 -16.5t40 -43.5h1l41 231q2 10 10 10
h143q11 0 9 -10l-117 -660q-2 -10 -11 -10zM244 121q44 0 66 44q9 20 19 68.5t10 72.5q0 60 -51 60q-44 0 -66 -44q-9 -20 -19 -68.5t-10 -72.5q0 -60 51 -60z" />
    <glyph glyph-name="Dcroat" unicode="&#x110;" horiz-adv-x="610" 
d="M281 0h-254q-10 0 -8 10l48 269q1 6 -5 6h-25q-10 0 -8 10l16 96q2 10 12 10h25q6 0 7 6l47 263q2 10 10 10h254q101 0 154 -50t53 -149q0 -66 -19.5 -172t-46.5 -161q-72 -148 -260 -148zM272 151q46 0 73 14.5t45 51.5q15 30 30 109t15 116q0 46 -23 66.5t-75 20.5h-51
q-4 0 -6 -6l-21 -116q-1 -6 4 -6h68q10 0 8 -10l-16 -96q-2 -10 -11 -10h-68q-6 0 -7 -6l-22 -122q-1 -6 4 -6h53z" />
    <glyph glyph-name="dcroat" unicode="&#x111;" horiz-adv-x="538" 
d="M544 537l-93 -527q-2 -10 -11 -10h-142q-10 0 -8 10l6 37h-1q-46 -59 -131 -59q-137 0 -137 159q0 52 15.5 125.5t37.5 118.5q53 108 172 108q43 0 72 -16.5t40 -43.5h1l17 98q2 6 -5 6h-93q-9 0 -7 10l14 76q2 10 11 10h92q6 0 7 6l5 25q2 10 10 10h143q11 0 9 -10
l-5 -25q-1 -6 5 -6h16q10 0 8 -10l-14 -76q-1 -10 -11 -10h-16q-5 0 -7 -6zM244 121q44 0 66 44q9 20 19 68.5t10 72.5q0 60 -51 60q-44 0 -66 -44q-9 -20 -19 -68.5t-10 -72.5q0 -60 51 -60z" />
    <glyph glyph-name="Emacron" unicode="&#x112;" horiz-adv-x="538" 
d="M513 763h-291q-10 0 -8 10l15 87q2 10 11 10h291q10 0 8 -10l-15 -87q-2 -10 -11 -10zM19 10l117 660q2 10 10 10h430q10 0 8 -10l-22 -124q-2 -10 -11 -10h-265q-6 0 -6 -6l-20 -110q-2 -6 5 -6h216q10 0 8 -10l-21 -122q-2 -10 -12 -10h-217q-5 0 -6 -6l-21 -116
q0 -6 5 -6h264q10 0 8 -10l-22 -124q-2 -10 -11 -10h-429q-10 0 -8 10z" />
    <glyph glyph-name="emacron" unicode="&#x113;" horiz-adv-x="513" 
d="M227 -12q-92 0 -145 46t-53 134q0 114 40 194q66 137 236 137q85 0 137.5 -45.5t52.5 -127.5q0 -44 -13 -119q-2 -10 -12 -10h-281q-5 0 -7 -6q-1 -4 -1 -12q0 -67 83 -67q57 0 113 43q9 5 14 -1l55 -70q6 -10 -2 -16q-90 -80 -217 -80zM207 296h128q7 0 8 6q3 12 3 23
q0 58 -59 58q-51 0 -75 -46q-6 -15 -9 -35q-1 -6 4 -6zM452 566h-291q-10 0 -8 10l15 87q2 10 11 10h291q10 0 8 -10l-15 -87q-2 -10 -11 -10z" />
    <glyph glyph-name="Ebreve" unicode="&#x114;" horiz-adv-x="538" 
d="M361 735q-66 0 -103 39t-29 99q2 12 13 12h62q11 0 14 -11q8 -41 58 -41q52 0 75 41q5 11 17 11h62q12 0 10 -11q-11 -59 -63 -99t-116 -40zM19 10l117 660q2 10 10 10h430q10 0 8 -10l-22 -124q-2 -10 -11 -10h-265q-6 0 -6 -6l-20 -110q-2 -6 5 -6h216q10 0 8 -10
l-21 -122q-2 -10 -12 -10h-217q-5 0 -6 -6l-21 -116q0 -6 5 -6h264q10 0 8 -10l-22 -124q-2 -10 -11 -10h-429q-10 0 -8 10z" />
    <glyph glyph-name="ebreve" unicode="&#x115;" horiz-adv-x="513" 
d="M227 -12q-92 0 -145 46t-53 134q0 114 40 194q66 137 236 137q85 0 137.5 -45.5t52.5 -127.5q0 -44 -13 -119q-2 -10 -12 -10h-281q-5 0 -7 -6q-1 -4 -1 -12q0 -67 83 -67q57 0 113 43q9 5 14 -1l55 -70q6 -10 -2 -16q-90 -80 -217 -80zM207 296h128q7 0 8 6q3 12 3 23
q0 58 -59 58q-51 0 -75 -46q-6 -15 -9 -35q-1 -6 4 -6zM307 540q-66 0 -103 39t-29 99q2 12 13 12h62q11 0 14 -11q8 -41 58 -41q52 0 75 41q5 11 17 11h62q12 0 10 -11q-11 -59 -63 -99t-116 -40z" />
    <glyph glyph-name="Edotaccent" unicode="&#x116;" horiz-adv-x="538" 
d="M438 752h-133q-10 0 -8 10l19 107q2 10 11 10h133q10 0 8 -10l-19 -107q-2 -10 -11 -10zM19 10l117 660q2 10 10 10h430q10 0 8 -10l-22 -124q-2 -10 -11 -10h-265q-6 0 -6 -6l-20 -110q-2 -6 5 -6h216q10 0 8 -10l-21 -122q-2 -10 -12 -10h-217q-5 0 -6 -6l-21 -116
q0 -6 5 -6h264q10 0 8 -10l-22 -124q-2 -10 -11 -10h-429q-10 0 -8 10z" />
    <glyph glyph-name="edotaccent" unicode="&#x117;" horiz-adv-x="513" 
d="M227 -12q-92 0 -145 46t-53 134q0 114 40 194q66 137 236 137q85 0 137.5 -45.5t52.5 -127.5q0 -44 -13 -119q-2 -10 -12 -10h-281q-5 0 -7 -6q-1 -4 -1 -12q0 -67 83 -67q57 0 113 43q9 5 14 -1l55 -70q6 -10 -2 -16q-90 -80 -217 -80zM207 296h128q7 0 8 6q3 12 3 23
q0 58 -59 58q-51 0 -75 -46q-6 -15 -9 -35q-1 -6 4 -6zM374 553h-134q-10 0 -8 10l20 107q2 10 11 10h133q10 0 8 -10l-19 -107q-2 -10 -11 -10z" />
    <glyph glyph-name="Eogonek" unicode="&#x118;" horiz-adv-x="538" 
d="M319 -190q-42 0 -67 21.5t-25 56.5q0 60 70 112h-270q-10 0 -8 10l117 660q2 10 10 10h430q10 0 8 -10l-22 -124q-2 -10 -11 -10h-265q-6 0 -6 -6l-20 -110q-2 -6 5 -6h216q10 0 8 -10l-21 -122q-2 -10 -12 -10h-217q-5 0 -6 -6l-21 -116q0 -6 5 -6h264q10 0 8 -10
l-22 -124q-2 -10 -11 -10h-11q-95 -42 -95 -71q0 -13 14 -13q9 0 25 8q9 5 12 -3l25 -68q4 -9 -5 -13q-49 -30 -102 -30z" />
    <glyph glyph-name="eogonek" unicode="&#x119;" horiz-adv-x="513" 
d="M263 -190q-42 0 -67 21.5t-25 56.5q0 52 52 101h-6q-88 2 -138 48t-50 131q0 114 40 194q66 137 236 137q85 0 137.5 -45.5t52.5 -127.5q0 -44 -13 -119q-2 -10 -12 -10h-281q-5 0 -7 -6q-1 -4 -1 -12q0 -67 83 -67q57 0 113 43q9 5 14 -1l55 -70q5 -9 -2 -16
q-27 -24 -53 -39q-97 -68 -97 -100q0 -13 14 -13q10 0 24 8q10 5 13 -3l25 -68q3 -8 -6 -13q-49 -30 -101 -30zM207 296h128q7 0 8 6q3 12 3 23q0 58 -59 58q-51 0 -75 -46q-6 -15 -9 -35q-1 -6 4 -6z" />
    <glyph glyph-name="Ecaron" unicode="&#x11a;" horiz-adv-x="538" 
d="M406 736h-86q-12 0 -18 10l-80 136q-2 4 0 7t6 3h87q13 0 20 -10l38 -51h2l57 51q10 10 24 10h95q5 0 6 -3t-2 -7l-129 -136q-9 -10 -20 -10zM19 10l117 660q2 10 10 10h430q10 0 8 -10l-22 -124q-2 -10 -11 -10h-265q-6 0 -6 -6l-20 -110q-2 -6 5 -6h216q10 0 8 -10
l-21 -122q-2 -10 -12 -10h-217q-5 0 -6 -6l-21 -116q0 -6 5 -6h264q10 0 8 -10l-22 -124q-2 -10 -11 -10h-429q-10 0 -8 10z" />
    <glyph glyph-name="ecaron" unicode="&#x11b;" horiz-adv-x="513" 
d="M350 542h-87q-11 0 -17 10l-80 136q-2 4 0 7t6 3h87q13 0 20 -10l38 -51h2l57 51q10 10 24 10h95q5 0 6 -3t-2 -7l-129 -136q-9 -10 -20 -10zM227 -12q-92 0 -145 46t-53 134q0 114 40 194q66 137 236 137q85 0 137.5 -45.5t52.5 -127.5q0 -44 -13 -119q-2 -10 -12 -10
h-281q-5 0 -7 -6q-1 -4 -1 -12q0 -67 83 -67q57 0 113 43q9 5 14 -1l55 -70q6 -10 -2 -16q-90 -80 -217 -80zM207 296h128q7 0 8 6q3 12 3 23q0 58 -59 58q-51 0 -75 -46q-6 -15 -9 -35q-1 -6 4 -6z" />
    <glyph glyph-name="Gcircumflex" unicode="&#x11c;" horiz-adv-x="600" 
d="M45 202q0 57 20.5 168t46.5 163q77 159 272 159q84 0 139.5 -39.5t74.5 -105.5q3 -11 -7 -16l-131 -52q-10 -3 -15 5q-23 57 -82 57q-66 0 -97 -65q-14 -28 -32 -123.5t-18 -134.5q0 -36 20.5 -57.5t57.5 -21.5q72 0 99 58q10 25 14 48q0 6 -6 6h-70q-9 0 -7 10l19 108
q2 10 11 10h235q9 0 7 -10l-8 -50q-20 -118 -49 -174q-41 -82 -106.5 -119.5t-160.5 -37.5q-105 0 -166 55.5t-61 158.5zM551 742h-87q-12 0 -19 10l-39 51h-1l-58 -51q-10 -10 -24 -10h-95q-5 0 -6 3t3 7l128 136q9 10 20 10h87q11 0 17 -10l80 -136q2 -4 0.5 -7t-6.5 -3z
" />
    <glyph glyph-name="gcircumflex" unicode="&#x11d;" horiz-adv-x="530" 
d="M484 545h-87q-13 0 -20 10l-38 52h-2l-57 -52q-11 -10 -24 -10h-95q-5 0 -6 3t2 7l129 137q8 9 20 9h87q12 0 17 -9l80 -137q2 -4 0 -7t-6 -3zM176 -192q-59 0 -108 23t-73 60q-6 9 3 16l88 74q9 7 17 1q38 -40 85 -40q44 0 68.5 24t33.5 77l8 40h-1q-43 -58 -128 -58
q-68 0 -102 40t-34 113q0 48 12 109t31 100q54 112 172 112q86 0 110 -60h1l7 38q2 10 12 10h140q10 0 8 -10l-70 -411q-24 -139 -91 -198.5t-189 -59.5zM246 156q42 0 63 43q23 43 23 108q0 59 -50 59q-42 0 -63 -43q-23 -46 -23 -109q0 -58 50 -58z" />
    <glyph glyph-name="Gbreve" unicode="&#x11e;" horiz-adv-x="600" 
d="M386 735q-66 0 -103 39t-29 99q2 12 13 12h62q11 0 14 -11q8 -41 58 -41q52 0 75 41q6 11 17 11h62q12 0 10 -11q-11 -59 -63 -99t-116 -40zM45 202q0 57 20.5 168t46.5 163q77 159 272 159q84 0 139.5 -39.5t74.5 -105.5q3 -11 -7 -16l-131 -52q-10 -3 -15 5
q-23 57 -82 57q-66 0 -97 -65q-14 -28 -32 -123.5t-18 -134.5q0 -36 20.5 -57.5t57.5 -21.5q72 0 99 58q10 25 14 48q0 6 -6 6h-70q-9 0 -7 10l19 108q2 10 11 10h235q9 0 7 -10l-8 -50q-20 -118 -49 -174q-41 -82 -106.5 -119.5t-160.5 -37.5q-105 0 -166 55.5t-61 158.5z
" />
    <glyph glyph-name="gbreve" unicode="&#x11f;" horiz-adv-x="530" 
d="M176 -192q-59 0 -108 23t-73 60q-6 9 3 16l88 74q9 7 17 1q38 -40 85 -40q44 0 68.5 24t33.5 77l8 40h-1q-43 -58 -128 -58q-68 0 -102 40t-34 113q0 48 12 109t31 100q54 112 172 112q86 0 110 -60h1l7 38q2 10 12 10h140q10 0 8 -10l-70 -411q-24 -139 -91 -198.5
t-189 -59.5zM246 156q42 0 63 43q23 43 23 108q0 59 -50 59q-42 0 -63 -43q-23 -46 -23 -109q0 -58 50 -58zM315 540q-66 0 -103 39t-29 99q2 12 13 12h62q11 0 14 -11q8 -41 58 -41q52 0 75 41q5 11 17 11h62q12 0 10 -11q-11 -59 -63 -99t-116 -40z" />
    <glyph glyph-name="Gdotaccent" unicode="&#x120;" horiz-adv-x="600" 
d="M454 752h-133q-10 0 -8 10l19 107q2 10 11 10h133q10 0 8 -10l-19 -107q-2 -10 -11 -10zM45 202q0 57 20.5 168t46.5 163q77 159 272 159q84 0 139.5 -39.5t74.5 -105.5q3 -11 -7 -16l-131 -52q-10 -3 -15 5q-23 57 -82 57q-66 0 -97 -65q-14 -28 -32 -123.5t-18 -134.5
q0 -36 20.5 -57.5t57.5 -21.5q72 0 99 58q10 25 14 48q0 6 -6 6h-70q-9 0 -7 10l19 108q2 10 11 10h235q9 0 7 -10l-8 -50q-20 -118 -49 -174q-41 -82 -106.5 -119.5t-160.5 -37.5q-105 0 -166 55.5t-61 158.5z" />
    <glyph glyph-name="gdotaccent" unicode="&#x121;" horiz-adv-x="530" 
d="M176 -192q-59 0 -108 23t-73 60q-6 9 3 16l88 74q9 7 17 1q38 -40 85 -40q44 0 68.5 24t33.5 77l8 40h-1q-43 -58 -128 -58q-68 0 -102 40t-34 113q0 48 12 109t31 100q54 112 172 112q86 0 110 -60h1l7 38q2 10 12 10h140q10 0 8 -10l-70 -411q-24 -139 -91 -198.5
t-189 -59.5zM246 156q42 0 63 43q23 43 23 108q0 59 -50 59q-42 0 -63 -43q-23 -46 -23 -109q0 -58 50 -58zM387 553h-134q-10 0 -8 10l20 107q2 10 11 10h133q10 0 8 -10l-19 -107q-2 -10 -11 -10z" />
    <glyph glyph-name="Gcommaaccent" unicode="&#x122;" horiz-adv-x="600" 
d="M166 -244q-11 0 -9 11l31 177q2 10 11 10h115q11 0 9 -10l-15 -87q-3 -15 -13 -21l-112 -73q-11 -7 -17 -7zM45 202q0 57 20.5 168t46.5 163q77 159 272 159q84 0 139.5 -39.5t74.5 -105.5q3 -11 -7 -16l-131 -52q-10 -3 -15 5q-23 57 -82 57q-66 0 -97 -65
q-14 -28 -32 -123.5t-18 -134.5q0 -36 20.5 -57.5t57.5 -21.5q72 0 99 58q10 25 14 48q0 6 -6 6h-70q-9 0 -7 10l19 108q2 10 11 10h235q9 0 7 -10l-8 -50q-20 -118 -49 -174q-41 -82 -106.5 -119.5t-160.5 -37.5q-105 0 -166 55.5t-61 158.5z" />
    <glyph glyph-name="gcommaaccent" unicode="&#x123;" horiz-adv-x="530" 
d="M374 550h-115q-10 0 -8 10l14 87q3 14 14 21l111 73q13 8 17 8q11 0 9 -13l-30 -176q-2 -10 -12 -10zM176 -192q-59 0 -108 23t-73 60q-6 9 3 16l88 74q9 7 17 1q38 -40 85 -40q44 0 68.5 24t33.5 77l8 40h-1q-43 -58 -128 -58q-68 0 -102 40t-34 113q0 48 12 109t31 100
q54 112 172 112q86 0 110 -60h1l7 38q2 10 12 10h140q10 0 8 -10l-70 -411q-24 -139 -91 -198.5t-189 -59.5zM246 156q42 0 63 43q23 43 23 108q0 59 -50 59q-42 0 -63 -43q-23 -46 -23 -109q0 -58 50 -58z" />
    <glyph glyph-name="Hcircumflex" unicode="&#x124;" horiz-adv-x="637" 
d="M19 10l117 660q2 10 11 10h150q10 0 8 -10l-43 -244q-2 -6 4 -6h180q6 0 7 6l43 244q2 10 11 10h150q11 0 9 -10l-117 -660q-2 -10 -11 -10h-150q-11 0 -9 10l45 253q2 6 -5 6h-180q-5 0 -6 -6l-45 -253q-2 -10 -10 -10h-150q-11 0 -9 10zM575 742h-87q-12 0 -19 10
l-39 51h-1l-58 -51q-10 -10 -24 -10h-95q-5 0 -6 3t3 7l128 136q9 10 20 10h87q11 0 17 -10l80 -136q2 -4 0.5 -7t-6.5 -3z" />
    <glyph glyph-name="hcircumflex" unicode="&#x125;" horiz-adv-x="540" 
d="M445 0h-143q-10 0 -8 10l49 279q13 75 -44 75q-58 0 -71 -74l-49 -280q-2 -10 -11 -10h-143q-10 0 -8 10l117 660q2 10 11 10h143q10 0 8 -10l-41 -230h1q48 59 130 59q80 0 110 -50t15 -132l-55 -307q-2 -10 -11 -10zM530 742h-87q-12 0 -19 10l-39 51h-1l-58 -51
q-10 -10 -24 -10h-95q-5 0 -6 3t3 7l128 136q9 10 20 10h87q11 0 17 -10l80 -136q2 -4 0 -7t-6 -3z" />
    <glyph glyph-name="Hbar" unicode="&#x126;" horiz-adv-x="637" 
d="M538 0h-150q-11 0 -9 10l44 253q1 6 -5 6h-178q-4 0 -6 -6l-46 -253q-2 -10 -10 -10h-150q-11 0 -9 10l86 486q1 6 -5 6h-28q-11 0 -9 10l15 78q2 10 11 10h28q7 0 8 6l11 64q2 10 11 10h150q10 0 8 -10l-10 -64q-1 -6 4 -6h179q6 0 7 6l11 64q2 10 11 10h150q11 0 9 -10
l-11 -64q-1 -6 4 -6h28q10 0 8 -10l-14 -78q-2 -10 -11 -10h-28q-6 0 -7 -6l-86 -486q-2 -10 -11 -10zM445 420q5 0 7 6l13 70q1 6 -5 6h-178q-6 0 -7 -6l-12 -70q-1 -6 4 -6h178z" />
    <glyph glyph-name="hbar" unicode="&#x127;" horiz-adv-x="540" 
d="M445 0h-143q-10 0 -8 10l49 279q13 75 -44 75q-58 0 -71 -74l-49 -280q-2 -10 -11 -10h-143q-10 0 -8 10l93 527q2 6 -4 6h-18q-9 0 -7 10l14 76q1 10 12 10h16q5 0 7 6l4 25q2 10 11 10h143q10 0 8 -10l-4 -25q-2 -6 5 -6h92q9 0 7 -10l-14 -76q-2 -10 -11 -10h-92
q-5 0 -7 -6l-17 -97h1q48 59 130 59q80 0 110 -50t15 -132l-55 -307q-2 -10 -11 -10z" />
    <glyph glyph-name="Itilde" unicode="&#x128;" horiz-adv-x="276" 
d="M19 10l117 660q2 10 11 10h150q10 0 8 -10l-117 -660q-2 -10 -10 -10h-150q-11 0 -9 10zM305 742q-39 0 -78 24q-29 17 -54 17q-37 0 -78 -32q-4 -3 -7.5 -1.5t-2.5 5.5l14 78q2 13 13 22q43 36 84 36q36 0 78 -24q27 -17 54 -17q37 0 78 32q4 3 7.5 1.5t2.5 -5.5
l-14 -79q-2 -12 -13 -21q-41 -36 -84 -36z" />
    <glyph glyph-name="itilde" unicode="&#x129;" horiz-adv-x="265" 
d="M168 0h-143q-10 0 -8 10l82 467q2 10 11 10h143q10 0 8 -10l-82 -467q-2 -10 -11 -10zM261 548q-37 0 -78 23q-29 18 -54 18q-36 0 -78 -33q-4 -3 -7.5 -1.5t-2.5 6.5l14 78q3 13 13 21q41 36 84 36q37 0 78 -23q29 -18 54 -18q36 0 78 33q4 3 7.5 1.5t2.5 -6.5l-14 -78
q-2 -11 -13 -22q-41 -35 -84 -35z" />
    <glyph glyph-name="Imacron" unicode="&#x12a;" horiz-adv-x="276" 
d="M19 10l117 660q2 10 11 10h150q10 0 8 -10l-117 -660q-2 -10 -10 -10h-150q-11 0 -9 10zM380 763h-291q-10 0 -8 10l15 87q2 10 11 10h291q10 0 8 -10l-15 -87q-2 -10 -11 -10z" />
    <glyph glyph-name="imacron" unicode="&#x12b;" horiz-adv-x="265" 
d="M168 0h-143q-10 0 -8 10l82 467q2 10 11 10h143q10 0 8 -10l-82 -467q-2 -10 -11 -10zM338 566h-291q-10 0 -8 10l15 87q2 10 11 10h291q10 0 8 -10l-15 -87q-2 -10 -11 -10z" />
    <glyph glyph-name="Ibreve" unicode="&#x12c;" horiz-adv-x="276" 
d="M19 10l117 660q2 10 11 10h150q10 0 8 -10l-117 -660q-2 -10 -10 -10h-150q-11 0 -9 10zM234 735q-66 0 -103 39t-29 99q2 12 13 12h62q11 0 14 -11q8 -41 58 -41q52 0 75 41q6 11 17 11h62q12 0 10 -11q-11 -59 -63 -99t-116 -40z" />
    <glyph glyph-name="ibreve" unicode="&#x12d;" horiz-adv-x="265" 
d="M168 0h-143q-10 0 -8 10l82 467q2 10 11 10h143q10 0 8 -10l-82 -467q-2 -10 -11 -10zM189 540q-66 0 -103 39t-29 99q2 12 13 12h62q11 0 14 -11q8 -41 58 -41q52 0 75 41q5 11 17 11h62q12 0 10 -11q-11 -59 -63 -99t-116 -40z" />
    <glyph glyph-name="Iogonek" unicode="&#x12e;" horiz-adv-x="276" 
d="M61 -190q-43 0 -67.5 21t-24.5 57q0 59 67 112h-9q-10 0 -8 10l117 660q2 10 11 10h150q10 0 8 -10l-117 -659q-1 -8 -8 -11q-52 -26 -70 -41.5t-18 -29.5q0 -13 14 -13q10 0 24 8q10 6 13 -3l24 -68q3 -9 -5 -13q-49 -30 -101 -30z" />
    <glyph glyph-name="iogonek" unicode="&#x12f;" horiz-adv-x="265" 
d="M265 553h-143q-10 0 -8 10l19 107q2 10 11 10h143q10 0 8 -10l-19 -107q-2 -10 -11 -10zM54 -190q-42 0 -67 21.5t-25 56.5q0 60 67 112h-6q-8 0 -6 10l82 467q2 10 11 10h143q10 0 8 -10l-82 -467q-1 -7 -10 -12q-83 -42 -83 -69q0 -13 13 -13q9 0 25 8q9 5 12 -3
l25 -68q3 -9 -5 -13q-49 -30 -102 -30z" />
    <glyph glyph-name="Idotaccent" unicode="&#x130;" horiz-adv-x="276" 
d="M19 10l117 660q2 10 11 10h150q10 0 8 -10l-117 -660q-2 -10 -10 -10h-150q-11 0 -9 10zM300 752h-133q-10 0 -8 10l19 107q2 10 11 10h133q10 0 8 -10l-19 -107q-2 -10 -11 -10z" />
    <glyph glyph-name="dotlessi" unicode="&#x131;" horiz-adv-x="265" 
d="M168 0h-143q-10 0 -8 10l82 467q2 10 11 10h143q10 0 8 -10l-82 -467q-2 -10 -11 -10z" />
    <glyph glyph-name="Jcircumflex" unicode="&#x134;" horiz-adv-x="506" 
d="M-10 84q-2 9 4 14l118 80q8 5 13 -1q27 -37 68 -37t65 24.5t34 78.5l76 427q2 10 11 10h151q11 0 9 -10l-74 -414q-25 -139 -97 -203.5t-194 -64.5q-63 0 -114 27.5t-70 68.5zM629 742h-87q-12 0 -19 10l-39 51h-1l-58 -51q-10 -10 -24 -10h-95q-5 0 -6 3t3 7l128 136
q9 10 20 10h87q11 0 17 -10l80 -136q2 -4 0.5 -7t-6.5 -3z" />
    <glyph glyph-name="jcircumflex" unicode="&#x135;" horiz-adv-x="265" 
d="M-46 -180h-36q-10 0 -7 10l20 113q2 10 11 10h13q30 0 43 11.5t19 44.5l82 468q2 10 11 10h143q10 0 8 -10l-82 -468q-19 -110 -68.5 -149.5t-156.5 -39.5zM350 545h-87q-13 0 -20 10l-38 52h-2l-57 -52q-11 -10 -24 -10h-95q-5 0 -6 3t2 7l129 137q8 9 20 9h87
q12 0 17 -9l80 -137q2 -4 0 -7t-6 -3z" />
    <glyph glyph-name="Kcommaaccent" unicode="&#x136;" horiz-adv-x="626" 
d="M192 -244q-11 0 -9 11l31 177q2 10 11 10h115q11 0 9 -10l-15 -87q-3 -15 -13 -21l-112 -73q-11 -7 -17 -7zM19 10l117 660q2 10 11 10h150q10 0 8 -10l-46 -257l226 258q9 9 18 9h178q6 0 7.5 -4t-2.5 -9l-248 -266l135 -390q4 -11 -8 -11h-156q-12 0 -15 9l-84 268
l-94 -107l-28 -160q-2 -10 -10 -10h-150q-11 0 -9 10z" />
    <glyph glyph-name="kcommaaccent" unicode="&#x137;" horiz-adv-x="524" 
d="M148 -244q-11 0 -9 11l31 177q2 10 11 10h115q11 0 9 -10l-15 -87q-3 -15 -13 -21l-112 -73q-11 -7 -17 -7zM471 0h-148q-10 0 -13 10l-60 196l-47 -54l-25 -142q-2 -10 -11 -10h-142q-10 0 -8 10l115 660q2 10 10 10h143q10 0 8 -10l-59 -340l133 148q8 9 20 9h149
q4 0 5.5 -3t-1.5 -7l-166 -174l103 -293q4 -10 -6 -10z" />
    <glyph glyph-name="kgreenlandic" unicode="&#x138;" horiz-adv-x="524" 
d="M471 0h-148q-10 0 -13 10l-60 196l-47 -54l-25 -142q-2 -10 -11 -10h-142q-10 0 -8 10l81 467q2 10 10 10h143q11 0 9 -10l-26 -147l132 148q9 9 21 9h149q4 0 5.5 -3t-1.5 -7l-166 -174l103 -293q4 -10 -6 -10z" />
    <glyph glyph-name="Lacute" unicode="&#x139;" horiz-adv-x="519" 
d="M295 747h-109q-4 0 -5.5 3t1.5 7l119 122q10 10 22 10h135q5 0 6.5 -3t-2.5 -7l-145 -122q-11 -10 -22 -10zM19 10l117 660q2 10 11 10h150q10 0 8 -10l-90 -513q-1 -6 4 -6h258q10 0 8 -10l-23 -131q-2 -10 -11 -10h-423q-11 0 -9 10z" />
    <glyph glyph-name="lacute" unicode="&#x13a;" horiz-adv-x="305" 
d="M283 747h-109q-4 0 -5.5 3t1.5 7l119 122q10 10 22 10h135q5 0 6.5 -3t-2.5 -7l-145 -122q-11 -10 -22 -10zM232 -6h-58q-90 0 -119 39t-14 129l92 508q2 10 10 10h143q11 0 9 -10l-90 -493q-4 -25 3.5 -36t28.5 -11h19q10 0 8 -10l-20 -116q-2 -10 -12 -10z" />
    <glyph glyph-name="Lcommaaccent" unicode="&#x13b;" horiz-adv-x="519" 
d="M165 -244q-11 0 -9 11l31 177q2 10 11 10h115q11 0 9 -10l-15 -87q-3 -15 -13 -21l-112 -73q-11 -7 -17 -7zM19 10l117 660q2 10 11 10h150q10 0 8 -10l-90 -513q-1 -6 4 -6h258q10 0 8 -10l-23 -131q-2 -10 -11 -10h-423q-11 0 -9 10z" />
    <glyph glyph-name="lcommaaccent" unicode="&#x13c;" horiz-adv-x="305" 
d="M44 -244q-11 0 -9 11l31 177q2 10 11 10h115q11 0 9 -10l-15 -87q-3 -15 -13 -21l-112 -73q-11 -7 -17 -7zM232 -6h-58q-90 0 -119 39t-14 129l92 508q2 10 10 10h143q11 0 9 -10l-90 -493q-4 -25 3.5 -36t28.5 -11h19q10 0 8 -10l-20 -116q-2 -10 -12 -10z" />
    <glyph glyph-name="Lcaron" unicode="&#x13d;" horiz-adv-x="519" 
d="M335 476q-12 0 -10 12l32 182q2 10 11 10h105q11 0 9 -10l-17 -92q-1 -14 -12 -21l-102 -74q-10 -7 -16 -7zM19 10l117 660q2 10 11 10h150q10 0 8 -10l-90 -513q-1 -6 4 -6h258q10 0 8 -10l-23 -131q-2 -10 -11 -10h-423q-11 0 -9 10z" />
    <glyph glyph-name="lcaron" unicode="&#x13e;" horiz-adv-x="305" 
d="M309 476q-12 0 -10 12l32 182q2 10 11 10h105q11 0 9 -10l-17 -92q-1 -14 -12 -21l-102 -74q-10 -7 -16 -7zM232 -6h-58q-90 0 -119 39t-14 129l92 508q2 10 10 10h143q11 0 9 -10l-90 -493q-4 -25 3.5 -36t28.5 -11h19q10 0 8 -10l-20 -116q-2 -10 -12 -10z" />
    <glyph glyph-name="Ldot" unicode="&#x13f;" horiz-adv-x="519" 
d="M19 10l117 660q2 10 11 10h150q10 0 8 -10l-90 -513q-1 -6 4 -6h258q10 0 8 -10l-23 -131q-2 -10 -11 -10h-423q-11 0 -9 10zM483 248h-133q-11 0 -9 10l23 134q2 10 11 10h134q11 0 9 -10l-24 -134q-2 -10 -11 -10z" />
    <glyph glyph-name="ldot" unicode="&#x140;" horiz-adv-x="402" 
d="M232 -6h-58q-90 0 -119 39t-14 129l92 508q2 10 10 10h143q11 0 9 -10l-90 -493q-4 -25 3.5 -36t28.5 -11h19q10 0 8 -10l-20 -116q-2 -10 -12 -10zM408 253h-133q-11 0 -9 10l23 134q2 10 11 10h134q11 0 9 -10l-24 -134q-2 -10 -11 -10z" />
    <glyph glyph-name="Lslash" unicode="&#x141;" horiz-adv-x="519" 
d="M381 390l-136 -65l-30 -168q-1 -6 4 -6h258q10 0 8 -10l-23 -131q-2 -10 -11 -10h-423q-11 0 -9 10l42 233l-44 -21q-4 -2 -6.5 0t-1.5 6l19 103q2 10 11 14l43 21l54 304q2 10 11 10h150q10 0 8 -10l-39 -222l136 65q4 2 7 0.5t2 -6.5l-19 -103q-2 -10 -11 -14z" />
    <glyph glyph-name="lslash" unicode="&#x142;" horiz-adv-x="305" 
d="M232 -6h-58q-90 0 -119 39t-14 129l16 88l-34 -16q-4 -2 -7 0t-2 7l18 99q2 10 12 14l35 17l54 299q2 10 10 10h143q11 0 9 -10l-40 -220l64 31q4 2 7 0t2 -7l-18 -99q-2 -10 -12 -14l-65 -31l-28 -153q-4 -25 3.5 -36t28.5 -11h19q10 0 8 -10l-20 -116q-2 -10 -12 -10z
" />
    <glyph glyph-name="Nacute" unicode="&#x143;" horiz-adv-x="631" 
d="M440 747h-109q-5 0 -6 3t2 7l119 122q10 10 22 10h135q5 0 6.5 -3t-2.5 -7l-145 -122q-11 -10 -22 -10zM19 10l117 660q2 10 11 10h142q11 0 15 -10l128 -394h4l70 394q2 10 11 10h134q11 0 9 -10l-117 -660q-2 -10 -11 -10h-143q-11 0 -14 10l-128 394h-5l-70 -394
q-2 -10 -10 -10h-134q-11 0 -9 10z" />
    <glyph glyph-name="nacute" unicode="&#x144;" horiz-adv-x="540" 
d="M356 546h-110q-4 0 -5.5 3t1.5 7l101 136q7 10 19 10h134q5 0 6 -3t-3 -7l-123 -136q-10 -10 -20 -10zM445 0h-143q-10 0 -8 10l49 279q13 75 -44 75q-58 0 -71 -74l-49 -280q-2 -10 -11 -10h-143q-10 0 -8 10l82 467q2 10 11 10h143q10 0 8 -10l-6 -37h1q48 59 130 59
q80 0 110 -49.5t15 -131.5l-55 -308q-2 -10 -11 -10z" />
    <glyph glyph-name="Ncommaaccent" unicode="&#x145;" horiz-adv-x="631" 
d="M205 -244q-11 0 -9 11l31 177q2 10 11 10h115q11 0 9 -10l-15 -87q-3 -15 -13 -21l-112 -73q-11 -7 -17 -7zM19 10l117 660q2 10 11 10h142q11 0 15 -10l128 -394h4l70 394q2 10 11 10h134q11 0 9 -10l-117 -660q-2 -10 -11 -10h-143q-11 0 -14 10l-128 394h-5l-70 -394
q-2 -10 -10 -10h-134q-11 0 -9 10z" />
    <glyph glyph-name="ncommaaccent" unicode="&#x146;" horiz-adv-x="540" 
d="M138 -244q-11 0 -9 11l31 177q2 10 11 10h115q11 0 9 -10l-15 -87q-3 -15 -13 -21l-112 -73q-11 -7 -17 -7zM445 0h-143q-10 0 -8 10l49 279q13 75 -44 75q-58 0 -71 -74l-49 -280q-2 -10 -11 -10h-143q-10 0 -8 10l82 467q2 10 11 10h143q10 0 8 -10l-6 -37h1
q48 59 130 59q80 0 110 -49.5t15 -131.5l-55 -308q-2 -10 -11 -10z" />
    <glyph glyph-name="Ncaron" unicode="&#x147;" horiz-adv-x="631" 
d="M447 736h-86q-12 0 -18 10l-80 136q-2 4 -0.5 7t6.5 3h87q12 0 20 -10l38 -51h2l57 51q10 10 24 10h95q4 0 5.5 -3t-1.5 -7l-129 -136q-9 -10 -20 -10zM19 10l117 660q2 10 11 10h142q11 0 15 -10l128 -394h4l70 394q2 10 11 10h134q11 0 9 -10l-117 -660q-2 -10 -11 -10
h-143q-11 0 -14 10l-128 394h-5l-70 -394q-2 -10 -10 -10h-134q-11 0 -9 10z" />
    <glyph glyph-name="ncaron" unicode="&#x148;" horiz-adv-x="540" 
d="M368 542h-87q-11 0 -17 10l-80 136q-2 4 0 7t6 3h87q13 0 20 -10l38 -51h2l57 51q10 10 24 10h95q5 0 6 -3t-2 -7l-129 -136q-9 -10 -20 -10zM445 0h-143q-10 0 -8 10l49 279q13 75 -44 75q-58 0 -71 -74l-49 -280q-2 -10 -11 -10h-143q-10 0 -8 10l82 467q2 10 11 10
h143q10 0 8 -10l-6 -37h1q48 59 130 59q80 0 110 -49.5t15 -131.5l-55 -308q-2 -10 -11 -10z" />
    <glyph glyph-name="Eng" unicode="&#x14a;" horiz-adv-x="631" 
d="M293 -187h-36q-10 0 -8 10l22 121q2 10 11 10h14q64 0 80 48l1 4l-130 398h-5l-70 -394q-2 -10 -10 -10h-135q-10 0 -8 10l117 660q2 10 10 10h143q11 0 15 -10l128 -394h4l70 394q2 10 11 10h134q11 0 9 -10l-113 -638q-21 -112 -84 -165.5t-170 -53.5z" />
    <glyph glyph-name="eng" unicode="&#x14b;" horiz-adv-x="540" 
d="M235 -180h-36q-10 0 -8 10l20 113q2 10 11 10h14q27 0 39.5 11t17.5 43l50 282q13 75 -44 75q-58 0 -71 -74l-49 -280q-2 -10 -11 -10h-143q-10 0 -8 10l82 467q2 10 11 10h143q10 0 8 -10l-6 -37h1q48 59 130 59q80 0 109.5 -49.5t15.5 -131.5l-55 -309
q-18 -102 -70.5 -145.5t-150.5 -43.5z" />
    <glyph glyph-name="Omacron" unicode="&#x14c;" horiz-adv-x="604" 
d="M542 763h-291q-10 0 -8 10l15 87q2 10 11 10h291q10 0 8 -10l-15 -87q-2 -10 -11 -10zM271 -12q-104 0 -165 55t-61 159q0 57 20.5 168t46.5 163q77 159 269 159q104 0 165 -55t61 -159q0 -57 -20.5 -168t-46.5 -163q-79 -159 -269 -159zM291 139q65 0 96 65
q14 28 31.5 123t17.5 135q0 37 -19.5 58t-55.5 21q-65 0 -96 -65q-14 -28 -31.5 -123t-17.5 -135q0 -37 19.5 -58t55.5 -21z" />
    <glyph glyph-name="omacron" unicode="&#x14d;" horiz-adv-x="514" 
d="M452 566h-291q-10 0 -8 10l15 87q2 10 11 10h291q10 0 8 -10l-15 -87q-2 -10 -11 -10zM221 -12q-88 0 -140 47t-52 134q0 114 40 195q67 135 236 135q88 0 140 -47t52 -134q0 -114 -40 -195q-67 -135 -236 -135zM241 121q43 0 66 44q10 21 19.5 70t9.5 72q0 59 -51 59
q-43 0 -66 -44q-10 -21 -19.5 -70t-9.5 -72q0 -59 51 -59z" />
    <glyph glyph-name="Obreve" unicode="&#x14e;" horiz-adv-x="604" 
d="M389 735q-66 0 -103 39t-29 99q2 12 13 12h62q11 0 14 -11q8 -41 58 -41q52 0 75 41q5 11 17 11h62q12 0 10 -11q-11 -59 -63 -99t-116 -40zM271 -12q-104 0 -165 55t-61 159q0 57 20.5 168t46.5 163q77 159 269 159q104 0 165 -55t61 -159q0 -57 -20.5 -168t-46.5 -163
q-79 -159 -269 -159zM291 139q65 0 96 65q14 28 31.5 123t17.5 135q0 37 -19.5 58t-55.5 21q-65 0 -96 -65q-14 -28 -31.5 -123t-17.5 -135q0 -37 19.5 -58t55.5 -21z" />
    <glyph glyph-name="obreve" unicode="&#x14f;" horiz-adv-x="514" 
d="M221 -12q-88 0 -140 47t-52 134q0 114 40 195q67 135 236 135q88 0 140 -47t52 -134q0 -114 -40 -195q-67 -135 -236 -135zM241 121q43 0 66 44q10 21 19.5 70t9.5 72q0 59 -51 59q-43 0 -66 -44q-10 -21 -19.5 -70t-9.5 -72q0 -59 51 -59zM310 540q-66 0 -103 39t-29 99
q2 12 13 12h62q11 0 14 -11q8 -41 58 -41q52 0 75 41q6 11 17 11h62q12 0 10 -11q-11 -59 -63 -99t-116 -40z" />
    <glyph glyph-name="Ohungarumlaut" unicode="&#x150;" horiz-adv-x="604" 
d="M271 -12q-104 0 -165 55t-61 159q0 57 20.5 168t46.5 163q77 159 269 159q104 0 165 -55t61 -159q0 -57 -20.5 -168t-46.5 -163q-79 -159 -269 -159zM291 139q65 0 96 65q14 28 31.5 123t17.5 135q0 37 -19.5 58t-55.5 21q-65 0 -96 -65q-14 -28 -31.5 -123t-17.5 -135
q0 -37 19.5 -58t55.5 -21zM516 748h-91q-5 0 -6.5 3t1.5 7l94 118q6 10 18 10h108q5 0 6.5 -3t-1.5 -7l-108 -118q-9 -10 -21 -10zM338 748h-92q-4 0 -5.5 3t1.5 7l94 118q6 10 18 10h108q5 0 6.5 -3t-1.5 -7l-108 -118q-9 -10 -21 -10z" />
    <glyph glyph-name="ohungarumlaut" unicode="&#x151;" horiz-adv-x="514" 
d="M438 544h-93q-11 0 -4 10l91 136q7 10 18 10h108q5 0 6.5 -3t-1.5 -7l-106 -136q-6 -10 -19 -10zM261 544h-93q-11 0 -4 10l91 136q7 10 18 10h108q5 0 6.5 -3t-1.5 -7l-106 -136q-8 -10 -19 -10zM221 -12q-88 0 -140 47t-52 134q0 114 40 195q67 135 236 135
q88 0 140 -47t52 -134q0 -114 -40 -195q-67 -135 -236 -135zM241 121q43 0 66 44q10 21 19.5 70t9.5 72q0 59 -51 59q-43 0 -66 -44q-10 -21 -19.5 -70t-9.5 -72q0 -59 51 -59z" />
    <glyph glyph-name="OE" unicode="&#x152;" horiz-adv-x="881" 
d="M799 0h-429q-10 0 -8 10l4 22h-2q-47 -44 -124 -44q-94 0 -144.5 54.5t-50.5 159.5q0 57 20.5 168t46.5 163q79 159 249 159q80 0 112 -44h2l4 22q2 10 10 10h430q10 0 8 -10l-22 -124q-2 -10 -11 -10h-265q-6 0 -6 -6l-20 -110q-1 -6 5 -6h216q10 0 8 -10l-21 -122
q-2 -10 -12 -10h-216q-5 0 -7 -6l-21 -116q0 -6 5 -6h264q10 0 8 -10l-22 -124q-2 -10 -11 -10zM291 139q65 0 96 65q14 28 31.5 123t17.5 135q0 37 -19.5 58t-54.5 21q-65 0 -96 -65q-14 -28 -31.5 -123t-17.5 -135q0 -37 19.5 -58t54.5 -21z" />
    <glyph glyph-name="oe" unicode="&#x153;" horiz-adv-x="806" 
d="M521 -12q-96 0 -145 55h-2q-66 -55 -154 -55q-87 0 -139 47t-52 134q0 114 40 195q67 135 236 135q91 0 139 -55h2q60 55 152 55q86 0 138.5 -45.5t52.5 -127.5q0 -38 -14 -119q-2 -10 -12 -10h-280q-5 0 -7 -6q-1 -4 -1 -12q0 -67 83 -67q56 0 112 43q9 5 15 -1l54 -70
q7 -9 -1 -16q-90 -80 -217 -80zM501 296h128q5 0 7 6q3 12 3 23q0 58 -59 58q-52 0 -74 -46q-7 -13 -10 -35q0 -6 5 -6zM241 121q43 0 66 44q10 21 19.5 70t9.5 72q0 59 -51 59q-43 0 -66 -44q-10 -21 -19.5 -70t-9.5 -72q0 -59 51 -59z" />
    <glyph glyph-name="Racute" unicode="&#x154;" horiz-adv-x="605" 
d="M534 0h-149q-10 0 -13 10l-59 235h-77q-6 0 -7 -6l-41 -229q-2 -10 -11 -10h-150q-10 0 -8 10l117 660q2 10 10 10h267q97 0 150.5 -48t53.5 -127q0 -82 -39.5 -142t-108.5 -91l73 -260q2 -12 -8 -12zM350 385q41 1 67.5 26t26.5 68q0 27 -17.5 42t-49.5 15h-90
q-5 0 -7 -6l-25 -139q-1 -6 5 -6h90zM397 747h-109q-4 0 -5.5 3t1.5 7l119 122q10 10 22 10h135q5 0 6.5 -3t-2.5 -7l-145 -122q-11 -10 -22 -10z" />
    <glyph glyph-name="racute" unicode="&#x155;" horiz-adv-x="415" 
d="M320 546h-110q-4 0 -5.5 3t1.5 7l101 136q7 10 19 10h134q5 0 6 -3t-3 -7l-123 -136q-10 -10 -20 -10zM168 0h-143q-10 0 -8 10l82 467q2 10 11 10h143q10 0 8 -10l-8 -44h1q46 66 133 66q39 0 60 -18q8 -5 4 -14l-77 -135q-6 -8 -15 -2q-31 21 -59 21q-61 0 -77 -91
l-44 -250q-2 -10 -11 -10z" />
    <glyph glyph-name="Rcommaaccent" unicode="&#x156;" horiz-adv-x="605" 
d="M180 -244q-11 0 -9 11l31 177q2 10 11 10h115q11 0 9 -10l-15 -87q-3 -15 -13 -21l-112 -73q-11 -7 -17 -7zM534 0h-149q-10 0 -13 10l-59 235h-77q-6 0 -7 -6l-41 -229q-2 -10 -11 -10h-150q-10 0 -8 10l117 660q2 10 10 10h267q97 0 150.5 -48t53.5 -127
q0 -82 -39.5 -142t-108.5 -91l73 -260q2 -12 -8 -12zM350 385q41 1 67.5 26t26.5 68q0 27 -17.5 42t-49.5 15h-90q-5 0 -7 -6l-25 -139q-1 -6 5 -6h90z" />
    <glyph glyph-name="rcommaaccent" unicode="&#x157;" horiz-adv-x="415" 
d="M2 -244q-11 0 -9 11l31 177q2 10 11 10h115q11 0 9 -10l-15 -87q-3 -15 -13 -21l-112 -73q-11 -7 -17 -7zM168 0h-143q-10 0 -8 10l82 467q2 10 11 10h143q10 0 8 -10l-8 -44h1q46 66 133 66q39 0 60 -18q8 -5 4 -14l-77 -135q-6 -8 -15 -2q-31 21 -59 21q-61 0 -77 -91
l-44 -250q-2 -10 -11 -10z" />
    <glyph glyph-name="Rcaron" unicode="&#x158;" horiz-adv-x="605" 
d="M402 736h-86q-12 0 -18 10l-80 136q-2 4 0 7t6 3h87q13 0 20 -10l38 -51h2l57 51q10 10 24 10h95q5 0 6 -3t-2 -7l-129 -136q-9 -10 -20 -10zM534 0h-149q-10 0 -13 10l-59 235h-77q-6 0 -7 -6l-41 -229q-2 -10 -11 -10h-150q-10 0 -8 10l117 660q2 10 10 10h267
q97 0 150.5 -48t53.5 -127q0 -82 -39.5 -142t-108.5 -91l73 -260q2 -12 -8 -12zM350 385q41 1 67.5 26t26.5 68q0 27 -17.5 42t-49.5 15h-90q-5 0 -7 -6l-25 -139q-1 -6 5 -6h90z" />
    <glyph glyph-name="rcaron" unicode="&#x159;" horiz-adv-x="415" 
d="M336 542h-87q-11 0 -17 10l-80 136q-2 4 0 7t6 3h87q13 0 20 -10l38 -51h2l57 51q10 10 24 10h95q5 0 6 -3t-2 -7l-129 -136q-9 -10 -20 -10zM168 0h-143q-10 0 -8 10l82 467q2 10 11 10h143q10 0 8 -10l-8 -44h1q46 66 133 66q39 0 60 -18q8 -5 4 -14l-77 -135
q-6 -8 -15 -2q-31 21 -59 21q-61 0 -77 -91l-44 -250q-2 -10 -11 -10z" />
    <glyph glyph-name="Sacute" unicode="&#x15a;" horiz-adv-x="584" 
d="M253 -12q-77 0 -149 28.5t-105 68.5q-7 9 2 17l102 98q9 9 15 1q26 -28 67 -46.5t87 -18.5q49 0 78 22t29 56q0 21 -16 33.5t-56 18.5l-34 5q-91 13 -139 57t-48 116q0 111 77 179.5t203 68.5q137 0 225 -76q8 -6 -1 -15l-88 -101q-8 -8 -15 -3q-62 48 -136 48
q-38 0 -63 -20t-25 -50q0 -42 74 -52l33 -5q187 -28 187 -171q0 -120 -83.5 -189.5t-220.5 -69.5zM407 747h-109q-4 0 -5.5 3t1.5 7l119 122q10 10 22 10h135q5 0 6.5 -3t-2.5 -7l-145 -122q-11 -10 -22 -10z" />
    <glyph glyph-name="sacute" unicode="&#x15b;" horiz-adv-x="498" 
d="M334 546h-110q-4 0 -5.5 3t1.5 7l101 136q7 10 19 10h134q5 0 6 -3t-3 -7l-123 -136q-10 -10 -20 -10zM218 -12q-135 0 -216 77q-7 7 1 15l80 79q7 7 15 0q69 -51 143 -51q31 0 50 13.5t19 30.5q0 25 -52 30l-52 6q-66 7 -102 39t-36 84q0 88 62.5 138t166.5 50
q61 0 111.5 -18t81.5 -45q6 -6 -1 -15l-72 -75q-7 -7 -14 -2q-58 38 -123 38q-27 0 -43 -11.5t-16 -27.5q0 -23 47 -28l52 -6q146 -15 146 -124q0 -89 -66.5 -143t-181.5 -54z" />
    <glyph glyph-name="Scircumflex" unicode="&#x15c;" horiz-adv-x="584" 
d="M253 -12q-77 0 -149 28.5t-105 68.5q-7 9 2 17l102 98q9 9 15 1q26 -28 67 -46.5t87 -18.5q49 0 78 22t29 56q0 21 -16 33.5t-56 18.5l-34 5q-91 13 -139 57t-48 116q0 111 77 179.5t203 68.5q137 0 225 -76q8 -6 -1 -15l-88 -101q-8 -8 -15 -3q-62 48 -136 48
q-38 0 -63 -20t-25 -50q0 -42 74 -52l33 -5q187 -28 187 -171q0 -120 -83.5 -189.5t-220.5 -69.5zM531 742h-87q-12 0 -19 10l-39 51h-1l-58 -51q-10 -10 -24 -10h-95q-5 0 -6 3t3 7l128 136q9 10 20 10h87q11 0 17 -10l80 -136q2 -4 0.5 -7t-6.5 -3z" />
    <glyph glyph-name="scircumflex" unicode="&#x15d;" horiz-adv-x="498" 
d="M460 545h-87q-13 0 -20 10l-38 52h-2l-57 -52q-11 -10 -24 -10h-95q-5 0 -6 3t2 7l129 137q8 9 20 9h87q12 0 17 -9l80 -137q2 -4 0 -7t-6 -3zM218 -12q-135 0 -216 77q-7 7 1 15l80 79q7 7 15 0q69 -51 143 -51q31 0 50 13.5t19 30.5q0 25 -52 30l-52 6q-66 7 -102 39
t-36 84q0 88 62.5 138t166.5 50q61 0 111.5 -18t81.5 -45q6 -6 -1 -15l-72 -75q-7 -7 -14 -2q-58 38 -123 38q-27 0 -43 -11.5t-16 -27.5q0 -23 47 -28l52 -6q146 -15 146 -124q0 -89 -66.5 -143t-181.5 -54z" />
    <glyph glyph-name="Scedilla" unicode="&#x15e;" horiz-adv-x="584" 
d="M235 -165h-111q-10 0 -5 10l83 147q-65 8 -120.5 34t-82.5 59q-7 9 2 17l102 98q9 9 15 1q26 -28 67 -46.5t87 -18.5q49 0 78 22t29 56q0 21 -16 33.5t-56 18.5l-34 5q-91 13 -139 57t-48 116q0 111 77 179.5t203 68.5q137 0 225 -76q8 -6 -1 -15l-88 -101q-8 -8 -15 -3
q-62 48 -136 48q-38 0 -63 -20t-25 -50q0 -42 74 -52l33 -5q187 -28 187 -171q0 -104 -63.5 -170.5t-171.5 -83.5l-70 -148q-4 -10 -17 -10z" />
    <glyph glyph-name="scedilla" unicode="&#x15f;" horiz-adv-x="498" 
d="M200 -165h-111q-10 0 -5 10l83 146q-103 14 -165 74q-7 7 1 15l80 79q7 7 15 0q69 -51 143 -51q31 0 50 13.5t19 30.5q0 25 -52 30l-52 6q-66 7 -102 39t-36 84q0 88 62.5 138t166.5 50q61 0 111.5 -18t81.5 -45q6 -6 -1 -15l-72 -75q-7 -7 -14 -2q-58 38 -123 38
q-27 0 -43 -11.5t-16 -27.5q0 -23 47 -28l52 -6q146 -15 146 -124q0 -74 -47.5 -125t-131.5 -66l-70 -149q-4 -10 -17 -10z" />
    <glyph glyph-name="Scaron" unicode="&#x160;" horiz-adv-x="584" 
d="M253 -12q-77 0 -149 28.5t-105 68.5q-7 9 2 17l102 98q9 9 15 1q26 -28 67 -46.5t87 -18.5q49 0 78 22t29 56q0 21 -16 33.5t-56 18.5l-34 5q-91 13 -139 57t-48 116q0 111 77 179.5t203 68.5q137 0 225 -76q8 -6 -1 -15l-88 -101q-8 -8 -15 -3q-62 48 -136 48
q-38 0 -63 -20t-25 -50q0 -42 74 -52l33 -5q187 -28 187 -171q0 -120 -83.5 -189.5t-220.5 -69.5zM409 736h-86q-12 0 -18 10l-80 136q-2 4 -0.5 7t6.5 3h87q12 0 20 -10l38 -51h2l57 51q10 10 24 10h95q4 0 5.5 -3t-1.5 -7l-129 -136q-9 -10 -20 -10z" />
    <glyph glyph-name="scaron" unicode="&#x161;" horiz-adv-x="498" 
d="M338 542h-87q-11 0 -17 10l-80 136q-2 4 0 7t6 3h87q13 0 20 -10l38 -51h2l57 51q10 10 24 10h95q5 0 6 -3t-2 -7l-129 -136q-9 -10 -20 -10zM218 -12q-135 0 -216 77q-7 7 1 15l80 79q7 7 15 0q69 -51 143 -51q31 0 50 13.5t19 30.5q0 25 -52 30l-52 6q-66 7 -102 39
t-36 84q0 88 62.5 138t166.5 50q61 0 111.5 -18t81.5 -45q6 -6 -1 -15l-72 -75q-7 -7 -14 -2q-58 38 -123 38q-27 0 -43 -11.5t-16 -27.5q0 -23 47 -28l52 -6q146 -15 146 -124q0 -89 -66.5 -143t-181.5 -54z" />
    <glyph glyph-name="Tcommaaccent" unicode="&#x162;" horiz-adv-x="549" 
d="M143 -244q-11 0 -9 11l31 177q2 10 11 10h115q11 0 9 -10l-15 -87q-3 -15 -13 -21l-112 -73q-11 -7 -17 -7zM313 0h-150q-10 0 -8 10l91 513q2 6 -5 6h-161q-11 0 -9 10l24 131q2 10 11 10h504q11 0 9 -10l-23 -131q-2 -10 -12 -10h-162q-6 0 -7 -6l-91 -513
q-2 -10 -11 -10z" />
    <glyph glyph-name="tcommaaccent" unicode="&#x163;" horiz-adv-x="330" 
d="M52 -244q-11 0 -9 11l31 177q2 10 11 10h115q11 0 9 -10l-15 -87q-3 -15 -13 -21l-112 -73q-11 -7 -17 -7zM250 -6h-55q-94 0 -124.5 43t-12.5 139l35 189q1 6 -5 6h-28q-9 0 -7 10l17 96q2 10 11 10h27q6 0 8 6l23 127q2 10 11 10h142q9 0 7 -10l-23 -127q-2 -6 5 -6h60
q10 0 8 -10l-17 -96q-2 -10 -12 -10h-61q-5 0 -6 -6l-34 -182q-6 -30 1.5 -41.5t32.5 -11.5h21q10 0 8 -10l-20 -116q-2 -10 -12 -10z" />
    <glyph glyph-name="Tcaron" unicode="&#x164;" horiz-adv-x="549" 
d="M398 736h-86q-12 0 -18 10l-80 136q-2 4 0 7t6 3h87q13 0 20 -10l38 -51h2l57 51q10 10 24 10h95q5 0 6 -3t-2 -7l-129 -136q-9 -10 -20 -10zM313 0h-150q-10 0 -8 10l91 513q2 6 -5 6h-161q-11 0 -9 10l24 131q2 10 11 10h504q11 0 9 -10l-23 -131q-2 -10 -12 -10h-162
q-6 0 -7 -6l-91 -513q-2 -10 -11 -10z" />
    <glyph glyph-name="tcaron" unicode="&#x165;" horiz-adv-x="330" 
d="M376 476q-12 0 -10 12l32 182q2 10 11 10h105q11 0 9 -10l-17 -92q-2 -14 -12 -21l-102 -74q-10 -7 -16 -7zM250 -6h-55q-94 0 -124.5 43t-12.5 139l35 189q1 6 -5 6h-28q-9 0 -7 10l17 96q2 10 11 10h27q6 0 8 6l23 127q2 10 11 10h142q9 0 7 -10l-23 -127q-2 -6 5 -6
h60q10 0 8 -10l-17 -96q-2 -10 -12 -10h-61q-5 0 -6 -6l-34 -182q-6 -30 1.5 -41.5t32.5 -11.5h21q10 0 8 -10l-20 -116q-2 -10 -12 -10z" />
    <glyph glyph-name="Tbar" unicode="&#x166;" horiz-adv-x="549" 
d="M313 0h-150q-10 0 -8 10l50 280q1 6 -5 6h-74q-10 0 -8 10l17 98q2 10 12 10h74q5 0 7 6l18 103q2 6 -5 6h-161q-11 0 -9 10l24 131q2 10 11 10h504q11 0 9 -10l-23 -131q-2 -10 -12 -10h-162q-6 0 -7 -6l-18 -103q-1 -6 5 -6h74q10 0 8 -10l-17 -98q-2 -10 -11 -10h-75
q-5 0 -7 -6l-50 -280q-2 -10 -11 -10z" />
    <glyph glyph-name="tbar" unicode="&#x167;" horiz-adv-x="330" 
d="M250 -6h-55q-95 0 -124.5 43t-12.5 139l9 51q1 6 -5 6h-20q-9 0 -7 10l12 69q2 10 12 10h20q5 0 7 6l7 37q1 6 -5 6h-28q-9 0 -7 10l17 96q2 10 11 10h27q6 0 8 6l23 127q2 10 11 10h142q9 0 7 -10l-23 -127q-2 -6 5 -6h60q10 0 8 -10l-17 -96q-2 -10 -12 -10h-61
q-5 0 -6 -6l-7 -37q-2 -6 4 -6h47q9 0 7 -10l-12 -69q-2 -10 -11 -10h-47q-6 0 -7 -6l-8 -45q-6 -30 1 -41t33 -11h21q10 0 8 -10l-20 -116q-2 -10 -12 -10z" />
    <glyph glyph-name="Utilde" unicode="&#x168;" horiz-adv-x="622" 
d="M472 742q-39 0 -78 24q-29 17 -54 17q-37 0 -78 -32q-4 -3 -7.5 -1.5t-2.5 5.5l14 78q2 13 13 22q43 36 84 36q36 0 78 -24q27 -17 54 -17q37 0 78 32q4 3 7.5 1.5t2.5 -5.5l-14 -79q-2 -12 -13 -21q-41 -36 -84 -36zM287 -12q-128 0 -189.5 71.5t-37.5 204.5l72 406
q2 10 11 10h150q11 0 9 -10l-74 -419q-10 -53 10 -82.5t63 -29.5q44 0 71 26t38 86l74 419q2 10 11 10h151q10 0 8 -10l-73 -412q-26 -144 -98 -207t-196 -63z" />
    <glyph glyph-name="utilde" unicode="&#x169;" horiz-adv-x="538" 
d="M107 487h141q11 0 9 -10l-49 -280q-13 -74 44 -74t70 74l49 280q2 10 11 10h143q10 0 8 -10l-82 -467q-2 -10 -11 -10h-143q-10 0 -8 10l7 37h-1q-51 -59 -132 -59q-78 0 -107.5 48.5t-13.5 133.5l54 307q2 10 11 10zM394 548q-37 0 -78 23q-28 18 -54 18q-36 0 -78 -33
q-4 -3 -7.5 -1.5t-2.5 6.5l14 78q3 13 13 21q41 36 84 36q37 0 78 -23q29 -18 54 -18q36 0 78 33q4 3 7.5 1.5t2.5 -6.5l-14 -78q-2 -11 -13 -22q-41 -35 -84 -35z" />
    <glyph glyph-name="Umacron" unicode="&#x16a;" horiz-adv-x="622" 
d="M558 763h-291q-10 0 -8 10l15 87q2 10 11 10h291q10 0 8 -10l-15 -87q-2 -10 -11 -10zM287 -12q-128 0 -189.5 71.5t-37.5 204.5l72 406q2 10 11 10h150q11 0 9 -10l-74 -419q-10 -53 10 -82.5t63 -29.5q44 0 71 26t38 86l74 419q2 10 11 10h151q10 0 8 -10l-73 -412
q-26 -144 -98 -207t-196 -63z" />
    <glyph glyph-name="umacron" unicode="&#x16b;" horiz-adv-x="538" 
d="M107 487h141q11 0 9 -10l-49 -280q-13 -74 44 -74t70 74l49 280q2 10 11 10h143q10 0 8 -10l-82 -467q-2 -10 -11 -10h-143q-10 0 -8 10l7 37h-1q-51 -59 -132 -59q-78 0 -107.5 48.5t-13.5 133.5l54 307q2 10 11 10zM471 566h-291q-10 0 -8 10l15 87q2 10 11 10h291
q10 0 8 -10l-15 -87q-2 -10 -11 -10z" />
    <glyph glyph-name="Ubreve" unicode="&#x16c;" horiz-adv-x="622" 
d="M404 735q-66 0 -103 39t-29 99q2 12 13 12h62q11 0 14 -11q8 -41 58 -41q52 0 75 41q6 11 17 11h62q12 0 10 -11q-11 -59 -63 -99t-116 -40zM287 -12q-128 0 -189.5 71.5t-37.5 204.5l72 406q2 10 11 10h150q11 0 9 -10l-74 -419q-10 -53 10 -82.5t63 -29.5q44 0 71 26
t38 86l74 419q2 10 11 10h151q10 0 8 -10l-73 -412q-26 -144 -98 -207t-196 -63z" />
    <glyph glyph-name="ubreve" unicode="&#x16d;" horiz-adv-x="538" 
d="M107 487h141q11 0 9 -10l-49 -280q-13 -74 44 -74t70 74l49 280q2 10 11 10h143q10 0 8 -10l-82 -467q-2 -10 -11 -10h-143q-10 0 -8 10l7 37h-1q-51 -59 -132 -59q-78 0 -107.5 48.5t-13.5 133.5l54 307q2 10 11 10zM321 540q-66 0 -103 39t-29 99q2 12 13 12h62
q11 0 14 -11q8 -41 58 -41q52 0 75 41q5 11 17 11h62q12 0 10 -11q-11 -59 -63 -99t-116 -40z" />
    <glyph glyph-name="Uring" unicode="&#x16e;" horiz-adv-x="622" 
d="M287 -12q-128 0 -189.5 71.5t-37.5 204.5l72 406q2 10 11 10h150q11 0 9 -10l-74 -419q-10 -53 10 -82.5t63 -29.5q44 0 71 26t38 86l74 419q2 10 11 10h151q10 0 8 -10l-73 -412q-26 -144 -98 -207t-196 -63zM399 706q-42 0 -68.5 25t-26.5 65q0 56 37 95t95 39
q42 0 68.5 -25t26.5 -65q0 -56 -37 -95t-95 -39zM409 772q21 0 36 16.5t15 40.5q0 15 -9.5 25t-24.5 10q-21 0 -36 -16t-15 -40q0 -16 9 -26t25 -10z" />
    <glyph glyph-name="uring" unicode="&#x16f;" horiz-adv-x="538" 
d="M319 520q-42 0 -68.5 25t-26.5 65q0 56 37 95t95 39q42 0 68 -25t26 -65q0 -56 -36.5 -95t-94.5 -39zM329 586q21 0 36 16t15 40q0 16 -9.5 26t-25.5 10q-21 0 -36 -16t-15 -40q0 -16 9.5 -26t25.5 -10zM107 487h141q11 0 9 -10l-49 -280q-13 -74 44 -74t70 74l49 280
q2 10 11 10h143q10 0 8 -10l-82 -467q-2 -10 -11 -10h-143q-10 0 -8 10l7 37h-1q-51 -59 -132 -59q-78 0 -107.5 48.5t-13.5 133.5l54 307q2 10 11 10z" />
    <glyph glyph-name="Uhungarumlaut" unicode="&#x170;" horiz-adv-x="622" 
d="M287 -12q-128 0 -189.5 71.5t-37.5 204.5l72 406q2 10 11 10h150q11 0 9 -10l-74 -419q-10 -53 10 -82.5t63 -29.5q44 0 71 26t38 86l74 419q2 10 11 10h151q10 0 8 -10l-73 -412q-26 -144 -98 -207t-196 -63zM530 748h-91q-5 0 -6.5 3t1.5 7l94 118q6 10 18 10h108
q5 0 6.5 -3t-1.5 -7l-108 -118q-9 -10 -21 -10zM352 748h-92q-4 0 -5.5 3t1.5 7l94 118q6 10 18 10h108q5 0 6.5 -3t-1.5 -7l-108 -118q-9 -10 -21 -10z" />
    <glyph glyph-name="uhungarumlaut" unicode="&#x171;" horiz-adv-x="538" 
d="M107 487h141q11 0 9 -10l-49 -280q-13 -74 44 -74t70 74l49 280q2 10 11 10h143q10 0 8 -10l-82 -467q-2 -10 -11 -10h-143q-10 0 -8 10l7 37h-1q-51 -59 -132 -59q-78 0 -107.5 48.5t-13.5 133.5l54 307q2 10 11 10zM456 544h-93q-11 0 -4 10l91 136q7 10 18 10h108
q5 0 6.5 -3t-1.5 -7l-106 -136q-6 -10 -19 -10zM279 544h-93q-11 0 -4 10l91 136q7 10 18 10h108q5 0 6.5 -3t-1.5 -7l-106 -136q-8 -10 -19 -10z" />
    <glyph glyph-name="Uogonek" unicode="&#x172;" horiz-adv-x="623" 
d="M250 -190q-42 0 -67 21.5t-25 56.5q0 59 59 107q-93 18 -135 87.5t-21 181.5l72 406q2 10 10 10h150q11 0 9 -10l-74 -419q-9 -53 11 -82.5t63 -29.5q44 0 71 26t38 86l74 419q2 10 11 10h150q11 0 9 -10l-73 -412q-23 -127 -81.5 -190t-155.5 -75q-64 -39 -64 -64
q0 -13 14 -13q10 0 24 8q10 5 13 -3l25 -68q4 -9 -6 -13q-49 -30 -101 -30z" />
    <glyph glyph-name="uogonek" unicode="&#x173;" horiz-adv-x="538" 
d="M313 -190q-42 0 -67 21.5t-25 56.5q0 60 77 112h-3q-8 0 -6 10l7 37h-1q-51 -59 -132 -59q-78 0 -107.5 48.5t-13.5 133.5l54 307q2 10 11 10h141q11 0 9 -10l-49 -280q-13 -74 44 -74t70 74l49 280q2 10 11 10h143q10 0 8 -10l-82 -466q-1 -8 -9 -11q-98 -41 -98 -71
q0 -13 14 -13q10 0 24 8q10 5 13 -3l25 -68q3 -8 -6 -13q-49 -30 -101 -30z" />
    <glyph glyph-name="Wcircumflex" unicode="&#x174;" horiz-adv-x="870" 
d="M637 0h-121q-10 0 -11 10l-36 389h-2l-173 -389q-4 -10 -14 -10h-121q-11 0 -12 10l-62 660q0 10 8 10h153q12 0 12 -10l13 -407h2l174 407q4 10 14 10h100q11 0 12 -10l34 -407h2l155 407q3 10 13 10h164q11 0 6 -10l-297 -660q-4 -10 -13 -10zM689 742h-87
q-12 0 -19 10l-39 51h-1l-58 -51q-10 -10 -24 -10h-95q-5 0 -6 3t3 7l128 136q9 10 20 10h87q11 0 17 -10l80 -136q2 -4 0.5 -7t-6.5 -3z" />
    <glyph glyph-name="wcircumflex" unicode="&#x175;" horiz-adv-x="748" 
d="M589 545h-87q-12 0 -20 10l-38 52h-2l-57 -52q-11 -10 -24 -10h-95q-4 0 -5.5 3t1.5 7l129 137q8 9 20 9h87q12 0 17 -9l80 -137q2 -4 0.5 -7t-6.5 -3zM535 0h-112q-9 0 -10 10l-26 258h-2l-120 -258q-4 -10 -13 -10h-112q-10 0 -10 10l-71 467q0 10 10 10h137
q12 0 12 -10l18 -265h2l119 265q4 10 15 10h93q10 0 11 -10l27 -265h2l108 265q4 10 15 10h149q10 0 5 -10l-235 -467q-4 -10 -12 -10z" />
    <glyph glyph-name="Ycircumflex" unicode="&#x176;" horiz-adv-x="574" 
d="M326 0h-150q-11 0 -9 10l45 254l-128 405q-4 11 9 11h143q11 0 14 -10l69 -239h3l153 239q6 10 16 10h156q13 0 6 -11l-271 -405l-45 -254q-2 -10 -11 -10zM539 742h-87q-12 0 -19 10l-39 51h-1l-58 -51q-10 -10 -24 -10h-95q-5 0 -6 3t3 7l128 136q9 10 20 10h87
q11 0 17 -10l80 -136q2 -4 0.5 -7t-6.5 -3z" />
    <glyph glyph-name="ycircumflex" unicode="&#x177;" horiz-adv-x="516" 
d="M60 -180h-36q-10 0 -8 10l20 113q2 10 12 10h24q24 0 39 9.5t28 34.5l16 32l-98 448q-2 10 8 10h145q9 0 10 -10l40 -253h2l122 253q4 10 14 10h149q11 0 6 -11l-299 -531q-40 -72 -82.5 -98.5t-111.5 -26.5zM483 545h-87q-12 0 -20 10l-38 52h-2l-57 -52
q-11 -10 -24 -10h-95q-4 0 -5.5 3t1.5 7l129 137q8 9 20 9h87q12 0 17 -9l80 -137q2 -4 0.5 -7t-6.5 -3z" />
    <glyph glyph-name="Ydieresis" unicode="&#x178;" horiz-adv-x="574" 
d="M326 0h-150q-11 0 -9 10l45 254l-128 405q-4 11 9 11h143q11 0 14 -10l69 -239h3l153 239q6 10 16 10h156q13 0 6 -11l-271 -405l-45 -254q-2 -10 -11 -10zM531 752h-105q-10 0 -8 10l19 107q2 10 12 10h104q10 0 8 -10l-19 -107q-2 -10 -11 -10zM333 752h-105
q-11 0 -9 10l20 107q2 10 12 10h104q10 0 8 -10l-19 -107q-2 -10 -11 -10z" />
    <glyph glyph-name="Zacute" unicode="&#x179;" horiz-adv-x="554" 
d="M469 0h-456q-11 0 -9 10l23 129q1 5 6 11l337 376v3h-254q-10 0 -8 10l24 131q2 10 10 10h446q11 0 9 -10l-22 -127q-2 -7 -6 -11l-340 -378v-3h267q10 0 8 -10l-24 -131q-2 -10 -11 -10zM397 747h-109q-4 0 -5.5 3t1.5 7l119 122q10 10 22 10h135q5 0 6.5 -3t-2.5 -7
l-145 -122q-11 -10 -22 -10z" />
    <glyph glyph-name="zacute" unicode="&#x17a;" horiz-adv-x="477" 
d="M341 546h-110q-5 0 -6 3t2 7l101 136q7 10 19 10h134q5 0 6 -3t-3 -7l-123 -136q-10 -10 -20 -10zM394 0h-384q-9 0 -7 10l18 106q1 8 6 12l247 229v2h-189q-9 0 -7 10l19 108q2 10 11 10h372q9 0 7 -10l-18 -108q-1 -5 -6 -12l-246 -226v-2h199q10 0 8 -10l-19 -109
q-2 -10 -11 -10z" />
    <glyph glyph-name="Zdotaccent" unicode="&#x17b;" horiz-adv-x="554" 
d="M431 752h-133q-10 0 -8 10l19 107q2 10 11 10h133q10 0 8 -10l-19 -107q-2 -10 -11 -10zM469 0h-456q-11 0 -9 10l23 129q1 5 6 11l337 376v3h-254q-10 0 -8 10l24 131q2 10 10 10h446q11 0 9 -10l-22 -127q-2 -7 -6 -11l-340 -378v-3h267q10 0 8 -10l-24 -131
q-2 -10 -11 -10z" />
    <glyph glyph-name="zdotaccent" unicode="&#x17c;" horiz-adv-x="477" 
d="M394 0h-384q-9 0 -7 10l18 106q1 8 6 12l247 229v2h-189q-9 0 -7 10l19 108q2 10 11 10h372q9 0 7 -10l-18 -108q-1 -5 -6 -12l-246 -226v-2h199q10 0 8 -10l-19 -109q-2 -10 -11 -10zM364 553h-134q-10 0 -8 10l20 107q2 10 11 10h133q10 0 8 -10l-19 -107
q-2 -10 -11 -10z" />
    <glyph glyph-name="Zcaron" unicode="&#x17d;" horiz-adv-x="554" 
d="M405 736h-86q-12 0 -18 10l-80 136q-2 4 -0.5 7t6.5 3h87q12 0 20 -10l38 -51h2l57 51q10 10 24 10h95q4 0 5.5 -3t-1.5 -7l-129 -136q-9 -10 -20 -10zM469 0h-456q-11 0 -9 10l23 129q1 5 6 11l337 376v3h-254q-10 0 -8 10l24 131q2 10 10 10h446q11 0 9 -10l-22 -127
q-2 -7 -6 -11l-340 -378v-3h267q10 0 8 -10l-24 -131q-2 -10 -11 -10z" />
    <glyph glyph-name="zcaron" unicode="&#x17e;" horiz-adv-x="477" 
d="M338 542h-87q-11 0 -17 10l-80 136q-2 4 0 7t6 3h87q13 0 20 -10l38 -51h2l57 51q10 10 24 10h95q5 0 6 -3t-2 -7l-129 -136q-9 -10 -20 -10zM394 0h-384q-9 0 -7 10l18 106q1 8 6 12l247 229v2h-189q-9 0 -7 10l19 108q2 10 11 10h372q9 0 7 -10l-18 -108q-1 -5 -6 -12
l-246 -226v-2h199q10 0 8 -10l-19 -109q-2 -10 -11 -10z" />
    <glyph glyph-name="florin" unicode="&#x192;" 
d="M452 304h-84l-99 -307q-31 -97 -84 -137t-144 -40h-35q-11 0 -9 10l20 113q2 10 11 10h21q50 0 65 53l97 298h-57q-10 0 -8 10l18 99q2 10 12 10h74l26 80q32 97 85 137t142 40h36q11 0 9 -10l-20 -113q-2 -10 -12 -10h-21q-49 0 -65 -53l-23 -71h66q10 0 8 -10l-18 -99
q-2 -10 -11 -10z" />
    <glyph glyph-name="Aringacute" unicode="&#x1fa;" horiz-adv-x="656" 
d="M469 769h-109q-5 0 -6 3.5t3 6.5l117 100q13 10 24 10h135q5 0 6 -3.5t-3 -6.5l-142 -100q-14 -10 -25 -10zM601 0h-154q-10 0 -12 10l-12 108h-212l-51 -108q-5 -10 -14 -10h-165q-10 0 -5 10l294 565q5 10 15 10h8q-3 12 -3 27q0 56 36.5 95t94.5 39q42 0 68.5 -25
t26.5 -65q0 -39 -19 -71h9q9 0 11 -10l91 -565q2 -10 -7 -10zM395 588q21 0 35.5 16t14.5 40q0 16 -9 25.5t-25 9.5q-21 0 -36 -16t-15 -40q0 -16 9.5 -25.5t25.5 -9.5zM381 480l-104 -220h130l-24 220h-2z" />
    <glyph glyph-name="aringacute" unicode="&#x1fb;" horiz-adv-x="515" 
d="M401 769h-108q-4 0 -5 4t3 7l109 99q11 10 24 10h134q5 0 6 -3.5t-3 -6.5l-134 -100q-12 -10 -26 -10zM420 0h-134q-11 0 -9 10l5 30h-1q-49 -52 -135 -52q-55 0 -92 33t-37 89q0 90 60 138t170 48h75q6 0 8 6l3 17q6 29 -10.5 41t-71.5 12q-65 0 -107 -28q-9 -5 -12 4
l-35 88q-3 9 6 15q75 48 193 48q114 0 161 -41t29 -140l-55 -308q-2 -10 -11 -10zM221 104q74 0 83 55l5 32q1 6 -5 6h-57q-75 0 -75 -57q0 -36 49 -36zM312 520q-42 0 -68.5 25t-26.5 65q0 56 37 95t95 39q42 0 68 -25t26 -65q0 -56 -36.5 -95t-94.5 -39zM322 586
q21 0 36 16t15 40q0 16 -9.5 26t-25.5 10q-21 0 -36 -16t-15 -40q0 -16 9.5 -26t25.5 -10z" />
    <glyph glyph-name="AEacute" unicode="&#x1fc;" horiz-adv-x="909" 
d="M592 747h-109q-5 0 -6 3t2 7l119 122q10 10 22 10h135q5 0 6.5 -3t-2.5 -7l-145 -122q-11 -10 -22 -10zM827 0h-429q-10 0 -8 10l18 102q2 6 -5 6h-173l-64 -108q-6 -10 -14 -10h-171q-12 0 -5 10l409 660q7 10 14 10h548q10 0 8 -10l-22 -124q-2 -10 -11 -10h-265
q-6 0 -6 -6l-20 -110q-1 -6 5 -6h216q10 0 8 -10l-21 -122q-2 -10 -12 -10h-216q-5 0 -7 -6l-21 -116q0 -6 5 -6h264q10 0 8 -10l-22 -124q-2 -10 -11 -10zM480 536l-165 -276h113q6 0 7 6l48 270h-3z" />
    <glyph glyph-name="aeacute" unicode="&#x1fd;" horiz-adv-x="793" 
d="M497 546h-110q-5 0 -6 3t2 7l101 136q7 10 19 10h134q5 0 6 -3t-3 -7l-123 -136q-10 -10 -20 -10zM506 -12q-54 0 -92.5 20t-56.5 50h-1q-65 -70 -186 -70q-73 0 -113 33t-40 95q0 86 60.5 133t169.5 47h75q6 0 8 6l3 17q6 29 -10.5 41t-71.5 12q-65 0 -107 -28
q-9 -5 -12 4l-35 88q-3 9 6 15q75 48 193 48q100 0 149 -46h2q56 46 137 46q85 0 137.5 -45.5t52.5 -127.5q0 -44 -13 -119q-2 -10 -12 -10h-281q-6 0 -7 -6q-1 -4 -1 -12q0 -67 83 -67q55 0 113 43q9 5 14 -1l55 -70q5 -9 -2 -16q-90 -80 -217 -80zM486 296h128q6 0 8 6
q3 12 3 23q0 58 -59 58q-51 0 -75 -46q-6 -15 -9 -35q-2 -6 4 -6zM221 104q74 0 83 55l5 32q1 6 -5 6h-57q-75 0 -75 -57q0 -36 49 -36z" />
    <glyph glyph-name="Oslashacute" unicode="&#x1fe;" horiz-adv-x="604" 
d="M271 -12q-81 0 -138 34l-34 -42q-7 -10 -18 -10h-95q-4 0 -5.5 3t1.5 7l88 108q-25 48 -25 114q0 57 20.5 168t46.5 163q77 159 269 159q82 0 137 -34l34 42q7 10 18 10h96q4 0 5.5 -3t-1.5 -7l-89 -109q26 -47 26 -113q0 -57 -20.5 -168t-46.5 -163q-79 -159 -269 -159z
M291 139q65 0 96 65q14 28 31.5 123t17.5 135q0 37 -19.5 58t-55.5 21q-65 0 -96 -65q-14 -28 -31.5 -123t-17.5 -135q0 -37 19.5 -58t55.5 -21zM442 747h-109q-5 0 -6 3t2 7l119 122q10 10 22 10h135q5 0 6.5 -3t-2.5 -7l-145 -122q-11 -10 -22 -10z" />
    <glyph glyph-name="oslashacute" unicode="&#x1ff;" horiz-adv-x="514" 
d="M221 -12q-66 0 -112 26l-30 -33q-10 -10 -20 -10h-75q-5 0 -6 3t3 7l75 84q-27 41 -27 104q0 114 40 195q67 135 236 135q65 0 112 -27l30 34q10 10 20 10h75q5 0 6 -3t-3 -7l-75 -84q27 -44 27 -104q0 -114 -40 -195q-67 -135 -236 -135zM241 121q43 0 66 44
q10 21 19.5 70t9.5 72q0 59 -51 59q-45 0 -66 -44q-10 -21 -19.5 -69.5t-9.5 -72.5q0 -59 51 -59zM360 546h-110q-4 0 -5.5 3t1.5 7l101 136q7 10 19 10h134q5 0 6 -3t-3 -7l-123 -136q-10 -10 -20 -10z" />
    <glyph glyph-name="Scommaaccent" unicode="&#x218;" horiz-adv-x="584" 
d="M166 -244q-11 0 -9 11l31 177q2 10 11 10h115q11 0 9 -10l-15 -87q-3 -15 -13 -21l-112 -73q-11 -7 -17 -7zM253 -12q-77 0 -149 28.5t-105 68.5q-7 9 2 17l102 98q9 9 15 1q26 -28 67 -46.5t87 -18.5q49 0 78 22t29 56q0 21 -16 33.5t-56 18.5l-34 5q-91 13 -139 57
t-48 116q0 111 77 179.5t203 68.5q137 0 225 -76q8 -6 -1 -15l-88 -101q-8 -8 -15 -3q-62 48 -136 48q-38 0 -63 -20t-25 -50q0 -42 74 -52l33 -5q187 -28 187 -171q0 -120 -83.5 -189.5t-220.5 -69.5z" />
    <glyph glyph-name="scommaaccent" unicode="&#x219;" horiz-adv-x="498" 
d="M123 -244q-11 0 -9 11l31 177q2 10 11 10h115q11 0 9 -10l-15 -87q-3 -15 -13 -21l-112 -73q-11 -7 -17 -7zM218 -12q-135 0 -216 77q-7 7 1 15l80 79q7 7 15 0q69 -51 143 -51q31 0 50 13.5t19 30.5q0 25 -52 30l-52 6q-66 7 -102 39t-36 84q0 88 62.5 138t166.5 50
q61 0 111.5 -18t81.5 -45q6 -6 -1 -15l-72 -75q-7 -7 -14 -2q-58 38 -123 38q-27 0 -43 -11.5t-16 -27.5q0 -23 47 -28l52 -6q146 -15 146 -124q0 -89 -66.5 -143t-181.5 -54z" />
    <glyph glyph-name="uni021A" unicode="&#x21a;" horiz-adv-x="549" 
d="M143 -244q-11 0 -9 11l31 177q2 10 11 10h115q11 0 9 -10l-15 -87q-3 -15 -13 -21l-112 -73q-11 -7 -17 -7zM313 0h-150q-10 0 -8 10l91 513q2 6 -5 6h-161q-11 0 -9 10l24 131q2 10 11 10h504q11 0 9 -10l-23 -131q-2 -10 -12 -10h-162q-6 0 -7 -6l-91 -513
q-2 -10 -11 -10z" />
    <glyph glyph-name="uni021B" unicode="&#x21b;" horiz-adv-x="330" 
d="M52 -244q-11 0 -9 11l31 177q2 10 11 10h115q11 0 9 -10l-15 -87q-3 -15 -13 -21l-112 -73q-11 -7 -17 -7zM250 -6h-55q-94 0 -124.5 43t-12.5 139l35 189q1 6 -5 6h-28q-9 0 -7 10l17 96q2 10 11 10h27q6 0 8 6l23 127q2 10 11 10h142q9 0 7 -10l-23 -127q-2 -6 5 -6h60
q10 0 8 -10l-17 -96q-2 -10 -12 -10h-61q-5 0 -6 -6l-34 -182q-6 -30 1.5 -41.5t32.5 -11.5h21q10 0 8 -10l-20 -116q-2 -10 -12 -10z" />
    <glyph glyph-name="dotlessj" unicode="&#x237;" horiz-adv-x="265" 
d="M-46 -180h-36q-10 0 -7 10l20 113q2 10 11 10h13q30 0 43 11.5t19 44.5l82 468q2 10 11 10h143q10 0 8 -10l-82 -468q-19 -110 -68.5 -149.5t-156.5 -39.5z" />
    <glyph glyph-name="circumflex" unicode="&#x2c6;" horiz-adv-x="475" 
d="M457 545h-87q-12 0 -20 10l-38 52h-2l-57 -52q-11 -10 -24 -10h-95q-4 0 -5.5 3t1.5 7l129 137q8 9 20 9h87q12 0 17 -9l80 -137q2 -4 0.5 -7t-6.5 -3z" />
    <glyph glyph-name="caron" unicode="&#x2c7;" horiz-adv-x="475" 
d="M338 542h-87q-11 0 -17 10l-80 136q-2 4 0 7t6 3h87q13 0 20 -10l38 -51h2l57 51q10 10 24 10h95q5 0 6 -3t-2 -7l-129 -136q-9 -10 -20 -10z" />
    <glyph glyph-name="uni02C9" unicode="&#x2c9;" horiz-adv-x="475" 
d="M481 763h-291q-10 0 -8 10l15 87q2 10 11 10h291q10 0 8 -10l-15 -87q-2 -10 -11 -10z" />
    <glyph glyph-name="breve" unicode="&#x2d8;" horiz-adv-x="475" 
d="M297 540q-66 0 -103 39t-29 99q2 12 13 12h62q11 0 14 -11q8 -41 58 -41q52 0 75 41q5 11 17 11h62q12 0 10 -11q-11 -59 -63 -99t-116 -40z" />
    <glyph glyph-name="dotaccent" unicode="&#x2d9;" horiz-adv-x="475" 
d="M366 553h-134q-10 0 -8 10l20 107q2 10 11 10h133q10 0 8 -10l-19 -107q-2 -10 -11 -10z" />
    <glyph glyph-name="ring" unicode="&#x2da;" horiz-adv-x="475" 
d="M294 520q-42 0 -68.5 25t-26.5 65q0 56 37 95t95 39q42 0 68 -25t26 -65q0 -56 -36.5 -95t-94.5 -39zM304 586q21 0 36 16t15 40q0 16 -9.5 26t-25.5 10q-21 0 -36 -16t-15 -40q0 -16 9.5 -26t25.5 -10z" />
    <glyph glyph-name="ogonek" unicode="&#x2db;" horiz-adv-x="475" 
d="M165 -190q-42 0 -67 21.5t-25 56.5q0 61 71 112q14 10 27 10h119q5 0 5.5 -4t-4.5 -6q-53 -24 -73.5 -40.5t-20.5 -30.5q0 -13 14 -13q10 0 24 8q10 6 13 -3l24 -68q4 -9 -5 -13q-49 -30 -102 -30z" />
    <glyph glyph-name="tilde" unicode="&#x2dc;" horiz-adv-x="475" 
d="M365 548q-37 0 -78 23q-28 18 -54 18q-36 0 -78 -33q-4 -3 -7.5 -1.5t-2.5 6.5l14 78q3 13 13 21q41 36 84 36q37 0 78 -23q28 -18 54 -18q36 0 78 33q4 3 7.5 1.5t2.5 -6.5l-14 -78q-2 -11 -13 -22q-41 -35 -84 -35z" />
    <glyph glyph-name="hungarumlaut" unicode="&#x2dd;" horiz-adv-x="475" 
d="M386 544h-93q-11 0 -4 10l91 136q7 10 18 10h108q5 0 6.5 -3t-1.5 -7l-106 -136q-6 -10 -19 -10zM209 544h-93q-11 0 -4 10l91 136q7 10 18 10h108q5 0 6.5 -3t-1.5 -7l-106 -136q-8 -10 -19 -10z" />
    <glyph glyph-name="Delta" unicode="&#x394;" horiz-adv-x="657" 
d="M601 0h-619q-11 0 -6 10l345 660q5 10 14 10h156q10 0 12 -10l106 -660q2 -10 -8 -10zM416 144q6 0 5 6l-38 330h-2l-156 -329q-3 -7 3 -7h188z" />
    <glyph glyph-name="Delta" unicode="&#x2206;" horiz-adv-x="657" 
d="M601 0h-619q-11 0 -6 10l345 660q5 10 14 10h156q10 0 12 -10l106 -660q2 -10 -8 -10zM416 144q6 0 5 6l-38 330h-2l-156 -329q-3 -7 3 -7h188z" />
    <glyph glyph-name="Omega" unicode="&#x3a9;" horiz-adv-x="616" 
d="M527 0h-215q-11 0 -9 10l20 113q1 9 12 14q36 18 55 59.5t37 143.5q16 93 16 121q0 78 -76 80q-65 0 -97 -63q-15 -31 -35 -138q-15 -84 -15 -122q0 -60 37 -81q7 -4 6 -14l-20 -113q-2 -10 -10 -10h-215q-11 0 -9 10l22 118q2 10 11 10h47v1q-34 32 -34 109q0 40 9 92
q23 130 52 186q86 166 278 166q102 0 161.5 -54.5t59.5 -157.5q0 -45 -17 -140q-25 -153 -94 -201l-1 -1h47q10 0 8 -10l-21 -118q-2 -10 -10 -10z" />
    <glyph glyph-name="Omega" unicode="&#x2126;" horiz-adv-x="616" 
d="M527 0h-215q-11 0 -9 10l20 113q1 9 12 14q36 18 55 59.5t37 143.5q16 93 16 121q0 78 -76 80q-65 0 -97 -63q-15 -31 -35 -138q-15 -84 -15 -122q0 -60 37 -81q7 -4 6 -14l-20 -113q-2 -10 -10 -10h-215q-11 0 -9 10l22 118q2 10 11 10h47v1q-34 32 -34 109q0 40 9 92
q23 130 52 186q86 166 278 166q102 0 161.5 -54.5t59.5 -157.5q0 -45 -17 -140q-25 -153 -94 -201l-1 -1h47q10 0 8 -10l-21 -118q-2 -10 -10 -10z" />
    <glyph glyph-name="pi" unicode="&#x3c0;" horiz-adv-x="580" 
d="M492 -6h-37q-83 0 -114.5 38t-15.5 125l33 185q2 6 -4 6h-81q-7 0 -8 -6l-59 -332q-2 -10 -10 -10h-144q-11 0 -9 10l60 332q0 6 -5 6h-39q-10 0 -8 10l20 119q2 10 12 10h505q10 0 8 -10l-21 -119q-1 -10 -11 -10h-39q-7 0 -8 -6l-30 -172q-4 -23 1.5 -31.5t23.5 -8.5h4
q11 0 9 -10l-21 -116q-2 -10 -12 -10z" />
    <glyph glyph-name="Wgrave" unicode="&#x1e80;" horiz-adv-x="870" 
d="M567 747h-106q-9 0 -18 10l-101 122q-3 4 -1.5 7t6.5 3h129q12 0 19 -10l78 -122q2 -4 0.5 -7t-6.5 -3zM637 0h-121q-10 0 -11 10l-36 389h-2l-173 -389q-4 -10 -14 -10h-121q-11 0 -12 10l-62 660q0 10 8 10h153q12 0 12 -10l13 -407h2l174 407q4 10 14 10h100
q11 0 12 -10l34 -407h2l155 407q3 10 13 10h164q11 0 6 -10l-297 -660q-4 -10 -13 -10z" />
    <glyph glyph-name="wgrave" unicode="&#x1e81;" horiz-adv-x="748" 
d="M535 0h-112q-9 0 -10 10l-26 258h-2l-120 -258q-4 -10 -13 -10h-112q-10 0 -10 10l-71 467q0 10 10 10h137q12 0 12 -10l18 -265h2l119 265q4 10 15 10h93q10 0 11 -10l27 -265h2l108 265q4 10 15 10h149q10 0 5 -10l-235 -467q-4 -10 -12 -10zM466 546h-100
q-11 0 -18 10l-74 136q-2 4 0 7t7 3h125q12 0 15 -10l53 -136q3 -10 -8 -10z" />
    <glyph glyph-name="Wacute" unicode="&#x1e82;" horiz-adv-x="870" 
d="M578 747h-109q-5 0 -6 3t2 7l119 122q10 10 22 10h135q5 0 6.5 -3t-2.5 -7l-145 -122q-11 -10 -22 -10zM637 0h-121q-10 0 -11 10l-36 389h-2l-173 -389q-4 -10 -14 -10h-121q-11 0 -12 10l-62 660q0 10 8 10h153q12 0 12 -10l13 -407h2l174 407q4 10 14 10h100
q11 0 12 -10l34 -407h2l155 407q3 10 13 10h164q11 0 6 -10l-297 -660q-4 -10 -13 -10z" />
    <glyph glyph-name="wacute" unicode="&#x1e83;" horiz-adv-x="748" 
d="M481 546h-110q-5 0 -6 3t2 7l101 136q7 10 19 10h134q5 0 6 -3t-3 -7l-123 -136q-10 -10 -20 -10zM535 0h-112q-9 0 -10 10l-26 258h-2l-120 -258q-4 -10 -13 -10h-112q-10 0 -10 10l-71 467q0 10 10 10h137q12 0 12 -10l18 -265h2l119 265q4 10 15 10h93q10 0 11 -10
l27 -265h2l108 265q4 10 15 10h149q10 0 5 -10l-235 -467q-4 -10 -12 -10z" />
    <glyph glyph-name="Wdieresis" unicode="&#x1e84;" horiz-adv-x="870" 
d="M685 752h-105q-10 0 -8 10l19 107q2 10 12 10h104q10 0 8 -10l-19 -107q-2 -10 -11 -10zM487 752h-105q-11 0 -9 10l20 107q2 10 12 10h104q10 0 8 -10l-19 -107q-2 -10 -11 -10zM637 0h-121q-10 0 -11 10l-36 389h-2l-173 -389q-4 -10 -14 -10h-121q-11 0 -12 10
l-62 660q0 10 8 10h153q12 0 12 -10l13 -407h2l174 407q4 10 14 10h100q11 0 12 -10l34 -407h2l155 407q3 10 13 10h164q11 0 6 -10l-297 -660q-4 -10 -13 -10z" />
    <glyph glyph-name="wdieresis" unicode="&#x1e85;" horiz-adv-x="748" 
d="M585 556h-105q-11 0 -9 10l20 106q2 10 12 10h104q10 0 8 -10l-19 -106q-2 -10 -11 -10zM386 556h-104q-11 0 -9 10l20 106q2 10 11 10h105q10 0 8 -10l-20 -106q-2 -10 -11 -10zM535 0h-112q-9 0 -10 10l-26 258h-2l-120 -258q-4 -10 -13 -10h-112q-10 0 -10 10l-71 467
q0 10 10 10h137q12 0 12 -10l18 -265h2l119 265q4 10 15 10h93q10 0 11 -10l27 -265h2l108 265q4 10 15 10h149q10 0 5 -10l-235 -467q-4 -10 -12 -10z" />
    <glyph glyph-name="Ygrave" unicode="&#x1ef2;" horiz-adv-x="574" 
d="M326 0h-150q-11 0 -9 10l45 254l-128 405q-4 11 9 11h143q11 0 14 -10l69 -239h3l153 239q6 10 16 10h156q13 0 6 -11l-271 -405l-45 -254q-2 -10 -11 -10zM421 747h-106q-9 0 -18 10l-101 122q-3 4 -1.5 7t6.5 3h129q12 0 19 -10l78 -122q2 -4 0.5 -7t-6.5 -3z" />
    <glyph glyph-name="ygrave" unicode="&#x1ef3;" horiz-adv-x="516" 
d="M60 -180h-36q-10 0 -8 10l20 113q2 10 12 10h24q24 0 39 9.5t28 34.5l16 32l-98 448q-2 10 8 10h145q9 0 10 -10l40 -253h2l122 253q4 10 14 10h149q11 0 6 -11l-299 -531q-40 -72 -82.5 -98.5t-111.5 -26.5zM352 546h-100q-11 0 -18 10l-74 136q-2 4 0 7t7 3h125
q12 0 15 -10l53 -136q3 -10 -8 -10z" />
    <glyph glyph-name="endash" unicode="&#x2013;" horiz-adv-x="533" 
d="M503 197h-475q-10 0 -8 10l20 116q2 10 12 10h475q9 0 7 -10l-20 -116q-2 -10 -11 -10z" />
    <glyph glyph-name="emdash" unicode="&#x2014;" horiz-adv-x="890" 
d="M859 197h-831q-10 0 -8 10l20 116q2 10 12 10h832q9 0 7 -10l-21 -116q-2 -10 -11 -10z" />
    <glyph glyph-name="quoteleft" unicode="&#x2018;" horiz-adv-x="232" 
d="M215 459h-109q-11 0 -9 10l20 113q3 14 13 22l105 70q11 8 17 8q12 0 10 -12l-36 -201q-2 -10 -11 -10z" />
    <glyph glyph-name="quoteright" unicode="&#x2019;" horiz-adv-x="232" 
d="M106 457q-10 0 -9 12l36 201q2 10 11 10h109q11 0 9 -10l-20 -113q-3 -15 -14 -22l-104 -71q-11 -7 -18 -7z" />
    <glyph glyph-name="quotesinglbase" unicode="&#x201a;" horiz-adv-x="231" 
d="M10 -89q-11 0 -9 12l35 201q2 10 11 10h110q10 0 8 -10l-20 -113q-3 -14 -13 -22l-105 -70q-11 -8 -17 -8z" />
    <glyph glyph-name="quotedblleft" unicode="&#x201c;" horiz-adv-x="422" 
d="M406 459h-110q-10 0 -8 10l20 113q3 14 13 22l105 70q11 8 17 8q11 0 9 -12l-35 -201q-2 -10 -11 -10zM215 459h-109q-11 0 -9 10l20 113q3 14 13 22l105 70q11 8 17 8q12 0 10 -12l-36 -201q-2 -10 -11 -10z" />
    <glyph glyph-name="quotedblright" unicode="&#x201d;" horiz-adv-x="422" 
d="M297 457q-11 0 -9 12l35 201q2 10 11 10h110q10 0 8 -10l-19 -113q-3 -15 -14 -22l-104 -71q-11 -7 -18 -7zM106 457q-10 0 -9 12l36 201q2 10 11 10h109q11 0 9 -10l-20 -113q-3 -15 -14 -22l-104 -71q-11 -7 -18 -7z" />
    <glyph glyph-name="quotedblbase" unicode="&#x201e;" horiz-adv-x="422" 
d="M201 -89q-12 0 -10 12l36 201q2 10 11 10h109q11 0 9 -10l-20 -113q-3 -14 -13 -22l-105 -70q-11 -8 -17 -8zM10 -89q-11 0 -9 12l35 201q2 10 11 10h110q10 0 8 -10l-20 -113q-3 -14 -13 -22l-105 -70q-11 -8 -17 -8z" />
    <glyph glyph-name="dagger" unicode="&#x2020;" horiz-adv-x="543" 
d="M278 -180h-142q-11 0 -8 10l87 489q0 6 -5 6h-140q-10 0 -8 10l23 123q2 10 10 10h139q6 0 8 6l34 196q2 10 11 10h142q11 0 9 -10l-35 -196q-1 -6 4 -6h139q11 0 9 -10l-23 -123q-2 -10 -11 -10h-138q-7 0 -8 -6l-85 -489q-3 -10 -12 -10z" />
    <glyph glyph-name="daggerdbl" unicode="&#x2021;" horiz-adv-x="543" 
d="M278 -180h-142q-11 0 -8 10l29 160q1 6 -5 6h-139q-10 0 -8 10l22 123q2 10 11 10h139q5 0 7 6l37 210q1 6 -5 6h-139q-10 0 -8 10l22 123q2 10 11 10h139q5 0 7 6l28 160q2 10 11 10h142q11 0 9 -10l-29 -160q-1 -6 5 -6h139q10 0 8 -10l-22 -123q-2 -10 -12 -10h-138
q-5 0 -7 -6l-37 -210q-1 -6 4 -6h140q10 0 8 -10l-22 -123q-2 -10 -11 -10h-140q-6 0 -7 -6l-27 -160q-3 -10 -12 -10z" />
    <glyph glyph-name="bullet" unicode="&#x2022;" horiz-adv-x="430" 
d="M236 148q-69 0 -114.5 45.5t-45.5 115.5q0 69 45.5 114.5t114.5 45.5t114.5 -45.5t45.5 -114.5q0 -70 -45.5 -115.5t-114.5 -45.5z" />
    <glyph glyph-name="ellipsis" unicode="&#x2026;" horiz-adv-x="735" 
d="M644 0h-133q-11 0 -9 10l23 134q2 10 11 10h133q11 0 9 -10l-23 -134q-2 -10 -11 -10zM399 0h-133q-11 0 -9 10l23 134q2 10 11 10h133q11 0 9 -10l-23 -134q-2 -10 -11 -10zM154 0h-133q-11 0 -9 10l23 134q2 10 11 10h133q11 0 9 -10l-23 -134q-2 -10 -11 -10z" />
    <glyph glyph-name="perthousand" unicode="&#x2030;" horiz-adv-x="1150" 
d="M224 -12h-97q-9 0 -3 10l503 684q7 10 17 10h98q11 0 3 -10l-503 -684q-7 -10 -18 -10zM221 330q-51 0 -83.5 28.5t-32.5 80.5q0 37 8.5 87t23.5 80q40 82 147 82q51 0 83.5 -29t32.5 -81q0 -100 -32 -166q-40 -82 -147 -82zM236 413q20 0 30 21q6 12 16.5 71t10.5 75
q0 25 -24 25q-20 0 -30 -21q-6 -12 -16.5 -71t-10.5 -75q0 -25 24 -25zM913 -8q-52 0 -84.5 28.5t-32.5 80.5q0 36 9 86.5t24 80.5q41 82 146 82q51 0 84 -29t33 -81q0 -100 -32 -166q-40 -82 -147 -82zM586 -8q-52 0 -84.5 28.5t-32.5 80.5q0 35 8.5 86t23.5 81
q41 82 147 82q51 0 84 -29t33 -81q0 -98 -33 -166q-40 -82 -146 -82zM927 75q22 0 31 21q6 12 16.5 71t10.5 74q0 26 -24 26q-21 0 -31 -21q-6 -12 -16.5 -71.5t-10.5 -74.5q0 -25 24 -25zM600 75q21 0 30 21q6 12 16.5 71t10.5 74q0 26 -24 26q-20 0 -30 -21
q-6 -12 -16.5 -71t-10.5 -75q0 -25 24 -25z" />
    <glyph glyph-name="guilsinglleft" unicode="&#x2039;" horiz-adv-x="317" 
d="M219 27l-188 230q-6 8 2 14l270 231q4 3 7 1.5t2 -6.5l-24 -137q-3 -12 -14 -22l-88 -78q-5 -4 -2 -8l61 -78q8 -11 6 -22l-21 -123q-1 -4 -4.5 -5t-6.5 3z" />
    <glyph glyph-name="guilsinglright" unicode="&#x203a;" horiz-adv-x="317" 
d="M32 26q-3 -3 -6.5 -1t-2.5 6l25 137q3 13 13 22l89 78q5 4 2 8l-61 78q-9 10 -6 22l21 123q1 4 4.5 5t6.5 -3l187 -230q6 -8 -2 -14z" />
    <glyph glyph-name="fraction" unicode="&#x2044;" horiz-adv-x="237" 
d="M-68 -12h-97q-11 0 -3 10l502 684q7 10 17 10h98q11 0 3 -10l-502 -684q-7 -10 -18 -10z" />
    <glyph glyph-name="zero.superior" unicode="&#x2070;" horiz-adv-x="354" 
d="M213 423q-59 0 -93 31t-34 89q0 33 13.5 107t28.5 103q44 90 160 90q59 0 93 -31t34 -89q0 -33 -13.5 -107t-28.5 -103q-43 -90 -160 -90zM230 516q21 0 33 22q8 16 20.5 89t12.5 96q0 27 -25 27q-21 0 -32 -21q-8 -16 -21 -89.5t-13 -96.5q0 -27 25 -27z" />
    <glyph glyph-name="four.superior" unicode="&#x2074;" horiz-adv-x="354" 
d="M333 430h-89q-9 0 -7 10l6 38q1 6 -5 6h-161q-10 0 -8 10l14 81q1 8 9 19l144 232q6 10 16 10h101q5 0 6.5 -3t-1.5 -7l-149 -243v-2h47q6 0 7 6l10 59q2 10 11 10h89q10 0 8 -10l-10 -59q-1 -6 4 -6h15q9 0 7 -10l-14 -77q-2 -10 -11 -10h-14q-6 0 -7 -6l-6 -38
q-2 -10 -12 -10z" />
    <glyph glyph-name="five.superior" unicode="&#x2075;" horiz-adv-x="354" 
d="M213 423q-115 0 -121 92q0 11 9 13l86 16q11 2 12 -6q6 -21 29 -21t33 19q10 20 10 42q0 29 -26 29q-14 0 -28 -12q-6 -6 -13 -6h-88q-10 0 -8 10l40 227q2 10 11 10h248q11 0 9 -10l-13 -75q-2 -11 -11 -11h-150q-6 0 -7 -5l-10 -53h1q25 18 64 18q47 0 73 -23.5
t26 -69.5q0 -55 -21 -99q-41 -85 -155 -85z" />
    <glyph glyph-name="six.superior" unicode="&#x2076;" horiz-adv-x="354" 
d="M214 423q-61 0 -96 29.5t-35 79.5q0 62 58 142l111 152q8 10 18 10h106q4 0 5.5 -3t-1.5 -7l-99 -139v-1q3 1 13 1q46 0 73 -27.5t27 -72.5q0 -70 -51.5 -117t-128.5 -47zM230 515q20 0 34 14.5t14 34.5q0 15 -9 24.5t-24 9.5q-19 0 -33.5 -15t-14.5 -35q0 -33 33 -33z
" />
    <glyph glyph-name="seven.superior" unicode="&#x2077;" horiz-adv-x="354" 
d="M230 430h-103q-10 0 -5 12l174 296l1 2h-58q-5 0 -7 -6l-7 -36q-2 -10 -11 -10h-88q-10 0 -8 10l23 128q2 10 11 10h272q11 0 9 -10l-16 -86q-1 -8 -6 -17l-166 -283q-6 -10 -15 -10z" />
    <glyph glyph-name="eight.superior" unicode="&#x2078;" horiz-adv-x="354" 
d="M214 423q-60 0 -96.5 28t-36.5 77q0 70 62 113v1q-24 24 -24 59q0 59 50 100.5t119 41.5q60 0 92.5 -29t32.5 -74q0 -56 -50 -98v-1q30 -30 30 -68q0 -66 -52.5 -108t-126.5 -42zM259 681q17 0 28.5 12.5t11.5 31.5q0 12 -7.5 19.5t-20.5 7.5q-17 0 -28.5 -12.5
t-11.5 -31.5q0 -12 7.5 -19.5t20.5 -7.5zM230 514q20 0 34 14.5t14 35.5q0 15 -9.5 24t-24.5 9q-20 0 -34 -14.5t-14 -35.5q0 -14 9.5 -23.5t24.5 -9.5z" />
    <glyph glyph-name="nine.superior" unicode="&#x2079;" horiz-adv-x="354" 
d="M233 430h-107q-4 0 -5.5 3t1.5 7l99 139v1q-3 -1 -13 -1q-45 0 -72.5 27.5t-27.5 72.5q0 70 51.5 117t128.5 47q61 0 96 -29.5t35 -79.5q0 -61 -58 -142l-111 -152q-8 -10 -17 -10zM257 668q20 0 34 15t14 35q0 33 -33 33q-19 0 -33 -14.5t-14 -34.5q0 -34 32 -34z" />
    <glyph glyph-name="zero.inferior" unicode="&#x2080;" horiz-adv-x="354" 
d="M112 -163q-59 0 -93 31t-34 89q0 33 13.5 107t28.5 103q43 90 160 90q59 0 93 -31t34 -89q0 -33 -13.5 -107t-28.5 -103q-44 -90 -160 -90zM129 -70q21 0 33 22q8 16 20.5 89t12.5 96q0 27 -25 27q-22 0 -32 -21q-8 -16 -21 -89.5t-13 -96.5q0 -27 25 -27z" />
    <glyph glyph-name="one.inferior" unicode="&#x2081;" horiz-adv-x="354" 
d="M204 -156h-99q-10 0 -8 10l48 274h-2l-70 -39q-4 -2 -7 0t-2 6l16 94q1 10 12 15l67 40q10 6 21 6h95q11 0 9 -10l-68 -386q-2 -10 -12 -10z" />
    <glyph glyph-name="two.inferior" unicode="&#x2082;" horiz-adv-x="354" 
d="M247 -156h-268q-10 0 -8 10l14 73q1 10 11 18l166 139q31 27 31 55q0 25 -26 25q-29 0 -41 -38q-3 -10 -12 -8l-86 12q-8 2 -6 11q13 51 57 83.5t111 32.5q56 0 88 -28t32 -74q0 -71 -74 -130l-97 -82v-1h125q10 0 8 -10l-13 -78q-2 -10 -12 -10z" />
    <glyph glyph-name="three.inferior" unicode="&#x2083;" horiz-adv-x="354" 
d="M115 -163q-60 0 -94 27t-36 75q0 10 9 12l88 13q8 1 11 -7q9 -27 33 -27q18 0 30.5 13t12.5 32q0 30 -36 30h-13q-10 0 -8 10l12 71q2 10 12 10h12q19 0 31 11.5t12 31.5q0 25 -27 25q-24 0 -37 -24q-5 -10 -13 -8l-84 14q-9 2 -6 11q16 44 59 72t103 28q59 0 91.5 -26
t32.5 -68q0 -66 -61 -102v-1q36 -20 36 -69q0 -70 -48.5 -112t-121.5 -42z" />
    <glyph glyph-name="four.inferior" unicode="&#x2084;" horiz-adv-x="354" 
d="M232 -156h-89q-9 0 -7 10l6 38q2 6 -5 6h-161q-10 0 -8 10l14 81q1 8 9 19l144 232q6 10 16 10h101q5 0 6.5 -3t-1.5 -7l-149 -243v-2h47q5 0 7 6l10 59q2 10 11 10h89q10 0 8 -10l-10 -59q-2 -6 4 -6h15q9 0 7 -10l-14 -77q-2 -10 -11 -10h-14q-5 0 -7 -6l-6 -38
q-2 -10 -12 -10z" />
    <glyph glyph-name="five.inferior" unicode="&#x2085;" horiz-adv-x="354" 
d="M111 -163q-115 0 -121 92q0 11 9 13l86 16q11 2 12 -6q6 -21 29 -21t33 19q10 20 10 42q0 29 -26 29q-14 0 -28 -12q-6 -6 -13 -6h-88q-10 0 -8 10l40 227q2 10 11 10h248q11 0 9 -10l-13 -75q-2 -11 -11 -11h-150q-6 0 -7 -5l-10 -53h1q25 18 64 18q47 0 73 -23.5
t26 -69.5q0 -55 -21 -99q-41 -85 -155 -85z" />
    <glyph glyph-name="six.inferior" unicode="&#x2086;" horiz-adv-x="354" 
d="M113 -163q-61 0 -96 29.5t-35 79.5q0 62 58 142l111 152q8 10 18 10h106q4 0 5.5 -3t-1.5 -7l-99 -139v-1q3 1 13 1q46 0 73 -27.5t27 -72.5q0 -70 -51.5 -117t-128.5 -47zM129 -71q20 0 34 14.5t14 34.5q0 15 -9 24.5t-24 9.5q-19 0 -33.5 -15t-14.5 -35q0 -33 33 -33z
" />
    <glyph glyph-name="seven.inferior" unicode="&#x2087;" horiz-adv-x="354" 
d="M128 -156h-103q-10 0 -5 12l174 296l1 2h-58q-5 0 -7 -6l-7 -36q-2 -10 -11 -10h-88q-10 0 -8 10l23 128q2 10 11 10h272q11 0 9 -10l-16 -86q-1 -8 -6 -17l-166 -283q-6 -10 -15 -10z" />
    <glyph glyph-name="eight.inferior" unicode="&#x2088;" horiz-adv-x="354" 
d="M113 -163q-60 0 -96.5 28t-36.5 77q0 70 62 113v1q-24 24 -24 59q0 59 50 100.5t119 41.5q60 0 92.5 -29t32.5 -74q0 -56 -50 -98v-1q30 -30 30 -68q0 -66 -52.5 -108t-126.5 -42zM158 95q17 0 28.5 12.5t11.5 31.5q0 12 -7.5 19.5t-20.5 7.5q-17 0 -28.5 -12.5
t-11.5 -31.5q0 -12 7.5 -19.5t20.5 -7.5zM129 -72q20 0 34 14.5t14 35.5q0 15 -9.5 24t-24.5 9q-20 0 -34 -14.5t-14 -35.5q0 -14 9.5 -23.5t24.5 -9.5z" />
    <glyph glyph-name="nine.inferior" unicode="&#x2089;" horiz-adv-x="354" 
d="M132 -156h-107q-4 0 -5.5 3t1.5 7l99 139v1q-3 -1 -13 -1q-45 0 -72.5 27.5t-27.5 72.5q0 70 51.5 117t128.5 47q61 0 96 -29.5t35 -79.5q0 -61 -58 -142l-111 -152q-8 -10 -17 -10zM156 82q20 0 34 15t14 35q0 33 -33 33q-19 0 -33 -14.5t-14 -34.5q0 -34 32 -34z" />
    <glyph glyph-name="Euro" unicode="&#x20ac;" 
d="M276 -12q-89 0 -139 44.5t-50 131.5q0 24 7 70q2 6 -5 6h-37q-10 0 -8 10l11 60q2 10 11 10h38q6 0 7 6l5 32q2 6 -5 6h-37q-10 0 -8 10l11 59q2 10 11 10h37q5 0 7 6q10 61 31 101q70 142 237 142q75 0 119.5 -33.5t59.5 -90.5q3 -10 -7 -14l-121 -50q-11 -4 -14 6
q-14 48 -57 48q-44 0 -67 -47q-11 -21 -18 -62q-1 -6 5 -6h146q11 0 9 -10l-21 -59q-3 -10 -12 -10h-136q-6 0 -7 -6l-5 -32q-2 -6 5 -6h126q11 0 8 -10l-21 -60q-3 -10 -12 -10h-115q-5 0 -7 -6q-7 -36 -7 -52q0 -60 51 -60q43 0 75 49q7 10 15 5l105 -50q9 -5 3 -14
q-76 -124 -224 -124z" />
    <glyph glyph-name="afii61289" unicode="&#x2113;" horiz-adv-x="457" 
d="M72 136q-8 -6 -13 2l-36 69q-5 9 4 14l97 66l31 178q40 227 201 227q56 0 88 -32t32 -89q0 -157 -221 -329l-15 -86q-9 -46 28 -46q22 0 54 23q8 7 12 -2l38 -72q2 -7 -5 -14q-72 -57 -145 -57q-72 0 -103.5 42.5t-17.5 121.5v4zM299 492l-18 -99q83 90 83 165
q0 28 -19 28q-29 0 -46 -94z" />
    <glyph glyph-name="trademark" unicode="&#x2122;" horiz-adv-x="840" 
d="M831 286h-76q-10 0 -10 10v192h-2l-61 -137q-4 -10 -14 -10h-45q-10 0 -14 10l-60 137h-3v-192q0 -10 -10 -10h-75q-10 0 -10 10v374q0 10 10 10h78q10 0 14 -10l92 -204h4l90 204q4 10 15 10h77q10 0 10 -10v-374q0 -10 -10 -10zM286 286h-85q-10 0 -10 10v286q0 6 -6 6
h-93q-10 0 -10 10v72q0 10 10 10h303q10 0 10 -10v-72q0 -10 -10 -10h-93q-6 0 -6 -6v-286q0 -10 -10 -10z" />
    <glyph glyph-name="estimated" unicode="&#x212e;" horiz-adv-x="569" 
d="M290 -12q-106 0 -172 74t-66 182q0 109 65.5 181.5t172.5 72.5t172.5 -70.5t66.5 -183.5h-373v-167q55 -53 134 -53q114 0 177 110l33 -21q-44 -66 -92 -95.5t-118 -29.5zM425 278v133q-62 56 -135 56q-78 0 -134 -56v-133h269z" />
    <glyph glyph-name="onethird" unicode="&#x2153;" horiz-adv-x="914" 
d="M246 -12h-97q-11 0 -3 10l502 684q7 10 17 10h98q11 0 3 -10l-502 -684q-7 -10 -18 -10zM277 274h-99q-10 0 -8 10l48 274h-2l-70 -39q-4 -2 -7 0t-2 6l16 94q1 10 12 15l67 40q10 6 21 6h95q11 0 9 -10l-68 -386q-2 -10 -12 -10zM656 -7q-60 0 -94 27t-36 75q0 10 9 12
l88 13q8 1 11 -7q9 -27 33 -27q18 0 30.5 13t12.5 32q0 30 -36 30h-13q-10 0 -8 10l12 71q2 10 12 10h12q19 0 31 11.5t12 31.5q0 25 -27 25q-24 0 -37 -24q-5 -10 -13 -8l-84 14q-9 2 -6 11q16 44 59 72t103 28q59 0 91.5 -26t32.5 -68q0 -66 -61 -102v-1q36 -20 36 -69
q0 -70 -48.5 -112t-121.5 -42z" />
    <glyph glyph-name="twothirds" unicode="&#x2154;" horiz-adv-x="1001" 
d="M333 -12h-97q-11 0 -3 10l502 684q7 10 17 10h98q11 0 3 -10l-502 -684q-7 -10 -18 -10zM374 274h-268q-10 0 -8 10l14 73q1 10 11 18l166 139q31 27 31 55q0 25 -26 25q-29 0 -41 -38q-3 -10 -12 -8l-86 12q-8 2 -6 11q13 51 57 83.5t111 32.5q56 0 88 -28t32 -74
q0 -71 -74 -130l-97 -82v-1h125q10 0 8 -10l-13 -78q-2 -10 -12 -10zM743 -7q-60 0 -94 27t-36 75q0 10 9 12l88 13q8 1 11 -7q9 -27 33 -27q18 0 30.5 13t12.5 32q0 30 -36 30h-13q-10 0 -8 10l12 71q2 10 12 10h12q19 0 31 11.5t12 31.5q0 25 -27 25q-24 0 -37 -24
q-5 -10 -13 -8l-84 14q-9 2 -6 11q16 44 59 72t103 28q59 0 91.5 -26t32.5 -68q0 -66 -61 -102v-1q36 -20 36 -69q0 -70 -48.5 -112t-121.5 -42z" />
    <glyph glyph-name="oneeighth" unicode="&#x215b;" horiz-adv-x="913" 
d="M246 -12h-97q-11 0 -3 10l502 684q7 10 17 10h98q11 0 3 -10l-502 -684q-7 -10 -18 -10zM277 274h-99q-10 0 -8 10l48 274h-2l-70 -39q-4 -2 -7 0t-2 6l16 94q1 10 12 15l67 40q10 6 21 6h95q11 0 9 -10l-68 -386q-2 -10 -12 -10zM651 -7q-60 0 -96.5 28t-36.5 77
q0 70 62 113v1q-24 24 -24 59q0 59 50 100.5t119 41.5q60 0 92.5 -29t32.5 -74q0 -56 -50 -98v-1q30 -30 30 -68q0 -66 -52.5 -108t-126.5 -42zM696 251q17 0 28.5 12.5t11.5 31.5q0 12 -7.5 19.5t-20.5 7.5q-17 0 -28.5 -12.5t-11.5 -31.5q0 -12 7.5 -19.5t20.5 -7.5z
M667 84q20 0 34 14.5t14 35.5q0 15 -9.5 24t-24.5 9q-20 0 -34 -14.5t-14 -35.5q0 -14 9.5 -23.5t24.5 -9.5z" />
    <glyph glyph-name="threeeighths" unicode="&#x215c;" horiz-adv-x="969" 
d="M302 -12h-97q-11 0 -3 10l502 684q7 10 17 10h98q11 0 3 -10l-502 -684q-7 -10 -18 -10zM707 -7q-60 0 -96.5 28t-36.5 77q0 70 62 113v1q-24 24 -24 59q0 59 50 100.5t119 41.5q60 0 92.5 -29t32.5 -74q0 -56 -50 -98v-1q30 -30 30 -68q0 -66 -52.5 -108t-126.5 -42z
M752 251q17 0 28.5 12.5t11.5 31.5q0 12 -7.5 19.5t-20.5 7.5q-17 0 -28.5 -12.5t-11.5 -31.5q0 -12 7.5 -19.5t20.5 -7.5zM723 84q20 0 34 14.5t14 35.5q0 15 -9.5 24t-24.5 9q-20 0 -34 -14.5t-14 -35.5q0 -14 9.5 -23.5t24.5 -9.5zM242 267q-60 0 -94 27t-36 75
q0 10 9 12l88 13q8 1 11 -7q9 -27 33 -27q18 0 30.5 13t12.5 32q0 30 -36 30h-13q-10 0 -8 10l12 71q2 10 12 10h12q19 0 31 11.5t12 31.5q0 25 -27 25q-24 0 -37 -24q-5 -10 -13 -8l-84 14q-9 2 -6 11q16 44 59 72t103 28q59 0 91.5 -26t32.5 -68q0 -66 -61 -102v-1
q36 -20 36 -69q0 -70 -48.5 -112t-121.5 -42z" />
    <glyph glyph-name="fiveeighths" unicode="&#x215d;" horiz-adv-x="969" 
d="M302 -12h-97q-11 0 -3 10l502 684q7 10 17 10h98q11 0 3 -10l-502 -684q-7 -10 -18 -10zM707 -7q-60 0 -96.5 28t-36.5 77q0 70 62 113v1q-24 24 -24 59q0 59 50 100.5t119 41.5q60 0 92.5 -29t32.5 -74q0 -56 -50 -98v-1q30 -30 30 -68q0 -66 -52.5 -108t-126.5 -42z
M752 251q17 0 28.5 12.5t11.5 31.5q0 12 -7.5 19.5t-20.5 7.5q-17 0 -28.5 -12.5t-11.5 -31.5q0 -12 7.5 -19.5t20.5 -7.5zM723 84q20 0 34 14.5t14 35.5q0 15 -9.5 24t-24.5 9q-20 0 -34 -14.5t-14 -35.5q0 -14 9.5 -23.5t24.5 -9.5zM242 267q-115 0 -121 92q0 11 9 13
l86 16q10 2 12 -6q6 -21 29 -21t33 19q10 20 10 42q0 29 -26 29q-14 0 -28 -12q-6 -6 -13 -6h-88q-10 0 -8 10l40 227q2 10 11 10h248q11 0 9 -10l-13 -75q-2 -11 -11 -11h-150q-6 0 -7 -5l-10 -53h1q25 18 64 18q47 0 73 -23.5t26 -69.5q0 -55 -21 -99q-41 -85 -155 -85z
" />
    <glyph glyph-name="seveneighths" unicode="&#x215e;" horiz-adv-x="892" 
d="M225 -12h-97q-11 0 -3 10l502 684q7 10 17 10h98q11 0 3 -10l-502 -684q-7 -10 -18 -10zM630 -7q-60 0 -96.5 28t-36.5 77q0 70 62 113v1q-24 24 -24 59q0 59 50 100.5t119 41.5q60 0 92.5 -29t32.5 -74q0 -56 -50 -98v-1q30 -30 30 -68q0 -66 -52.5 -108t-126.5 -42z
M675 251q17 0 28.5 12.5t11.5 31.5q0 12 -7.5 19.5t-20.5 7.5q-17 0 -28.5 -12.5t-11.5 -31.5q0 -12 7.5 -19.5t20.5 -7.5zM646 84q20 0 34 14.5t14 35.5q0 15 -9.5 24t-24.5 9q-20 0 -34 -14.5t-14 -35.5q0 -14 9.5 -23.5t24.5 -9.5zM243 274h-103q-10 0 -5 12l174 296l1 2
h-58q-6 0 -7 -6l-7 -36q-2 -10 -11 -10h-88q-10 0 -8 10l23 128q2 10 11 10h272q11 0 9 -10l-16 -86q-1 -8 -6 -17l-166 -283q-6 -10 -15 -10z" />
    <glyph glyph-name="partialdiff" unicode="&#x2202;" horiz-adv-x="534" 
d="M208 -12q-81 0 -129 49t-48 128q0 105 69 179t177 74q66 0 102 -40h1q8 32 8 60q0 56 -24.5 87t-67.5 31q-46 0 -98 -36q-9 -6 -14 3l-43 86q-4 9 4 15q36 30 87.5 49t100.5 19q99 0 153 -61.5t54 -173.5q0 -63 -16.5 -140.5t-46.5 -138.5q-91 -190 -269 -190zM239 122
q71 0 114 136q-37 32 -77 32q-41 0 -67.5 -32.5t-26.5 -76.5q0 -27 15 -43t42 -16z" />
    <glyph glyph-name="product" unicode="&#x220f;" horiz-adv-x="667" 
d="M599 -180h-156q-10 0 -10 10v748q0 6 -6 6h-187q-6 0 -6 -6v-748q0 -10 -10 -10h-156q-10 0 -10 10v900q0 10 10 10h531q10 0 10 -10v-900q0 -10 -10 -10z" />
    <glyph glyph-name="summation" unicode="&#x2211;" horiz-adv-x="550" 
d="M513 -180h-475q-10 0 -10 10v132q0 5 2 9l169 345l-164 267q-3 6 -3 11v136q0 10 10 10h461q10 0 10 -10v-136q0 -10 -10 -10h-273l152 -251q3 -7 0 -14l-165 -343h296q10 0 10 -10v-136q0 -10 -10 -10z" />
    <glyph glyph-name="minus" unicode="&#x2212;" 
d="M502 209h-441q-10 0 -10 10v114q0 10 10 10h441q10 0 10 -10v-114q0 -10 -10 -10z" />
    <glyph glyph-name="uni2215" unicode="&#x2215;" horiz-adv-x="237" 
d="M-68 -12h-97q-11 0 -3 10l502 684q7 10 17 10h98q11 0 3 -10l-502 -684q-7 -10 -18 -10z" />
    <glyph glyph-name="uni2219" unicode="&#x2219;" horiz-adv-x="245" 
d="M186 188h-133q-11 0 -9 10l23 134q2 10 11 10h134q11 0 9 -10l-24 -134q-2 -10 -11 -10z" />
    <glyph glyph-name="radical" unicode="&#x221a;" horiz-adv-x="646" 
d="M309 -180h-110q-10 0 -11 10l-70 238q-2 6 -9 3l-61 -29q-10 -5 -12 4l-26 83q-3 10 6 13l183 83q10 5 13 -4l55 -203h3l306 712q5 10 14 10h127q11 0 6 -10l-398 -900q-6 -10 -16 -10z" />
    <glyph glyph-name="infinity" unicode="&#x221e;" horiz-adv-x="743" 
d="M548 76q-86 0 -175 89q-88 -89 -175 -89q-73 0 -120.5 47t-47.5 123t48 123.5t122 47.5q44 0 84 -21.5t89 -70.5q49 50 88.5 71t85.5 21q74 0 122 -47t48 -124q0 -75 -47.5 -122.5t-121.5 -47.5zM543 181q30 0 46.5 19.5t16.5 47.5q0 27 -16.5 45.5t-46.5 18.5
q-21 0 -42 -13.5t-56 -52.5q59 -65 98 -65zM204 181q37 0 97 65q-59 66 -97 66q-30 0 -46.5 -18t-16.5 -46q0 -29 17 -48t46 -19z" />
    <glyph glyph-name="integral" unicode="&#x222b;" horiz-adv-x="394" 
d="M29 -180q-35 0 -52 4q-9 2 -8 11l19 110q2 11 12 11q1 0 12 -1.5t17 -1.5q23 0 35 14.5t19 50.5l91 514q19 111 71 159.5t146 48.5q36 0 52 -4q9 -2 8 -11l-19 -110q-2 -11 -12 -11q-27 3 -28 3q-23 0 -35.5 -14.5t-19.5 -50.5l-91 -514q-20 -111 -71.5 -159.5
t-145.5 -48.5z" />
    <glyph glyph-name="approxequal" unicode="&#x2248;" 
d="M369 293q-51 0 -100 33q-43 26 -63 26q-36 0 -64 -48q-5 -8 -14 -3l-78 49q-7 6 -4 14q23 50 62 80.5t86 30.5t100 -34q41 -25 64 -25q34 0 63 47q6 10 14 3l78 -49q8 -5 4 -14q-22 -50 -61.5 -80t-86.5 -30zM369 75q-49 0 -100 34q-41 25 -63 25q-36 0 -64 -46
q-5 -8 -14 -4l-78 49q-7 6 -4 14q22 50 61.5 80t86.5 30q49 0 100 -33q43 -26 64 -26q35 0 63 48q5 8 14 3l78 -49q8 -6 4 -14q-23 -50 -62 -80.5t-86 -30.5z" />
    <glyph glyph-name="notequal" unicode="&#x2260;" 
d="M190 -6h-84q-4 0 -6 3t0 7l47 95h-79q-10 0 -10 10v115q0 10 10 10h147l42 84h-189q-10 0 -10 10v115q0 10 10 10h257l48 95q4 10 14 10h84q5 0 6.5 -3t-0.5 -7l-48 -95h80q10 0 10 -10v-115q0 -10 -10 -10h-148l-42 -84h190q10 0 10 -10v-115q0 -10 -10 -10h-258
l-47 -95q-4 -10 -14 -10z" />
    <glyph glyph-name="lessequal" unicode="&#x2264;" 
d="M504 168l-441 166q-10 3 -10 14v99q0 10 10 13l441 167q10 3 10 -7v-124q0 -9 -10 -13l-244 -85v-2l244 -84q10 -4 10 -13v-124q0 -10 -10 -7zM504 0h-441q-10 0 -10 10v115q0 10 10 10h441q10 0 10 -10v-115q0 -10 -10 -10z" />
    <glyph glyph-name="greaterequal" unicode="&#x2265;" 
d="M504 334l-441 -166q-10 -3 -10 7v124q0 9 10 13l243 84v2l-243 85q-10 4 -10 13v124q0 10 10 7l441 -167q10 -3 10 -13v-99q0 -11 -10 -14zM504 0h-441q-10 0 -10 10v115q0 10 10 10h441q10 0 10 -10v-115q0 -10 -10 -10z" />
    <glyph glyph-name="lozenge" unicode="&#x25ca;" horiz-adv-x="546" 
d="M283 -52h-112q-10 0 -11 10l-104 364q-1 7 3 14l231 364q6 10 16 10h111q10 0 13 -10l104 -364q1 -7 -3 -14l-232 -364q-6 -10 -16 -10zM251 98l152 239l-62 223h-2l-152 -239l62 -223h2z" />
    <glyph glyph-name="uniF8FF" unicode="&#xf8ff;" horiz-adv-x="530" 
d="M520 0h-510q-10 0 -10 10v660q0 10 10 10h510q10 0 10 -10v-660q0 -10 -10 -10zM445 75q6 0 6 6v518q0 6 -6 6h-360q-6 0 -6 -6v-518q0 -6 6 -6h360zM300 249h-81q-10 0 -10 10v24q0 29 20 54l39 47q28 32 28 51q0 17 -10 27t-26 10q-33 0 -41 -34q-3 -10 -12 -9l-76 10
q-10 2 -8 11q8 52 45.5 82.5t96.5 30.5q61 0 98.5 -34.5t37.5 -85.5q0 -49 -40 -92l-38 -47q-13 -14 -13 -35v-10q0 -10 -10 -10zM301 113h-83q-10 0 -10 10v75q0 10 10 10h83q10 0 10 -10v-75q0 -10 -10 -10z" />
    <glyph glyph-name="CR" horiz-adv-x="0" 
 />
    <glyph glyph-name="grave.cap" horiz-adv-x="475" 
d="M447 747h-106q-9 0 -18 10l-101 122q-3 4 -1.5 7t6.5 3h129q12 0 19 -10l78 -122q2 -4 0.5 -7t-6.5 -3z" />
    <glyph glyph-name="acute.cap" horiz-adv-x="475" 
d="M321 747h-109q-4 0 -5.5 3t1.5 7l119 122q10 10 22 10h135q5 0 6.5 -3t-2.5 -7l-145 -122q-11 -10 -22 -10z" />
    <glyph glyph-name="circumflex.cap" horiz-adv-x="475" 
d="M491 742h-87q-12 0 -19 10l-39 51h-1l-58 -51q-10 -10 -24 -10h-95q-5 0 -6 3t3 7l128 136q9 10 20 10h87q11 0 17 -10l80 -136q2 -4 0.5 -7t-6.5 -3z" />
    <glyph glyph-name="caron.cap" horiz-adv-x="475" 
d="M372 736h-86q-12 0 -18 10l-80 136q-2 4 0 7t6 3h87q13 0 20 -10l38 -51h2l57 51q10 10 24 10h95q5 0 6 -3t-2 -7l-129 -136q-9 -10 -20 -10z" />
    <glyph glyph-name="caron.alt" horiz-adv-x="475" 
d="M235 476q-12 0 -10 12l32 182q2 10 11 10h105q11 0 9 -10l-17 -92q-1 -14 -12 -21l-102 -74q-10 -7 -16 -7z" />
    <glyph glyph-name="tilde.cap" horiz-adv-x="475" 
d="M399 742q-39 0 -78 24q-29 17 -54 17q-37 0 -78 -32q-4 -3 -7.5 -1.5t-2.5 5.5l14 78q2 13 13 22q43 36 84 36q36 0 78 -24q27 -17 54 -17q37 0 78 32q4 3 7.5 1.5t2.5 -5.5l-14 -79q-2 -12 -13 -21q-41 -36 -84 -36z" />
    <glyph glyph-name="dieresis.cap" horiz-adv-x="475" 
d="M485 752h-105q-10 0 -8 10l19 107q2 10 12 10h104q10 0 8 -10l-19 -107q-2 -10 -11 -10zM287 752h-105q-11 0 -9 10l20 107q2 10 12 10h104q10 0 8 -10l-19 -107q-2 -10 -11 -10z" />
    <glyph glyph-name="macron.cap" horiz-adv-x="475" 
d="M481 763h-291q-10 0 -8 10l15 87q2 10 11 10h291q10 0 8 -10l-15 -87q-2 -10 -11 -10z" />
    <glyph glyph-name="breve.cap" horiz-adv-x="475" 
d="M332 735q-66 0 -103 39t-29 99q2 12 13 12h62q11 0 14 -11q8 -41 58 -41q52 0 75 41q6 11 17 11h62q12 0 10 -11q-11 -59 -63 -99t-116 -40z" />
    <glyph glyph-name="ring.cap" horiz-adv-x="475" 
d="M327 706q-42 0 -68.5 25t-26.5 65q0 56 37 95t95 39q42 0 68.5 -25t26.5 -65q0 -56 -37 -95t-95 -39zM337 772q21 0 36 16.5t15 40.5q0 15 -9.5 25t-24.5 10q-21 0 -36 -16t-15 -40q0 -16 9 -26t25 -10z" />
    <glyph glyph-name="hungarumlaut.cap" horiz-adv-x="475" 
d="M416 748h-91q-5 0 -6.5 3t1.5 7l94 118q6 10 18 10h108q5 0 6.5 -3t-1.5 -7l-108 -118q-9 -10 -21 -10zM238 748h-92q-4 0 -5.5 3t1.5 7l94 118q6 10 18 10h108q5 0 6.5 -3t-1.5 -7l-108 -118q-9 -10 -21 -10z" />
    <glyph glyph-name="dotaccent.cap" horiz-adv-x="475" 
d="M400 752h-133q-10 0 -8 10l19 107q2 10 11 10h133q10 0 8 -10l-19 -107q-2 -10 -11 -10z" />
    <glyph glyph-name="commaaccent" horiz-adv-x="475" 
d="M102 -244q-11 0 -9 11l31 177q2 10 11 10h115q11 0 9 -10l-15 -87q-3 -15 -13 -21l-112 -73q-11 -7 -17 -7z" />
    <glyph glyph-name="commaaccent.alt" horiz-adv-x="475" 
d="M356 550h-115q-10 0 -8 10l14 87q3 14 14 21l111 73q13 8 17 8q11 0 9 -13l-30 -176q-2 -10 -12 -10z" />
    <glyph glyph-name="uni0394" horiz-adv-x="657" 
d="M601 0h-619q-11 0 -6 10l345 660q5 10 14 10h156q10 0 12 -10l106 -660q2 -10 -8 -10zM416 144q6 0 5 6l-38 330h-2l-156 -329q-3 -7 3 -7h188z" />
    <glyph glyph-name="uni03A9" horiz-adv-x="616" 
d="M527 0h-215q-11 0 -9 10l20 113q1 9 12 14q36 18 55 59.5t37 143.5q16 93 16 121q0 78 -76 80q-65 0 -97 -63q-15 -31 -35 -138q-15 -84 -15 -122q0 -60 37 -81q7 -4 6 -14l-20 -113q-2 -10 -10 -10h-215q-11 0 -9 10l22 118q2 10 11 10h47v1q-34 32 -34 109q0 40 9 92
q23 130 52 186q86 166 278 166q102 0 161.5 -54.5t59.5 -157.5q0 -45 -17 -140q-25 -153 -94 -201l-1 -1h47q10 0 8 -10l-21 -118q-2 -10 -10 -10z" />
    <glyph glyph-name="uni03BC" horiz-adv-x="541" 
d="M443 0h-142q-11 0 -9 10l7 38h-1q-34 -45 -82 -52q-24 -1 -38 9h-1l-30 -175q-3 -10 -11 -10h-143q-11 0 -8 10l113 647q2 10 12 10h143q9 0 7 -10l-49 -279q-13 -74 44 -74q27 0 45.5 19.5t24.5 54.5l50 279q2 10 11 10h142q10 0 8 -10l-82 -467q-2 -10 -11 -10z" />
    <glyph glyph-name="zero.onum" 
d="M232 -12q-98 0 -155.5 56.5t-57.5 148.5q0 133 85 219t217 86q98 0 156 -56.5t58 -148.5q0 -133 -85.5 -219t-217.5 -86zM257 133q49 0 82 39.5t33 93.5q0 40 -19.5 63.5t-56.5 23.5q-49 0 -82 -39.5t-33 -93.5q0 -40 19.5 -63.5t56.5 -23.5z" />
    <glyph glyph-name="one.onum" 
d="M347 0h-143q-10 0 -8 10l57 321h-2l-134 -48q-5 -2 -8.5 -0.5t-2.5 7.5l23 125q1 10 11 14l136 53q12 4 21 4h135q11 0 9 -10l-83 -466q-2 -10 -11 -10z" />
    <glyph glyph-name="two.onum" 
d="M441 0h-416q-11 0 -9 10l17 94q1 10 11 15l218 117q47 25 66 45t19 44q0 21 -13.5 33t-38.5 12q-57 0 -80 -58q-3 -10 -13 -8l-123 18q-8 2 -6 11q19 72 86.5 118.5t163.5 46.5q85 0 135.5 -40t50.5 -105q0 -59 -29.5 -100.5t-92.5 -75.5l-95 -50l-1 -2h171q10 0 8 -10
l-18 -105q-2 -10 -11 -10z" />
    <glyph glyph-name="three.onum" 
d="M198 -192q-94 0 -145.5 46.5t-47.5 121.5q0 10 9 11l128 21q10 2 10 -8q2 -26 18.5 -42t44.5 -16q38 0 62 28.5t24 71.5q0 62 -83 62h-39q-10 0 -8 10l18 106q3 12 11 20l108 109v2h-212q-10 0 -8 10l21 115q2 10 11 10h389q11 0 9 -10l-20 -109q-1 -8 -9 -18l-139 -138
v-2q109 -26 109 -141t-73.5 -187.5t-187.5 -72.5z" />
    <glyph glyph-name="four.onum" 
d="M381 -180h-137q-10 0 -8 10l29 164q1 6 -4 6h-250q-10 0 -8 10l21 122q1 9 7 16l210 330q3 8 15 8h150q12 0 5 -10l-213 -335l-1 -2h87q6 0 8 6l20 119q2 10 12 10h138q9 0 7 -10l-20 -119q-1 -6 3 -6h39q10 0 8 -10l-21 -119q-2 -10 -11 -10h-37q-6 0 -8 -6l-29 -164
q-2 -10 -12 -10z" />
    <glyph glyph-name="five.onum" 
d="M213 -192q-90 0 -137 44.5t-47 117.5q0 10 9 11l130 20q8 1 10 -9q7 -50 55 -50q45 0 64 40q22 44 22 94q0 55 -51 55q-41 0 -60 -35q-5 -10 -14 -10h-124q-10 0 -8 10l67 380q2 10 11 10h382q11 0 9 -10l-21 -115q-2 -10 -11 -10h-250q-5 0 -7 -6l-21 -120h3
q40 38 108 38q149 0 149 -147q0 -100 -39 -181q-63 -127 -229 -127z" />
    <glyph glyph-name="six.onum" 
d="M236 -12q-89 0 -142.5 47.5t-53.5 127.5q0 99 87 225l196 285q6 7 13 7h152q14 0 5 -11l-175 -256v-1q12 6 35 6q70 0 113 -44.5t43 -118.5q0 -113 -77 -190t-196 -77zM259 122q38 0 65 30t27 73q0 30 -16.5 47.5t-46.5 17.5q-38 0 -65 -30t-27 -73q0 -29 17 -47t46 -18z
" />
    <glyph glyph-name="seven.onum" 
d="M215 -180h-149q-5 0 -6.5 3t0.5 8l288 513v2h-113q-5 0 -7 -6l-13 -65q-2 -10 -11 -10h-132q-9 0 -7 10l36 201q2 10 11 10h419q10 0 8 -10l-21 -119q-2 -11 -8 -21l-281 -506q-5 -10 -14 -10z" />
    <glyph glyph-name="eight.onum" 
d="M236 -12q-89 0 -144.5 46t-55.5 124q0 58 27.5 110t78.5 85l1 2q-40 38 -40 102q0 94 71.5 164.5t183.5 70.5q88 0 137 -46.5t49 -117.5q0 -107 -88 -173l-1 -2q53 -42 53 -116q0 -105 -78.5 -177t-193.5 -72zM310 418q32 0 55.5 25t23.5 60q0 25 -14 40t-39 15
q-32 0 -55.5 -25t-23.5 -60q0 -25 14 -40t39 -15zM259 122q39 0 66 29t27 71q0 29 -17.5 47t-47.5 18q-39 0 -66 -29t-27 -71q0 -29 18 -47t47 -18z" />
    <glyph glyph-name="nine.onum" 
d="M230 -180h-150q-13 0 -6 11l167 243l-1 1q-8 -6 -34 -6q-71 0 -114 44.5t-43 118.5q0 113 77 189.5t196 76.5q90 0 143.5 -47.5t53.5 -127.5q0 -96 -88 -225l-187 -271q-6 -7 -14 -7zM270 196q38 0 65 30t27 73q0 30 -16.5 48t-46.5 18q-38 0 -65 -30t-27 -73
q0 -30 17 -48t46 -18z" />
    <glyph glyph-name="zero.prop" 
d="M46 162q0 59 25.5 200t48.5 190q69 140 233 140q86 0 138 -45.5t52 -128.5q0 -60 -25 -201t-49 -189q-68 -140 -232 -140q-86 0 -138.5 45.5t-52.5 128.5zM209 171q0 -23 12.5 -36t35.5 -13q40 0 59 39q13 25 39 167.5t26 180.5q0 49 -48 49q-40 0 -59 -39
q-12 -26 -38.5 -168.5t-26.5 -179.5z" />
    <glyph glyph-name="one.prop" horiz-adv-x="409" 
d="M109 10l88 494h-2l-125 -77q-5 -3 -8 -1.5t-2 7.5l24 141q1 9 8 14l135 86q9 6 18 6h135q11 0 9 -10l-117 -660q-2 -10 -11 -10h-143q-11 0 -9 10z" />
    <glyph glyph-name="two.prop" horiz-adv-x="510" 
d="M1 10l20 108q1 9 9 15l274 271q55 55 55 103q0 51 -50 51q-62 0 -82 -78q-2 -11 -12 -9l-124 20q-8 1 -6 11q20 85 86 137.5t167 52.5q84 0 134 -45t50 -115q0 -108 -104 -209l-191 -185v-2h218q11 0 9 -10l-21 -116q-2 -10 -11 -10h-413q-10 0 -8 10z" />
    <glyph glyph-name="three.prop" horiz-adv-x="526" 
d="M27 155q0 10 10 12l131 21q10 2 10 -8q5 -58 62 -58q36 0 60 28.5t24 69.5q0 30 -17 46.5t-48 16.5h-27q-10 0 -8 10l19 112q3 10 12 10h25q36 0 59 26t23 65q0 24 -13 38t-37 14q-51 0 -74 -57q-4 -9 -12 -8l-125 20q-8 2 -5 12q26 75 91 121t157 46q87 0 134.5 -42
t47.5 -109q0 -117 -102 -177v-2q61 -36 61 -121q0 -111 -75 -182t-187 -71q-92 0 -145 45.5t-51 121.5z" />
    <glyph glyph-name="four.prop" horiz-adv-x="549" 
d="M27 98q-10 0 -8 10l22 122q1 7 6 14l253 427q4 9 16 9h150q12 0 5 -10l-254 -431l-1 -3h90q7 0 7 6l22 124q2 10 12 10h134q11 0 9 -10l-22 -124q-2 -6 4 -6h37q11 0 9 -10l-21 -118q-2 -10 -11 -10h-38q-6 0 -7 -6l-14 -82q-2 -10 -11 -10h-135q-11 0 -9 10l14 82
q2 6 -5 6h-254z" />
    <glyph glyph-name="five.prop" horiz-adv-x="517" 
d="M38 150q0 10 9 11l130 20q8 1 10 -9q7 -50 55 -50q44 0 63 40q9 19 16 52t7 54q0 55 -51 55q-41 0 -60 -35q-5 -10 -14 -10h-124q-10 0 -8 10l67 382q2 10 11 10h382q11 0 9 -10l-21 -116q-2 -10 -11 -10h-249q-5 0 -7 -6l-22 -121h2q42 38 109 38q149 0 149 -147
q0 -107 -42 -193q-63 -127 -226 -127q-90 0 -137 44.5t-47 117.5z" />
    <glyph glyph-name="six.prop" horiz-adv-x="539" 
d="M36 163q0 99 87 225l196 285q6 7 13 7h152q14 0 5 -11l-175 -256l1 -1q10 6 34 6q70 0 113 -44.5t43 -118.5q0 -113 -76.5 -190t-195.5 -77q-90 0 -143.5 47.5t-53.5 127.5zM192 187q0 -29 17 -47t46 -18q38 0 65 30t27 73q0 30 -16.5 47.5t-45.5 17.5q-38 0 -65.5 -30
t-27.5 -73z" />
    <glyph glyph-name="seven.prop" horiz-adv-x="512" 
d="M66 11l297 526v3h-114q-5 0 -7 -6l-12 -65q-2 -10 -11 -10h-132q-10 0 -8 10l36 201q2 10 11 10h419q11 0 9 -10l-22 -119q-2 -12 -7 -22l-290 -519q-5 -10 -15 -10h-149q-12 0 -5 11z" />
    <glyph glyph-name="eight.prop" horiz-adv-x="542" 
d="M36 158q0 58 27.5 110t78.5 85l1 2q-40 38 -40 102q0 94 71.5 164.5t183.5 70.5q88 0 137 -46.5t49 -117.5q0 -107 -88 -173l-1 -2q53 -44 53 -116q0 -105 -78.5 -177t-193.5 -72q-90 0 -145 46t-55 124zM310 418q32 0 55.5 25t23.5 60q0 25 -14 40t-39 15q-32 0 -56 -25
t-24 -60q0 -24 14.5 -39.5t39.5 -15.5zM194 187q0 -29 18 -47t47 -18q39 0 66 29t27 71q0 29 -18 47t-47 18q-39 0 -66 -29t-27 -71z" />
    <glyph glyph-name="nine.prop" horiz-adv-x="539" 
d="M93 11l176 256l-1 1q-8 -5 -34 -5q-71 0 -114 45.5t-43 120.5q0 110 77 186.5t197 76.5q89 0 142.5 -47.5t53.5 -127.5q0 -97 -88 -225l-195 -285q-6 -7 -13 -7h-152q-13 0 -6 11zM298 390q39 0 66 30t27 72q0 30 -16.5 48t-46.5 18q-39 0 -65.5 -30t-26.5 -72
q0 -30 16.5 -48t45.5 -18z" />
    <glyph glyph-name="Euro.prop" horiz-adv-x="543" 
d="M266 -12q-89 0 -139 44.5t-50 131.5q0 24 7 70q2 6 -5 6h-37q-10 0 -8 10l11 60q2 10 11 10h38q6 0 7 6l5 32q2 6 -5 6h-37q-10 0 -8 10l11 59q2 10 11 10h37q5 0 7 6q10 61 31 101q70 142 237 142q75 0 119.5 -33.5t59.5 -90.5q3 -10 -7 -14l-121 -50q-11 -4 -14 6
q-14 48 -57 48q-44 0 -67 -47q-11 -21 -18 -62q-1 -6 5 -6h146q11 0 9 -10l-21 -59q-3 -10 -12 -10h-136q-6 0 -7 -6l-5 -32q-2 -6 5 -6h126q11 0 8 -10l-21 -60q-3 -10 -12 -10h-115q-5 0 -7 -6q-7 -36 -7 -52q0 -60 51 -60q43 0 75 49q7 10 15 5l105 -50q9 -5 3 -14
q-76 -124 -224 -124z" />
    <glyph glyph-name="cent.prop" horiz-adv-x="491" 
d="M441 96q-62 -92 -177 -105l-13 -78q-2 -10 -12 -10h-76q-10 0 -8 10l14 80q-64 13 -101 57.5t-37 113.5q0 112 42 199q54 113 184 132l14 78q2 10 12 10h76q10 0 8 -10l-14 -78q51 -10 84.5 -39t45.5 -71q2 -9 -6 -13l-114 -52q-12 -6 -15 4q-14 42 -57 42q-48 0 -67 -43
q-12 -24 -21 -71.5t-9 -74.5q0 -55 54 -55q42 0 74 45q6 10 16 2l101 -60q8 -4 2 -13z" />
    <glyph glyph-name="dollar.prop" 
d="M18 66q-8 6 1 15l95 97q9 9 15 0q50 -50 113 -50q42 0 68.5 25t26.5 63q0 42 -59 52l-19 3q-77 10 -119.5 55.5t-42.5 114.5q0 99 59 166t154 81l12 67q2 10 12 10h79q10 0 8 -10l-12 -67q76 -10 134 -55q7 -7 -1 -16l-83 -96q-8 -8 -14 -3q-46 34 -96 34
q-38 0 -61.5 -22t-23.5 -57q0 -44 58 -52l24 -4q79 -10 119 -51t40 -107q0 -111 -59 -179.5t-159 -85.5l-12 -69q-2 -10 -12 -10h-79q-10 0 -8 10l11 66q-105 13 -169 75z" />
    <glyph glyph-name="sterling.prop" horiz-adv-x="513" 
d="M426 0h-405q-11 0 -9 10l20 112q2 10 9 14q22 19 32 35t15 46l8 42q2 6 -5 6h-32q-10 0 -8 10l16 92q2 10 11 10h32q6 0 8 6l19 109q17 97 78.5 148.5t155.5 51.5q78 0 119 -41.5t39 -106.5q0 -10 -10 -12l-126 -26q-9 -2 -9 8q-2 44 -34 44q-42 0 -50 -55l-21 -120
q-1 -6 4 -6h121q11 0 9 -10l-17 -92q-2 -10 -11 -10h-121q-6 0 -7 -6l-6 -32q-8 -58 -44 -90l-1 -2h243q11 0 9 -10l-21 -115q-2 -10 -11 -10z" />
    <glyph glyph-name="florin.prop" horiz-adv-x="470" 
d="M420 304h-84l-99 -307q-31 -97 -84 -137t-144 -40h-35q-11 0 -9 10l20 113q2 10 11 10h21q50 0 65 53l97 298h-57q-10 0 -8 10l18 99q2 10 12 10h74l26 80q32 97 85 137t142 40h36q11 0 9 -10l-20 -113q-2 -10 -12 -10h-21q-49 0 -65 -53l-23 -71h66q10 0 8 -10l-18 -99
q-2 -10 -11 -10z" />
    <glyph glyph-name="yen.prop" horiz-adv-x="529" 
d="M297 0h-142q-10 0 -8 10l20 114q1 6 -5 6h-109q-9 0 -7 10l11 60q2 10 11 10h108q6 0 7 6l6 30q1 6 -5 6h-109q-9 0 -7 10l10 60q2 10 11 10h85v2l-81 336q0 10 9 10h146q12 0 13 -10l37 -244h3l123 244q4 10 16 10h150q4 0 5.5 -3t-0.5 -7l-200 -336v-2h85q10 0 8 -10
l-11 -60q-2 -10 -11 -10h-109q-5 0 -7 -6l-5 -30q-1 -6 5 -6h109q9 0 7 -10l-11 -60q-2 -10 -11 -10h-109q-5 0 -6 -6l-21 -114q-2 -10 -11 -10z" />
    <glyph glyph-name="zero.onumprop" horiz-adv-x="564" 
d="M244 -12q-98 0 -155.5 56.5t-57.5 148.5q0 133 85 219t217 86q98 0 156 -56.5t58 -148.5q0 -133 -85.5 -219t-217.5 -86zM269 133q49 0 82 39.5t33 93.5q0 40 -19.5 63.5t-56.5 23.5q-49 0 -82 -39.5t-33 -93.5q0 -40 19.5 -63.5t56.5 -23.5z" />
    <glyph glyph-name="one.onumprop" horiz-adv-x="403" 
d="M271 0h-143q-10 0 -8 10l57 321h-2l-134 -48q-5 -2 -8.5 -0.5t-2.5 7.5l23 125q1 10 11 14l136 53q12 4 21 4h135q11 0 9 -10l-83 -466q-2 -10 -11 -10z" />
    <glyph glyph-name="two.onumprop" horiz-adv-x="520" 
d="M431 0h-416q-11 0 -9 10l17 94q1 10 11 15l218 117q47 25 66 45t19 44q0 21 -13.5 33t-38.5 12q-57 0 -80 -58q-3 -10 -13 -8l-123 18q-8 2 -6 11q19 72 86.5 118.5t163.5 46.5q85 0 135.5 -40t50.5 -105q0 -59 -29.5 -100.5t-92.5 -75.5l-95 -50l-1 -2h171q10 0 8 -10
l-18 -105q-2 -10 -11 -10z" />
    <glyph glyph-name="three.onumprop" horiz-adv-x="499" 
d="M181 -192q-94 0 -145.5 46.5t-47.5 121.5q0 10 9 11l128 21q10 2 10 -8q2 -26 18.5 -42t44.5 -16q38 0 62 28.5t24 71.5q0 62 -83 62h-39q-10 0 -8 10l18 106q3 12 11 20l108 109v2h-212q-10 0 -8 10l21 115q2 10 11 10h389q11 0 9 -10l-20 -109q-1 -8 -9 -18l-139 -138
v-2q109 -26 109 -141t-73.5 -187.5t-187.5 -72.5z" />
    <glyph glyph-name="four.onumprop" horiz-adv-x="530" 
d="M379 -180h-137q-10 0 -8 10l29 164q1 6 -4 6h-250q-10 0 -8 10l21 122q1 9 7 16l210 330q3 8 15 8h150q12 0 5 -10l-213 -335l-1 -2h87q6 0 8 6l20 119q2 10 12 10h138q9 0 7 -10l-20 -119q-1 -6 3 -6h39q10 0 8 -10l-21 -119q-2 -10 -11 -10h-37q-6 0 -8 -6l-29 -164
q-2 -10 -12 -10z" />
    <glyph glyph-name="five.onumprop" horiz-adv-x="512" 
d="M196 -192q-90 0 -137 44.5t-47 117.5q0 10 9 11l130 20q8 1 10 -9q7 -50 55 -50q45 0 64 40q22 44 22 94q0 55 -51 55q-41 0 -60 -35q-5 -10 -14 -10h-124q-10 0 -8 10l67 380q2 10 11 10h382q11 0 9 -10l-21 -115q-2 -10 -11 -10h-250q-6 0 -7 -6l-21 -120h3
q40 38 108 38q149 0 149 -147q0 -100 -39 -181q-63 -127 -229 -127z" />
    <glyph glyph-name="six.onumprop" horiz-adv-x="509" 
d="M225 -12q-89 0 -142.5 47.5t-53.5 127.5q0 99 87 225l196 285q6 7 13 7h152q14 0 5 -11l-175 -256v-1q12 6 35 6q70 0 113 -44.5t43 -118.5q0 -113 -77 -190t-196 -77zM248 122q38 0 65 30t27 73q0 30 -16.5 47.5t-46.5 17.5q-38 0 -65 -30t-27 -73q0 -29 17 -47t46 -18z
" />
    <glyph glyph-name="seven.onumprop" horiz-adv-x="505" 
d="M198 -180h-149q-11 0 -6 11l288 513v2h-113q-6 0 -7 -6l-13 -65q-2 -10 -11 -10h-132q-9 0 -7 10l36 201q2 10 11 10h419q10 0 8 -10l-21 -119q-2 -11 -8 -21l-281 -506q-5 -10 -14 -10z" />
    <glyph glyph-name="eight.onumprop" horiz-adv-x="517" 
d="M228 -12q-89 0 -144.5 46t-55.5 124q0 58 27.5 110t78.5 85l1 2q-40 38 -40 102q0 94 71.5 164.5t183.5 70.5q88 0 137 -46.5t49 -117.5q0 -107 -88 -173l-1 -2q53 -42 53 -116q0 -105 -78.5 -177t-193.5 -72zM302 418q32 0 55.5 25t23.5 60q0 25 -14 40t-39 15
q-32 0 -55.5 -25t-23.5 -60q0 -25 14 -40t39 -15zM251 122q39 0 66 29t27 71q0 29 -17.5 47t-47.5 18q-39 0 -66 -29t-27 -71q0 -29 18 -47t47 -18z" />
    <glyph glyph-name="nine.onumprop" horiz-adv-x="510" 
d="M219 -180h-150q-13 0 -6 11l167 243l-1 1q-7 -6 -34 -6q-71 0 -114 44.5t-43 118.5q0 113 77 189.5t196 76.5q90 0 143.5 -47.5t53.5 -127.5q0 -96 -88 -225l-187 -271q-6 -7 -14 -7zM259 196q38 0 65 30t27 73q0 30 -16.5 48t-46.5 18q-38 0 -65 -30t-27 -73
q0 -30 17 -48t46 -18z" />
    <glyph glyph-name="one.superior" horiz-adv-x="354" 
d="M296 430h-99q-10 0 -8 10l48 274h-2l-70 -39q-4 -2 -7 0t-2 6l16 94q1 10 12 15l67 40q11 6 21 6h95q11 0 9 -10l-68 -386q-2 -10 -12 -10z" />
    <glyph glyph-name="two.superior" horiz-adv-x="354" 
d="M349 430h-268q-10 0 -8 10l14 73q1 10 11 18l166 139q31 27 31 55q0 25 -26 25q-29 0 -41 -38q-3 -10 -12 -8l-86 12q-8 2 -6 11q13 51 57 83.5t111 32.5q56 0 88 -28t32 -74q0 -71 -74 -130l-97 -82v-1h125q10 0 8 -10l-13 -78q-2 -10 -12 -10z" />
    <glyph glyph-name="three.superior" horiz-adv-x="354" 
d="M216 423q-60 0 -94 27t-36 75q0 10 9 12l88 13q8 1 11 -7q9 -27 33 -27q18 0 30.5 13t12.5 32q0 30 -36 30h-13q-10 0 -8 10l12 71q2 10 12 10h12q19 0 31 11.5t12 31.5q0 25 -27 25q-24 0 -37 -24q-5 -10 -13 -8l-84 14q-9 2 -6 11q16 44 59 72t103 28q59 0 91.5 -26
t32.5 -68q0 -66 -61 -102v-1q36 -20 36 -69q0 -70 -48.5 -112t-121.5 -42z" />
    <glyph glyph-name="a.alt01" horiz-adv-x="538" 
d="M441 0h-143q-10 0 -8 10l6 37h-1q-46 -59 -131 -59q-137 0 -137 159q0 53 15 125.5t38 118.5q54 108 173 108q86 0 111 -60h1l7 38q2 10 10 10h143q11 0 9 -10l-82 -467q-2 -10 -11 -10zM244 121q44 0 66 44q9 19 18.5 68t9.5 73q0 60 -51 60q-44 0 -66 -44
q-9 -19 -18.5 -68t-9.5 -73q0 -60 51 -60z" />
    <glyph glyph-name="agrave.alt01" horiz-adv-x="537" 
d="M441 0h-143q-10 0 -8 10l6 37h-1q-46 -59 -131 -59q-137 0 -137 159q0 53 15 125.5t38 118.5q54 108 173 108q86 0 111 -60h1l7 38q2 10 10 10h143q11 0 9 -10l-82 -467q-2 -10 -11 -10zM244 121q44 0 66 44q9 19 18.5 68t9.5 73q0 60 -51 60q-44 0 -66 -44
q-9 -19 -18.5 -68t-9.5 -73q0 -60 51 -60zM397 546h-100q-11 0 -18 10l-74 136q-2 4 0 7t7 3h125q12 0 15 -10l53 -136q3 -10 -8 -10z" />
    <glyph glyph-name="aacute.alt01" horiz-adv-x="537" 
d="M441 0h-143q-10 0 -8 10l6 37h-1q-46 -59 -131 -59q-137 0 -137 159q0 53 15 125.5t38 118.5q54 108 173 108q86 0 111 -60h1l7 38q2 10 10 10h143q11 0 9 -10l-82 -467q-2 -10 -11 -10zM244 121q44 0 66 44q9 19 18.5 68t9.5 73q0 60 -51 60q-44 0 -66 -44
q-9 -19 -18.5 -68t-9.5 -73q0 -60 51 -60zM338 546h-110q-4 0 -5.5 3t1.5 7l101 136q7 10 19 10h134q5 0 6 -3t-3 -7l-123 -136q-10 -10 -20 -10z" />
    <glyph glyph-name="acircumflex.alt01" horiz-adv-x="537" 
d="M441 0h-143q-10 0 -8 10l6 37h-1q-46 -59 -131 -59q-137 0 -137 159q0 53 15 125.5t38 118.5q54 108 173 108q86 0 111 -60h1l7 38q2 10 10 10h143q11 0 9 -10l-82 -467q-2 -10 -11 -10zM244 121q44 0 66 44q9 19 18.5 68t9.5 73q0 60 -51 60q-44 0 -66 -44
q-9 -19 -18.5 -68t-9.5 -73q0 -60 51 -60zM497 545h-87q-12 0 -20 10l-38 52h-2l-57 -52q-11 -10 -24 -10h-95q-4 0 -5.5 3t1.5 7l129 137q8 9 20 9h87q12 0 17 -9l80 -137q2 -4 0.5 -7t-6.5 -3z" />
    <glyph glyph-name="atilde.alt01" horiz-adv-x="537" 
d="M441 0h-143q-10 0 -8 10l6 37h-1q-46 -59 -131 -59q-137 0 -137 159q0 53 15 125.5t38 118.5q54 108 173 108q86 0 111 -60h1l7 38q2 10 10 10h143q11 0 9 -10l-82 -467q-2 -10 -11 -10zM244 121q44 0 66 44q9 19 18.5 68t9.5 73q0 60 -51 60q-44 0 -66 -44
q-9 -19 -18.5 -68t-9.5 -73q0 -60 51 -60zM401 548q-37 0 -78 23q-29 18 -54 18q-36 0 -78 -33q-4 -3 -7.5 -1.5t-2.5 6.5l14 78q3 13 13 21q41 36 84 36q37 0 78 -23q29 -18 54 -18q36 0 78 33q4 3 7.5 1.5t2.5 -6.5l-14 -78q-2 -11 -13 -22q-41 -35 -84 -35z" />
    <glyph glyph-name="adieresis.alt01" horiz-adv-x="537" 
d="M441 0h-143q-10 0 -8 10l6 37h-1q-46 -59 -131 -59q-137 0 -137 159q0 53 15 125.5t38 118.5q54 108 173 108q86 0 111 -60h1l7 38q2 10 10 10h143q11 0 9 -10l-82 -467q-2 -10 -11 -10zM244 121q44 0 66 44q9 19 18.5 68t9.5 73q0 60 -51 60q-44 0 -66 -44
q-9 -19 -18.5 -68t-9.5 -73q0 -60 51 -60zM492 556h-105q-11 0 -9 10l20 106q2 10 12 10h104q10 0 8 -10l-19 -106q-2 -10 -11 -10zM293 556h-104q-11 0 -9 10l20 106q2 10 11 10h105q10 0 8 -10l-20 -106q-2 -10 -11 -10z" />
    <glyph glyph-name="amacron.alt01" horiz-adv-x="537" 
d="M441 0h-143q-10 0 -8 10l6 37h-1q-46 -59 -131 -59q-137 0 -137 159q0 53 15 125.5t38 118.5q54 108 173 108q86 0 111 -60h1l7 38q2 10 10 10h143q11 0 9 -10l-82 -467q-2 -10 -11 -10zM244 121q44 0 66 44q9 19 18.5 68t9.5 73q0 60 -51 60q-44 0 -66 -44
q-9 -19 -18.5 -68t-9.5 -73q0 -60 51 -60zM484 566h-291q-10 0 -8 10l15 87q2 10 11 10h291q10 0 8 -10l-15 -87q-2 -10 -11 -10z" />
    <glyph glyph-name="abreve.alt01" horiz-adv-x="537" 
d="M441 0h-143q-10 0 -8 10l6 37h-1q-46 -59 -131 -59q-137 0 -137 159q0 53 15 125.5t38 118.5q54 108 173 108q86 0 111 -60h1l7 38q2 10 10 10h143q11 0 9 -10l-82 -467q-2 -10 -11 -10zM244 121q44 0 66 44q9 19 18.5 68t9.5 73q0 60 -51 60q-44 0 -66 -44
q-9 -19 -18.5 -68t-9.5 -73q0 -60 51 -60zM332 540q-66 0 -103 39t-29 99q2 12 13 12h62q11 0 14 -11q8 -41 58 -41q52 0 75 41q6 11 17 11h62q12 0 10 -11q-11 -59 -63 -99t-116 -40z" />
    <glyph glyph-name="aring.alt01" horiz-adv-x="537" 
d="M441 0h-143q-10 0 -8 10l6 37h-1q-46 -59 -131 -59q-137 0 -137 159q0 53 15 125.5t38 118.5q54 108 173 108q86 0 111 -60h1l7 38q2 10 10 10h143q11 0 9 -10l-82 -467q-2 -10 -11 -10zM244 121q44 0 66 44q9 19 18.5 68t9.5 73q0 60 -51 60q-44 0 -66 -44
q-9 -19 -18.5 -68t-9.5 -73q0 -60 51 -60zM330 520q-42 0 -68.5 25t-26.5 65q0 56 37 95t95 39q42 0 68 -25t26 -65q0 -56 -36.5 -95t-94.5 -39zM340 586q21 0 36 16t15 40q0 16 -9.5 26t-25.5 10q-21 0 -36 -16t-15 -40q0 -16 9.5 -26t25.5 -10z" />
    <glyph glyph-name="aringacute.alt01" horiz-adv-x="537" 
d="M419 769h-108q-4 0 -5 4t3 7l109 99q11 10 24 10h134q5 0 6 -3.5t-3 -6.5l-134 -100q-12 -10 -26 -10zM441 0h-143q-10 0 -8 10l6 37h-1q-46 -59 -131 -59q-137 0 -137 159q0 53 15 125.5t38 118.5q54 108 173 108q86 0 111 -60h1l7 38q2 10 10 10h143q11 0 9 -10
l-82 -467q-2 -10 -11 -10zM244 121q44 0 66 44q9 19 18.5 68t9.5 73q0 60 -51 60q-44 0 -66 -44q-9 -19 -18.5 -68t-9.5 -73q0 -60 51 -60zM330 520q-42 0 -68.5 25t-26.5 65q0 56 37 95t95 39q42 0 68 -25t26 -65q0 -56 -36.5 -95t-94.5 -39zM340 586q21 0 36 16t15 40
q0 16 -9.5 26t-25.5 10q-21 0 -36 -16t-15 -40q0 -16 9.5 -26t25.5 -10z" />
    <glyph glyph-name="aogonek.alt01" horiz-adv-x="538" 
d="M313 -190q-42 0 -67 21.5t-25 56.5q0 59 77 112h-3q-7 0 -5 10l6 37h-1q-46 -59 -131 -59q-137 0 -137 159q0 53 15 125.5t38 118.5q53 108 172 108q43 0 72 -16.5t40 -43.5h1l7 38q2 10 10 10h143q11 0 9 -10l-83 -466q-1 -8 -9 -11q-97 -41 -97 -71q0 -13 13 -13
q9 0 25 8q9 5 12 -3l25 -68q4 -9 -5 -13q-49 -30 -102 -30zM244 121q44 0 66 44q9 19 18.5 68t9.5 73q0 60 -51 60q-44 0 -66 -44q-9 -19 -18.5 -68t-9.5 -73q0 -60 51 -60z" />
    <glyph glyph-name="ae.alt01" horiz-adv-x="793" 
d="M505 -12q-52 0 -90.5 20t-55.5 50h-1q-67 -70 -187 -70q-73 0 -113 33t-40 95q0 86 61 133t170 47h74q7 0 8 6l3 17q6 29 -10.5 41t-71.5 12q-63 0 -107 -28q-9 -5 -12 4l-34 88q-4 8 5 15q75 48 193 48q100 0 149 -46h2q56 46 137 46q85 0 138 -45.5t53 -127.5
q0 -38 -14 -119q-2 -10 -12 -10h-280q-6 0 -7 -6q-1 -4 -1 -12q0 -67 82 -67q57 0 113 43q9 5 15 -1l54 -71q7 -7 -1 -15q-90 -80 -220 -80zM488 296h128q6 0 7 6q3 12 3 23q0 58 -59 58q-53 0 -74 -47q-7 -14 -10 -34q0 -6 5 -6zM222 104q74 0 83 55l5 32q2 6 -5 6h-56
q-76 0 -76 -57q0 -36 49 -36z" />
    <glyph glyph-name="aeacute.alt01" horiz-adv-x="793" 
d="M500 546h-110q-4 0 -5.5 3t1.5 7l101 136q7 10 19 10h134q5 0 6 -3t-3 -7l-123 -136q-10 -10 -20 -10zM505 -12q-52 0 -90.5 20t-55.5 50h-1q-67 -70 -187 -70q-73 0 -113 33t-40 95q0 86 61 133t170 47h74q7 0 8 6l3 17q6 29 -10.5 41t-71.5 12q-63 0 -107 -28
q-9 -5 -12 4l-34 88q-4 8 5 15q75 48 193 48q100 0 149 -46h2q56 46 137 46q85 0 138 -45.5t53 -127.5q0 -38 -14 -119q-2 -10 -12 -10h-280q-6 0 -7 -6q-1 -4 -1 -12q0 -67 82 -67q57 0 113 43q9 5 15 -1l54 -71q7 -7 -1 -15q-90 -80 -220 -80zM488 296h128q6 0 7 6
q3 12 3 23q0 58 -59 58q-53 0 -74 -47q-7 -14 -10 -34q0 -6 5 -6zM222 104q74 0 83 55l5 32q2 6 -5 6h-56q-76 0 -76 -57q0 -36 49 -36z" />
    <glyph glyph-name="germandbls.alt01" horiz-adv-x="587" 
d="M196 -181q-11 0 -8 10l19 108q2 10 12 10q64 1 105.5 35.5t41.5 95.5q0 68 -77 80q-9 2 -8 10l18 101q1 7 8 14l73 80v4h-134q-6 0 -7 -6l-61 -351q-2 -10 -11 -10h-142q-10 0 -8 10l88 499q16 92 64 131.5t140 39.5h65q10 0 8 -10l-18 -103q-2 -10 -11 -10h-30
q-28 0 -40 -9.5t-17 -36.5l-4 -18q-2 -7 5 -7h307q10 0 8 -10l-17 -96q-1 -10 -9 -18l-100 -111v-2q74 -45 74 -141q0 -130 -93 -209.5t-241 -79.5z" />
    <glyph glyph-name="q.alt01" horiz-adv-x="538" 
d="M403 -180h-136q-10 0 -8 10l37 217h-1q-46 -59 -131 -59q-137 0 -137 159q0 53 15 125.5t38 118.5q54 108 173 108q86 0 111 -60h1l7 38q2 10 10 10h143q11 0 9 -10l-91 -519h1l53 41q9 7 15 -1l41 -62q5 -9 -3 -15l-128 -94q-10 -7 -19 -7zM244 121q44 0 66 44
q9 19 18.5 68t9.5 73q0 60 -51 60q-44 0 -66 -44q-9 -19 -18.5 -68t-9.5 -73q0 -60 51 -60z" />
    <glyph glyph-name="C.alt01" horiz-adv-x="573" 
d="M269 -12q-100 0 -159.5 56t-59.5 158q0 58 20 167.5t47 163.5q77 159 264 159q107 0 166.5 -60t52.5 -160q-2 -10 -9 -10h-144q-11 0 -11 10q-5 69 -71 69q-63 0 -94 -65q-14 -30 -32 -124.5t-18 -133.5q0 -79 71 -79q65 0 97 69q5 10 13 10h149q11 0 9 -10
q-65 -220 -291 -220z" />
    <glyph glyph-name="Cacute.alt01" horiz-adv-x="572" 
d="M269 -12q-100 0 -159.5 56t-59.5 158q0 58 20 167.5t47 163.5q77 159 264 159q107 0 166.5 -60t52.5 -160q-2 -10 -9 -10h-144q-11 0 -11 10q-5 69 -71 69q-63 0 -94 -65q-14 -30 -32 -124.5t-18 -133.5q0 -79 71 -79q65 0 97 69q5 10 13 10h149q11 0 9 -10
q-65 -220 -291 -220zM415 747h-109q-4 0 -5.5 3t1.5 7l119 122q10 10 22 10h135q5 0 6.5 -3t-2.5 -7l-145 -122q-11 -10 -22 -10z" />
    <glyph glyph-name="Ccircumflex.alt01" horiz-adv-x="572" 
d="M269 -12q-100 0 -159.5 56t-59.5 158q0 58 20 167.5t47 163.5q77 159 264 159q107 0 166.5 -60t52.5 -160q-2 -10 -9 -10h-144q-11 0 -11 10q-5 69 -71 69q-63 0 -94 -65q-14 -30 -32 -124.5t-18 -133.5q0 -79 71 -79q65 0 97 69q5 10 13 10h149q11 0 9 -10
q-65 -220 -291 -220zM551 742h-87q-12 0 -19 10l-39 51h-1l-58 -51q-10 -10 -24 -10h-95q-5 0 -6 3t3 7l128 136q9 10 20 10h87q11 0 17 -10l80 -136q2 -4 0.5 -7t-6.5 -3z" />
    <glyph glyph-name="Ccaron.alt01" horiz-adv-x="572" 
d="M269 -12q-100 0 -159.5 56t-59.5 158q0 58 20 167.5t47 163.5q77 159 264 159q107 0 166.5 -60t52.5 -160q-2 -10 -9 -10h-144q-11 0 -11 10q-5 69 -71 69q-63 0 -94 -65q-14 -30 -32 -124.5t-18 -133.5q0 -79 71 -79q65 0 97 69q5 10 13 10h149q11 0 9 -10
q-65 -220 -291 -220zM428 736h-86q-12 0 -18 10l-80 136q-2 4 0 7t6 3h87q13 0 20 -10l38 -51h2l57 51q10 10 24 10h95q5 0 6 -3t-2 -7l-129 -136q-9 -10 -20 -10z" />
    <glyph glyph-name="Cdotaccent.alt01" horiz-adv-x="572" 
d="M454 752h-133q-10 0 -8 10l19 107q2 10 11 10h133q10 0 8 -10l-19 -107q-2 -10 -11 -10zM269 -12q-100 0 -159.5 56t-59.5 158q0 58 20 167.5t47 163.5q77 159 264 159q107 0 166.5 -60t52.5 -160q-2 -10 -9 -10h-144q-11 0 -11 10q-5 69 -71 69q-63 0 -94 -65
q-14 -30 -32 -124.5t-18 -133.5q0 -79 71 -79q65 0 97 69q5 10 13 10h149q11 0 9 -10q-65 -220 -291 -220z" />
    <glyph glyph-name="Ccedilla.alt01" horiz-adv-x="572" 
d="M231 -165h-111q-10 0 -5 10l85 151q-70 17 -110 70t-40 136q0 58 20 167.5t47 163.5q77 159 264 159q107 0 166.5 -60t52.5 -160q-2 -10 -9 -10h-144q-11 0 -11 10q-5 69 -71 69q-63 0 -94 -65q-14 -30 -32 -124.5t-18 -133.5q0 -79 71 -79q65 0 97 69q5 10 13 10h149
q11 0 9 -10q-58 -197 -244 -217l-68 -146q-4 -10 -17 -10z" />
    <glyph glyph-name="G.alt01" horiz-adv-x="607" 
d="M274 -12q-105 0 -166 55.5t-61 158.5q0 57 20.5 168t46.5 163q77 159 272 159q108 0 169.5 -60t54.5 -160q-2 -10 -9 -10h-144q-11 0 -12 10q-2 32 -21.5 50.5t-54.5 18.5q-70 0 -101 -65q-14 -28 -32 -123.5t-18 -134.5q0 -37 20.5 -58t58.5 -21q71 0 98 58q8 18 14 48
q0 6 -6 6h-69q-10 0 -8 10l20 108q2 10 11 10h235q9 0 7 -10l-9 -50q-20 -118 -49 -174q-41 -82 -106.5 -119.5t-160.5 -37.5z" />
    <glyph glyph-name="Gcircumflex.alt01" horiz-adv-x="607" 
d="M274 -12q-105 0 -166 55.5t-61 158.5q0 57 20.5 168t46.5 163q77 159 272 159q108 0 169.5 -60t54.5 -160q-2 -10 -9 -10h-144q-11 0 -12 10q-2 32 -21.5 50.5t-54.5 18.5q-70 0 -101 -65q-14 -28 -32 -123.5t-18 -134.5q0 -37 20.5 -58t58.5 -21q71 0 98 58q8 18 14 48
q0 6 -6 6h-69q-10 0 -8 10l20 108q2 10 11 10h235q9 0 7 -10l-9 -50q-20 -118 -49 -174q-41 -82 -106.5 -119.5t-160.5 -37.5zM553 742h-87q-12 0 -19 10l-39 51h-1l-58 -51q-10 -10 -24 -10h-95q-5 0 -6 3t3 7l128 136q9 10 20 10h87q11 0 17 -10l80 -136q2 -4 0.5 -7
t-6.5 -3z" />
    <glyph glyph-name="Gbreve.alt01" horiz-adv-x="607" 
d="M386 735q-66 0 -103 39t-29 99q2 12 13 12h62q11 0 14 -11q8 -41 58 -41q52 0 75 41q6 11 17 11h62q12 0 10 -11q-11 -59 -63 -99t-116 -40zM274 -12q-105 0 -166 55.5t-61 158.5q0 57 20.5 168t46.5 163q77 159 272 159q108 0 169.5 -60t54.5 -160q-2 -10 -9 -10h-144
q-11 0 -12 10q-2 32 -21.5 50.5t-54.5 18.5q-70 0 -101 -65q-14 -28 -32 -123.5t-18 -134.5q0 -37 20.5 -58t58.5 -21q71 0 98 58q8 18 14 48q0 6 -6 6h-69q-10 0 -8 10l20 108q2 10 11 10h235q9 0 7 -10l-9 -50q-20 -118 -49 -174q-41 -82 -106.5 -119.5t-160.5 -37.5z" />
    <glyph glyph-name="Gdotaccent.alt01" horiz-adv-x="607" 
d="M453 752h-133q-10 0 -8 10l19 107q2 10 11 10h133q10 0 8 -10l-19 -107q-2 -10 -11 -10zM274 -12q-105 0 -166 55.5t-61 158.5q0 57 20.5 168t46.5 163q77 159 272 159q108 0 169.5 -60t54.5 -160q-2 -10 -9 -10h-144q-11 0 -12 10q-2 32 -21.5 50.5t-54.5 18.5
q-70 0 -101 -65q-14 -28 -32 -123.5t-18 -134.5q0 -37 20.5 -58t58.5 -21q71 0 98 58q8 18 14 48q0 6 -6 6h-69q-10 0 -8 10l20 108q2 10 11 10h235q9 0 7 -10l-9 -50q-20 -118 -49 -174q-41 -82 -106.5 -119.5t-160.5 -37.5z" />
    <glyph glyph-name="Gcommaaccent.alt01" horiz-adv-x="607" 
d="M170 -244q-11 0 -9 11l31 177q2 10 11 10h115q11 0 9 -10l-15 -87q-3 -15 -13 -21l-112 -73q-11 -7 -17 -7zM274 -12q-105 0 -166 55.5t-61 158.5q0 57 20.5 168t46.5 163q77 159 272 159q108 0 169.5 -60t54.5 -160q-2 -10 -9 -10h-144q-11 0 -12 10q-2 32 -21.5 50.5
t-54.5 18.5q-70 0 -101 -65q-14 -28 -32 -123.5t-18 -134.5q0 -37 20.5 -58t58.5 -21q71 0 98 58q8 18 14 48q0 6 -6 6h-69q-10 0 -8 10l20 108q2 10 11 10h235q9 0 7 -10l-9 -50q-20 -118 -49 -174q-41 -82 -106.5 -119.5t-160.5 -37.5z" />
    <glyph glyph-name="I.alt01" horiz-adv-x="391" 
d="M310 0h-301q-11 0 -9 10l21 121q2 10 12 10h59q6 0 7 6l69 386q2 6 -4 6h-60q-11 0 -9 10l22 121q2 10 11 10h301q11 0 9 -10l-22 -121q-2 -10 -11 -10h-60q-5 0 -7 -6l-69 -386q-1 -6 5 -6h60q10 0 8 -10l-21 -121q-2 -10 -11 -10z" />
    <glyph glyph-name="Igrave.alt01" horiz-adv-x="391" 
d="M310 0h-301q-11 0 -9 10l21 121q2 10 12 10h59q6 0 7 6l69 386q2 6 -4 6h-60q-11 0 -9 10l22 121q2 10 11 10h301q11 0 9 -10l-22 -121q-2 -10 -11 -10h-60q-5 0 -7 -6l-69 -386q-1 -6 5 -6h60q10 0 8 -10l-21 -121q-2 -10 -11 -10zM338 747h-106q-9 0 -18 10l-101 122
q-3 4 -1.5 7t6.5 3h129q12 0 19 -10l78 -122q2 -4 0 -7t-6 -3z" />
    <glyph glyph-name="Iacute.alt01" horiz-adv-x="391" 
d="M310 0h-301q-11 0 -9 10l21 121q2 10 12 10h59q6 0 7 6l69 386q2 6 -4 6h-60q-11 0 -9 10l22 121q2 10 11 10h301q11 0 9 -10l-22 -121q-2 -10 -11 -10h-60q-5 0 -7 -6l-69 -386q-1 -6 5 -6h60q10 0 8 -10l-21 -121q-2 -10 -11 -10zM326 747h-109q-5 0 -6 3t2 7l119 122
q10 10 22 10h135q5 0 6.5 -3t-2.5 -7l-145 -122q-11 -10 -22 -10z" />
    <glyph glyph-name="Ibreve.alt01" horiz-adv-x="391" 
d="M310 0h-301q-11 0 -9 10l21 121q2 10 12 10h59q6 0 7 6l69 386q2 6 -4 6h-60q-11 0 -9 10l22 121q2 10 11 10h301q11 0 9 -10l-22 -121q-2 -10 -11 -10h-60q-5 0 -7 -6l-69 -386q-1 -6 5 -6h60q10 0 8 -10l-21 -121q-2 -10 -11 -10zM280 735q-66 0 -103 39t-29 99
q2 12 13 12h62q11 0 14 -11q8 -41 58 -41q52 0 75 41q6 11 17 11h62q12 0 10 -11q-11 -59 -63 -99t-116 -40z" />
    <glyph glyph-name="Icircumflex.alt01" horiz-adv-x="391" 
d="M310 0h-301q-11 0 -9 10l21 121q2 10 12 10h59q6 0 7 6l69 386q2 6 -4 6h-60q-11 0 -9 10l22 121q2 10 11 10h301q11 0 9 -10l-22 -121q-2 -10 -11 -10h-60q-5 0 -7 -6l-69 -386q-1 -6 5 -6h60q10 0 8 -10l-21 -121q-2 -10 -11 -10zM447 742h-87q-12 0 -19 10l-39 51h-1
l-58 -51q-10 -10 -24 -10h-95q-5 0 -6 3t3 7l128 136q9 10 20 10h87q11 0 17 -10l80 -136q2 -4 0.5 -7t-6.5 -3z" />
    <glyph glyph-name="Itilde.alt01" horiz-adv-x="391" 
d="M310 0h-301q-11 0 -9 10l21 121q2 10 12 10h59q6 0 7 6l69 386q2 6 -4 6h-60q-11 0 -9 10l22 121q2 10 11 10h301q11 0 9 -10l-22 -121q-2 -10 -11 -10h-60q-5 0 -7 -6l-69 -386q-1 -6 5 -6h60q10 0 8 -10l-21 -121q-2 -10 -11 -10zM354 742q-39 0 -78 24q-29 17 -54 17
q-37 0 -78 -32q-4 -3 -7.5 -1.5t-2.5 5.5l14 78q2 13 13 22q43 36 84 36q36 0 78 -24q27 -17 54 -17q37 0 78 32q4 3 7.5 1.5t2.5 -5.5l-14 -79q-2 -12 -13 -21q-41 -36 -84 -36z" />
    <glyph glyph-name="Idieresis.alt01" horiz-adv-x="391" 
d="M310 0h-301q-11 0 -9 10l21 121q2 10 12 10h59q6 0 7 6l69 386q2 6 -4 6h-60q-11 0 -9 10l22 121q2 10 11 10h301q11 0 9 -10l-22 -121q-2 -10 -11 -10h-60q-5 0 -7 -6l-69 -386q-1 -6 5 -6h60q10 0 8 -10l-21 -121q-2 -10 -11 -10zM438 752h-105q-10 0 -8 10l19 107
q2 10 12 10h104q10 0 8 -10l-19 -107q-2 -10 -11 -10zM240 752h-105q-11 0 -9 10l20 107q2 10 12 10h104q10 0 8 -10l-19 -107q-2 -10 -11 -10z" />
    <glyph glyph-name="Imacron.alt01" horiz-adv-x="391" 
d="M310 0h-301q-11 0 -9 10l21 121q2 10 12 10h59q6 0 7 6l69 386q2 6 -4 6h-60q-11 0 -9 10l22 121q2 10 11 10h301q11 0 9 -10l-22 -121q-2 -10 -11 -10h-60q-5 0 -7 -6l-69 -386q-1 -6 5 -6h60q10 0 8 -10l-21 -121q-2 -10 -11 -10zM436 763h-291q-10 0 -8 10l15 87
q2 10 11 10h291q10 0 8 -10l-15 -87q-2 -10 -11 -10z" />
    <glyph glyph-name="Idotaccent.alt01" horiz-adv-x="391" 
d="M310 0h-301q-11 0 -9 10l21 121q2 10 12 10h59q6 0 7 6l69 386q2 6 -4 6h-60q-11 0 -9 10l22 121q2 10 11 10h301q11 0 9 -10l-22 -121q-2 -10 -11 -10h-60q-5 0 -7 -6l-69 -386q-1 -6 5 -6h60q10 0 8 -10l-21 -121q-2 -10 -11 -10zM353 752h-133q-10 0 -8 10l19 107
q2 10 11 10h133q10 0 8 -10l-19 -107q-2 -10 -11 -10z" />
    <glyph glyph-name="Iogonek.alt01" horiz-adv-x="391" 
d="M125 -190q-42 0 -67 21.5t-25 56.5q0 56 62 112h-86q-11 0 -9 10l21 121q2 10 12 10h59q6 0 7 6l69 386q2 6 -4 6h-60q-11 0 -9 10l22 121q2 10 11 10h301q11 0 9 -10l-22 -121q-2 -10 -11 -10h-60q-5 0 -7 -6l-69 -386q-1 -6 5 -6h60q10 0 8 -10l-21 -121
q-2 -10 -11 -10h-82q-71 -47 -71 -72q0 -12 13 -12q9 0 25 8q9 5 12 -3l25 -68q3 -8 -6 -13q-49 -30 -101 -30z" />
    <glyph glyph-name="Z.alt01" 
d="M488 285h-148l-118 -131v-3h269q10 0 8 -10l-24 -131q-2 -10 -11 -10h-456q-11 0 -9 10l23 128q1 5 6 12l121 135h-60q-10 0 -8 10l17 98q2 10 12 10h146l111 123l1 3h-257q-10 0 -8 10l24 131q2 10 10 10h446q11 0 9 -10l-22 -127q-2 -7 -6 -11l-117 -129h62q10 0 8 -10
l-17 -98q-2 -10 -12 -10z" />
    <glyph glyph-name="Zacute.alt01" 
d="M381 747h-109q-4 0 -5.5 3t1.5 7l119 122q10 10 22 10h135q5 0 6.5 -3t-2.5 -7l-145 -122q-11 -10 -22 -10zM488 285h-148l-118 -131v-3h269q10 0 8 -10l-24 -131q-2 -10 -11 -10h-456q-11 0 -9 10l23 128q1 5 6 12l121 135h-60q-10 0 -8 10l17 98q2 10 12 10h146
l111 123l1 3h-257q-10 0 -8 10l24 131q2 10 10 10h446q11 0 9 -10l-22 -127q-2 -7 -6 -11l-117 -129h62q10 0 8 -10l-17 -98q-2 -10 -12 -10z" />
    <glyph glyph-name="Zcaron.alt01" 
d="M407 736h-86q-12 0 -18 10l-80 136q-2 4 -0.5 7t6.5 3h87q12 0 20 -10l38 -51h2l57 51q10 10 24 10h95q4 0 5.5 -3t-1.5 -7l-129 -136q-9 -10 -20 -10zM488 285h-148l-118 -131v-3h269q10 0 8 -10l-24 -131q-2 -10 -11 -10h-456q-11 0 -9 10l23 128q1 5 6 12l121 135h-60
q-10 0 -8 10l17 98q2 10 12 10h146l111 123l1 3h-257q-10 0 -8 10l24 131q2 10 10 10h446q11 0 9 -10l-22 -127q-2 -7 -6 -11l-117 -129h62q10 0 8 -10l-17 -98q-2 -10 -12 -10z" />
    <glyph glyph-name="Zdotaccent.alt01" 
d="M426 752h-133q-10 0 -8 10l19 107q2 10 11 10h133q10 0 8 -10l-19 -107q-2 -10 -11 -10zM488 285h-148l-118 -131v-3h269q10 0 8 -10l-24 -131q-2 -10 -11 -10h-456q-11 0 -9 10l23 128q1 5 6 12l121 135h-60q-10 0 -8 10l17 98q2 10 12 10h146l111 123l1 3h-257
q-10 0 -8 10l24 131q2 10 10 10h446q11 0 9 -10l-22 -127q-2 -7 -6 -11l-117 -129h62q10 0 8 -10l-17 -98q-2 -10 -12 -10z" />
    <glyph glyph-name="zero.alt01" 
d="M237 -12q-86 0 -138.5 45.5t-52.5 128.5q0 59 25.5 200t48.5 190q69 140 233 140q86 0 138 -45.5t52 -128.5q0 -60 -25 -201t-49 -189q-68 -140 -232 -140zM273 520q-21 -38 -54 -254l160 262q-10 31 -46 31q-41 0 -60 -39zM257 121q42 0 61 39q19 38 53 257l-161 -264
q8 -32 47 -32z" />
    <glyph glyph-name="one.alt01" 
d="M461 0h-403q-10 0 -8 10l21 121q2 10 11 10h115q5 0 7 6l62 357h-2l-128 -72q-3 -2 -6 -2t-4.5 2.5t-0.5 6.5l25 140q2 10 9 14l138 81q7 6 19 6h134q10 0 8 -10l-93 -523q0 -6 5 -6h115q10 0 8 -10l-22 -121q-2 -10 -10 -10z" />
    <glyph glyph-name="six.alt01" 
d="M237 -12q-84 0 -135.5 42.5t-51.5 124.5q0 33 6 67l40 226q44 244 277 244q112 0 180 -58q6 -6 0 -14l-71 -93q-6 -9 -16 -3q-58 34 -110 34q-41 0 -65.5 -22.5t-33.5 -74.5l-7 -45h1q30 28 89 28q77 0 122.5 -37t45.5 -111q0 -38 -10.5 -91t-26.5 -85
q-64 -132 -234 -132zM261 122q46 0 65 42q19 40 19 96q0 52 -51 52q-44 0 -66 -43q-19 -41 -19 -96q0 -51 52 -51z" />
    <glyph glyph-name="seven.alt01" 
d="M465 242h-93l-129 -232q-5 -10 -15 -10h-149q-12 0 -5 11l130 231h-89q-11 0 -9 10l19 105q2 10 11 10h139l96 170v3h-254q-11 0 -9 10l22 120q2 10 11 10h413q10 0 8 -10l-21 -119q-1 -9 -8 -22l-91 -162h45q11 0 9 -10l-19 -105q-2 -10 -12 -10z" />
    <glyph glyph-name="nine.alt01" 
d="M217 -12q-57 0 -104.5 17t-75.5 41q-6 6 0 14l71 93q6 9 16 3q58 -34 110 -34q41 0 65.5 22.5t33.5 74.5l8 45h-1q-30 -28 -90 -28q-76 0 -122 37t-46 111q0 38 10.5 91t26.5 85q64 132 235 132q83 0 134.5 -42.5t51.5 -124.5q0 -33 -6 -67l-40 -226q-43 -244 -277 -244z
M297 368q43 0 65 43q19 41 19 96q0 51 -52 51q-44 0 -65 -42q-19 -43 -19 -96q0 -52 52 -52z" />
    <glyph glyph-name="zero.alt02" 
d="M237 -12q-86 0 -138.5 45.5t-52.5 128.5q0 59 25.5 200t48.5 190q69 140 233 140q86 0 138 -45.5t52 -128.5q0 -60 -25 -201t-49 -189q-68 -140 -232 -140zM273 520q-21 -38 -54 -254l160 262q-10 31 -46 31q-41 0 -60 -39zM257 121q42 0 61 39q19 38 53 257l-161 -264
q8 -32 47 -32z" />
    <glyph glyph-name="one.alt02" horiz-adv-x="478" 
d="M423 0h-403q-10 0 -8 10l21 121q2 10 11 10h115q5 0 7 6l62 357h-2l-128 -72q-3 -2 -6 -2t-4.5 2.5t-0.5 6.5l25 140q2 10 9 14l138 81q8 6 19 6h134q10 0 8 -10l-93 -523q0 -6 5 -6h115q10 0 8 -10l-22 -121q-2 -10 -10 -10z" />
    <glyph glyph-name="six.alt02" horiz-adv-x="530" 
d="M233 -12q-84 0 -135.5 42.5t-51.5 124.5q0 33 6 67l40 226q44 244 277 244q112 0 180 -58q6 -6 0 -14l-71 -93q-6 -9 -16 -3q-58 34 -110 34q-41 0 -65.5 -22.5t-33.5 -74.5l-7 -45h1q30 28 89 28q77 0 122.5 -37t45.5 -111q0 -38 -10.5 -91t-26.5 -85
q-64 -132 -234 -132zM257 122q46 0 65 42q19 40 19 96q0 52 -51 52q-44 0 -66 -43q-19 -41 -19 -96q0 -51 52 -51z" />
    <glyph glyph-name="seven.alt02" horiz-adv-x="512" 
d="M451 242h-93l-129 -232q-5 -10 -15 -10h-149q-12 0 -5 11l130 231h-89q-11 0 -9 10l19 105q2 10 11 10h139l96 170v3h-254q-11 0 -9 10l22 120q2 10 11 10h413q10 0 8 -10l-21 -119q-1 -9 -8 -22l-91 -162h45q11 0 9 -10l-19 -105q-2 -10 -12 -10z" />
    <glyph glyph-name="nine.alt02" horiz-adv-x="535" 
d="M211 -12q-57 0 -104.5 17t-75.5 41q-6 6 0 14l71 93q6 9 16 3q58 -34 110 -34q41 0 65.5 22.5t33.5 74.5l8 45h-1q-30 -28 -90 -28q-76 0 -122 37t-46 111q0 38 10.5 91t26.5 85q64 132 235 132q83 0 134.5 -42.5t51.5 -124.5q0 -33 -6 -67l-40 -226q-43 -244 -277 -244z
M291 368q43 0 65 43q19 41 19 96q0 51 -52 51q-44 0 -65 -42q-19 -43 -19 -96q0 -52 52 -52z" />
    <glyph glyph-name="zero.nominator" horiz-adv-x="354" 
d="M186 267q-59 0 -93 31t-34 89q0 33 13.5 107t28.5 103q43 90 160 90q59 0 93 -31t34 -89q0 -33 -13.5 -107t-28.5 -103q-44 -90 -160 -90zM203 360q21 0 33 22q8 16 20.5 89t12.5 96q0 27 -25 27q-22 0 -32 -21q-8 -16 -21 -89.5t-13 -96.5q0 -27 25 -27z" />
    <glyph glyph-name="one.nominator" horiz-adv-x="354" 
d="M260 274h-99q-10 0 -8 10l48 274h-2l-70 -39q-4 -2 -7 0t-2 6l16 94q1 10 12 15l67 40q11 6 21 6h95q11 0 9 -10l-68 -386q-2 -10 -12 -10z" />
    <glyph glyph-name="two.nominator" horiz-adv-x="354" 
d="M322 274h-268q-10 0 -8 10l14 73q1 10 11 18l166 139q31 27 31 55q0 25 -26 25q-29 0 -41 -38q-3 -10 -12 -8l-86 12q-8 2 -6 11q13 51 57 83.5t111 32.5q56 0 88 -28t32 -74q0 -71 -74 -130l-97 -82v-1h125q10 0 8 -10l-13 -78q-2 -10 -12 -10z" />
    <glyph glyph-name="three.nominator" horiz-adv-x="354" 
d="M189 267q-60 0 -94 27t-36 75q0 10 9 12l88 13q8 1 11 -7q9 -27 33 -27q18 0 30.5 13t12.5 32q0 30 -36 30h-13q-10 0 -8 10l12 71q2 10 12 10h12q19 0 31 11.5t12 31.5q0 25 -27 25q-24 0 -37 -24q-5 -10 -13 -8l-84 14q-9 2 -6 11q16 44 59 72t103 28q59 0 91.5 -26
t32.5 -68q0 -66 -61 -102v-1q36 -20 36 -69q0 -70 -48.5 -112t-121.5 -42z" />
    <glyph glyph-name="four.nominator" horiz-adv-x="354" 
d="M306 274h-89q-9 0 -7 10l6 38q2 6 -5 6h-161q-10 0 -8 10l14 81q1 8 9 19l144 232q6 10 16 10h101q5 0 6.5 -3t-1.5 -7l-149 -243v-2h47q5 0 7 6l10 59q2 10 11 10h89q10 0 8 -10l-10 -59q-2 -6 4 -6h15q9 0 7 -10l-14 -77q-2 -10 -11 -10h-14q-5 0 -7 -6l-6 -38
q-2 -10 -12 -10z" />
    <glyph glyph-name="five.nominator" horiz-adv-x="354" 
d="M186 267q-115 0 -121 92q0 11 9 13l86 16q10 2 12 -6q6 -21 29 -21t33 19q10 20 10 42q0 29 -26 29q-14 0 -28 -12q-6 -6 -13 -6h-88q-10 0 -8 10l40 227q2 10 11 10h248q11 0 9 -10l-13 -75q-2 -11 -11 -11h-150q-6 0 -7 -5l-10 -53h1q25 18 64 18q47 0 73 -23.5
t26 -69.5q0 -55 -21 -99q-41 -85 -155 -85z" />
    <glyph glyph-name="six.nominator" horiz-adv-x="354" 
d="M187 267q-61 0 -96 29.5t-35 79.5q0 62 58 142l111 152q8 10 18 10h106q4 0 5.5 -3t-1.5 -7l-99 -139v-1q3 1 13 1q46 0 73 -27.5t27 -72.5q0 -70 -51.5 -117t-128.5 -47zM203 359q20 0 34 14.5t14 34.5q0 15 -9 24.5t-24 9.5q-19 0 -33.5 -15t-14.5 -35q0 -33 33 -33z
" />
    <glyph glyph-name="seven.nominator" horiz-adv-x="354" 
d="M203 274h-103q-10 0 -5 12l174 296l1 2h-58q-6 0 -7 -6l-7 -36q-2 -10 -11 -10h-88q-10 0 -8 10l23 128q2 10 11 10h272q11 0 9 -10l-16 -86q-1 -8 -6 -17l-166 -283q-6 -10 -15 -10z" />
    <glyph glyph-name="eight.nominator" horiz-adv-x="354" 
d="M187 267q-60 0 -96.5 28t-36.5 77q0 70 62 113v1q-24 24 -24 59q0 59 50 100.5t119 41.5q60 0 92.5 -29t32.5 -74q0 -56 -50 -98v-1q30 -30 30 -68q0 -66 -52.5 -108t-126.5 -42zM232 525q17 0 28.5 12.5t11.5 31.5q0 12 -7.5 19.5t-20.5 7.5q-17 0 -28.5 -12.5
t-11.5 -31.5q0 -12 7.5 -19.5t20.5 -7.5zM203 358q20 0 34 14.5t14 35.5q0 15 -9.5 24t-24.5 9q-20 0 -34 -14.5t-14 -35.5q0 -14 9.5 -23.5t24.5 -9.5z" />
    <glyph glyph-name="nine.nominator" horiz-adv-x="354" 
d="M206 274h-107q-4 0 -5.5 3t1.5 7l99 139v1q-3 -1 -13 -1q-45 0 -72.5 27.5t-27.5 72.5q0 70 51.5 117t128.5 47q61 0 96 -29.5t35 -79.5q0 -61 -58 -142l-111 -152q-8 -10 -17 -10zM230 512q20 0 34 15t14 35q0 33 -33 33q-19 0 -33 -14.5t-14 -34.5q0 -34 32 -34z" />
    <glyph glyph-name="zero.denominator" horiz-adv-x="354" 
d="M139 -7q-59 0 -93 31t-34 89q0 33 13.5 107t28.5 103q43 90 160 90q59 0 93 -31t34 -89q0 -33 -13.5 -107t-28.5 -103q-43 -90 -160 -90zM156 86q21 0 33 22q8 16 20.5 89t12.5 96q0 27 -25 27q-21 0 -32 -21q-8 -16 -21 -89.5t-13 -96.5q0 -27 25 -27z" />
    <glyph glyph-name="one.denominator" horiz-adv-x="354" 
d="M231 0h-99q-10 0 -8 10l48 274h-2l-70 -39q-4 -2 -7 0t-2 6l16 94q1 10 12 15l67 40q10 6 21 6h95q11 0 9 -10l-68 -386q-2 -10 -12 -10z" />
    <glyph glyph-name="two.denominator" horiz-adv-x="354" 
d="M274 0h-268q-10 0 -8 10l14 73q1 10 11 18l166 139q31 27 31 55q0 25 -26 25q-29 0 -41 -38q-3 -10 -12 -8l-86 12q-8 2 -6 11q13 51 57 83.5t111 32.5q56 0 88 -28t32 -74q0 -71 -74 -130l-97 -82v-1h125q10 0 8 -10l-13 -78q-2 -10 -12 -10z" />
    <glyph glyph-name="three.denominator" horiz-adv-x="354" 
d="M142 -7q-60 0 -94 27t-36 75q0 10 9 12l88 13q8 1 11 -7q9 -27 33 -27q18 0 30.5 13t12.5 32q0 30 -36 30h-13q-10 0 -8 10l12 71q2 10 12 10h12q19 0 31 11.5t12 31.5q0 25 -27 25q-24 0 -37 -24q-5 -10 -13 -8l-84 14q-9 2 -6 11q16 44 59 72t103 28q59 0 91.5 -26
t32.5 -68q0 -66 -61 -102v-1q36 -20 36 -69q0 -70 -48.5 -112t-121.5 -42z" />
    <glyph glyph-name="four.denominator" horiz-adv-x="354" 
d="M259 0h-89q-9 0 -7 10l6 38q1 6 -5 6h-161q-10 0 -8 10l14 81q1 8 9 19l144 232q6 10 16 10h101q5 0 6.5 -3t-1.5 -7l-149 -243v-2h47q6 0 7 6l10 59q2 10 11 10h89q10 0 8 -10l-10 -59q-1 -6 4 -6h15q9 0 7 -10l-14 -77q-2 -10 -11 -10h-14q-6 0 -7 -6l-6 -38
q-2 -10 -12 -10z" />
    <glyph glyph-name="five.denominator" horiz-adv-x="354" 
d="M138 -7q-115 0 -121 92q0 11 9 13l86 16q10 2 12 -6q6 -21 29 -21t33 19q10 20 10 42q0 29 -26 29q-14 0 -28 -12q-6 -6 -13 -6h-88q-10 0 -8 10l40 227q2 10 11 10h248q11 0 9 -10l-13 -75q-2 -11 -11 -11h-150q-6 0 -7 -5l-10 -53h1q25 18 64 18q47 0 73 -23.5
t26 -69.5q0 -55 -21 -99q-41 -85 -155 -85z" />
    <glyph glyph-name="six.denominator" horiz-adv-x="354" 
d="M140 -7q-61 0 -96 29.5t-35 79.5q0 62 58 142l111 152q8 10 18 10h106q4 0 5.5 -3t-1.5 -7l-99 -139v-1q3 1 13 1q46 0 73 -27.5t27 -72.5q0 -70 -51.5 -117t-128.5 -47zM156 85q20 0 34 14.5t14 34.5q0 15 -9 24.5t-24 9.5q-19 0 -33.5 -15t-14.5 -35q0 -33 33 -33z" />
    <glyph glyph-name="seven.denominator" horiz-adv-x="354" 
d="M155 0h-103q-10 0 -5 12l174 296l1 2h-58q-6 0 -7 -6l-7 -36q-2 -10 -11 -10h-88q-10 0 -8 10l23 128q2 10 11 10h272q11 0 9 -10l-16 -86q-1 -8 -6 -17l-166 -283q-6 -10 -15 -10z" />
    </font>
</defs>
</svg>
